<?xml version="1.0" standalone="no"?>
<!DOCTYPE svg PUBLIC "-//W3C//DTD SVG 20010904//EN"
 "http://www.w3.org/TR/2001/REC-SVG-20010904/DTD/svg10.dtd">
<svg version="1.0" xmlns="http://www.w3.org/2000/svg"
 width="554.000000pt" height="552.000000pt" viewBox="0 0 554.000000 552.000000"
 preserveAspectRatio="xMidYMid meet">

<g transform="translate(0.000000,552.000000) scale(0.100000,-0.100000)"
fill="#000000" stroke="none">
<path d="M518 5146 l-88 -92 0 -495 c0 -617 16 -900 71 -1279 201 -1384 869
-2353 2024 -2937 l133 -67 148 74 c1199 602 1913 1575 2098 2855 50 342 71
750 62 1170 -3 165 -9 427 -12 583 l-7 282 -2171 -1 -2171 -2 -87 -91z m4231
-101 c11 -12 5 -1168 -7 -1325 -37 -465 -96 -808 -198 -1153 -278 -933 -861
-1629 -1733 -2067 l-141 -71 -131 65 c-1081 544 -1704 1464 -1879 2775 -50
380 -66 760 -55 1365 l7 429 2066 -7 c1136 -4 2068 -9 2071 -11z"/>
<path d="M3805 4771 c-70 -43 -139 -138 -166 -231 l-13 -45 -4 33 c-4 36 -11
38 -50 18 -56 -29 -104 -98 -117 -168 -6 -30 -12 -37 -34 -40 -24 -3 -26 -7
-25 -45 1 -57 52 -134 160 -240 129 -128 271 -213 331 -199 22 6 25 11 21 46
-3 39 -3 39 47 55 108 36 155 101 154 215 0 36 -4 74 -8 84 -7 17 -10 16 -34
-15 l-27 -34 0 57 c0 31 -7 90 -15 130 -28 132 -45 154 -79 97 -14 -24 -21
-28 -26 -18 -19 34 -70 236 -70 275 0 50 -3 51 -45 25z m17 -148 c10 -43 24
-103 33 -133 42 -152 -4 -231 -214 -367 -2 -2 -2 -5 1 -8 10 -11 117 36 163
71 63 49 102 105 126 186 12 37 25 66 29 63 14 -9 33 -140 28 -195 -3 -29 -14
-63 -25 -78 -27 -37 -81 -72 -109 -72 -32 0 -30 -16 2 -23 41 -8 89 10 144 54
l50 39 0 -31 c0 -25 -10 -42 -44 -75 -103 -99 -247 -79 -379 52 -87 85 -137
177 -137 248 1 45 33 110 69 135 l31 22 -1 -58 c-1 -42 6 -76 25 -120 21 -50
24 -67 16 -89 -14 -35 -7 -41 19 -15 25 25 27 61 5 125 -19 56 -13 110 20 181
23 49 110 165 124 165 4 0 15 -35 24 -77z"/>
<path d="M1755 4607 c-239 -126 -494 -369 -594 -564 -27 -54 -27 -88 1 -107
34 -24 58 -20 147 25 120 60 231 146 376 293 181 182 264 312 237 371 -18 39
-70 33 -167 -18z m103 -39 c4 -36 -78 -154 -187 -268 l-91 -95 6 50 c3 33 0
65 -10 93 -15 41 -14 46 4 82 20 40 106 101 205 146 59 27 69 26 73 -8z"/>
<path d="M1900 4403 c-82 -129 -265 -310 -410 -405 -63 -42 -136 -87 -162 -99
-27 -13 -48 -27 -48 -31 0 -4 28 -8 63 -8 165 -1 283 -44 478 -173 250 -166
541 -436 1402 -1300 l448 -449 25 17 c14 9 24 22 22 30 -2 7 -167 206 -368
442 -390 456 -895 1059 -1077 1286 -120 148 -180 253 -232 400 -36 103 -71
266 -71 331 0 25 -3 46 -7 45 -5 0 -33 -39 -63 -86z m-175 -414 c143 -53 294
-188 710 -634 433 -464 1198 -1308 1196 -1319 -1 -3 -3 -6 -6 -6 -3 0 -206
206 -452 457 -993 1019 -1291 1279 -1584 1384 -49 17 -89 37 -89 44 0 17 27
39 85 68 61 32 70 32 140 6z"/>
<path d="M3243 4283 c-38 -15 12 -133 104 -246 68 -83 208 -208 287 -255 78
-48 165 -81 209 -82 33 0 37 3 37 25 0 29 -26 85 -39 85 -5 0 -14 -7 -21 -15
-38 -46 -160 15 -320 159 -122 110 -203 234 -181 275 16 29 14 37 -14 49 -27
13 -42 14 -62 5z"/>
<path d="M3186 4125 c-12 -126 -25 -179 -71 -274 -65 -133 -121 -213 -283
-398 l-143 -164 28 -34 c15 -18 31 -34 35 -34 3 -1 37 33 75 76 116 130 441
423 588 530 l30 21 -76 79 c-79 81 -134 159 -161 228 l-16 40 -6 -70z"/>
<path d="M3559 3687 c-147 -53 -320 -170 -564 -382 -70 -60 -138 -120 -152
-131 -22 -18 -23 -24 -13 -43 11 -21 13 -21 71 31 272 240 389 325 560 408
102 49 184 74 284 86 l50 6 -65 20 c-100 30 -101 30 -171 5z"/>
<path d="M2353 2918 c-65 -73 -196 -217 -290 -320 -95 -102 -173 -191 -173
-196 0 -5 8 -16 18 -24 16 -13 42 11 324 301 l307 316 -27 28 c-14 15 -29 27
-33 27 -4 0 -60 -60 -126 -132z"/>
<path d="M2277 2633 c-290 -279 -317 -308 -301 -320 16 -12 27 -5 104 69 79
77 154 150 443 427 87 83 106 106 96 117 -6 8 -14 14 -18 14 -3 -1 -149 -139
-324 -307z"/>
<path d="M1801 2389 c-11 -9 -21 -25 -21 -34 0 -25 95 -120 141 -140 40 -18
40 -18 62 4 l22 23 -25 16 c-14 9 -55 46 -91 82 -65 65 -67 66 -88 49z"/>
<path d="M1585 2064 c-104 -113 -191 -211 -193 -218 -5 -22 36 -50 57 -40 10
5 108 96 217 201 l198 193 -40 34 c-21 20 -41 35 -44 35 -3 0 -90 -92 -195
-205z"/>
<path d="M3739 1943 c-14 -16 -32 -32 -42 -38 -12 -7 -14 -14 -8 -24 8 -12 14
-12 41 -1 32 13 66 63 55 80 -10 16 -19 12 -46 -17z"/>
<path d="M3820 1920 c0 -15 -61 -80 -75 -80 -18 0 -26 -15 -19 -34 8 -22 43
-20 78 3 50 34 74 102 40 115 -21 8 -24 8 -24 -4z"/>
</g>
</svg>
