<?xml version="1.0" standalone="no"?>
<!DOCTYPE svg PUBLIC "-//W3C//DTD SVG 20010904//EN"
 "http://www.w3.org/TR/2001/REC-SVG-20010904/DTD/svg10.dtd">
<svg version="1.0" xmlns="http://www.w3.org/2000/svg"
 width="490.000000pt" height="598.000000pt" viewBox="0 0 490.000000 598.000000"
 preserveAspectRatio="xMidYMid meet">

<g transform="translate(0.000000,598.000000) scale(0.100000,-0.100000)"
fill="#000000" stroke="none">
<path d="M1680 5840 c-11 -6 -12 -12 -4 -20 13 -13 46 -2 41 13 -5 15 -20 18
-37 7z"/>
<path d="M3760 5760 c0 -81 7 -98 25 -58 6 12 21 25 35 28 14 3 31 18 39 32
13 23 13 29 -2 52 -14 21 -25 26 -57 26 l-40 0 0 -80z m68 22 c3 -16 -2 -22
-17 -22 -26 0 -36 17 -20 36 16 19 33 13 37 -14z"/>
<path d="M3916 5818 c-38 -54 -8 -148 47 -148 40 0 67 35 67 88 0 68 -79 110
-114 60z m80 -45 c8 -30 -10 -73 -31 -73 -22 0 -44 41 -38 72 9 44 58 45 69 1z"/>
<path d="M4070 5761 c0 -44 5 -83 10 -86 6 -4 10 25 10 79 0 51 -4 86 -10 86
-6 0 -10 -33 -10 -79z"/>
<path d="M1744 5815 c-4 -9 -2 -21 5 -28 20 -20 12 -44 -23 -71 -19 -14 -39
-26 -45 -26 -19 0 -12 29 9 40 11 6 20 17 20 25 0 16 -39 31 -49 18 -3 -4 -19
-22 -35 -40 l-28 -32 36 -37 c55 -56 43 -80 -33 -68 -29 5 -39 2 -44 -9 -8
-21 18 -41 45 -34 28 8 58 -18 58 -50 0 -24 -14 -31 -25 -13 -9 15 -52 12 -58
-4 -8 -20 21 -41 48 -38 27 4 42 -15 26 -31 -16 -16 -14 -47 4 -53 8 -4 15
-14 15 -24 0 -23 26 -44 45 -36 17 6 21 46 5 46 -6 0 -15 12 -20 26 -13 33 15
124 38 124 9 0 26 10 39 22 22 21 26 21 51 7 15 -8 28 -25 30 -37 5 -31 34
-45 58 -27 25 19 48 19 40 0 -9 -24 4 -45 29 -45 28 0 39 24 19 40 -19 16 -18
36 2 44 21 8 36 -2 32 -22 -6 -37 43 -60 56 -27 5 15 -18 45 -35 45 -5 0 -7
11 -3 25 7 30 -18 45 -47 27 -10 -7 -29 -12 -42 -12 -13 0 -28 -5 -35 -12 -6
-6 -15 -9 -18 -5 -4 4 3 16 16 27 24 21 22 46 -6 57 -11 4 -23 -2 -34 -17 -15
-20 -21 -22 -49 -12 -27 10 -33 9 -43 -8 -9 -13 -19 -17 -39 -13 -15 3 -30 0
-33 -6 -9 -14 -36 -14 -36 -1 0 18 63 50 87 44 18 -5 23 -1 29 20 5 20 12 26
34 26 51 0 45 38 -8 54 -17 6 -21 12 -16 32 4 17 1 26 -10 30 -11 4 -15 16
-13 38 2 25 -2 32 -21 34 -13 2 -25 -3 -28 -13z m11 -165 c0 -8 -10 -16 -22
-18 -22 -3 -32 16 -16 32 12 11 38 2 38 -14z"/>
<path d="M145 5750 c-3 -5 -3 -26 1 -45 l6 -36 97 3 c109 3 126 20 29 29 -77
7 -98 15 -98 40 0 20 -24 26 -35 9z"/>
<path d="M1853 5743 c-8 -21 15 -33 49 -26 34 7 36 -3 6 -27 -19 -15 -20 -20
-9 -34 26 -31 75 -7 55 26 -4 6 3 19 16 28 14 11 21 24 17 33 -8 21 -126 22
-134 0z"/>
<path d="M1335 5690 c-10 -16 15 -40 41 -40 48 0 52 -74 4 -100 -16 -9 -22 -8
-26 5 -4 8 -1 22 6 30 20 24 4 46 -32 45 -18 -1 -45 2 -60 5 -20 6 -29 2 -37
-13 -7 -14 -17 -18 -31 -15 -28 7 -54 -15 -39 -33 15 -18 38 -18 59 1 23 21
67 5 72 -27 2 -19 9 -23 40 -23 20 0 43 -6 49 -12 21 -21 37 -15 54 17 9 17
20 30 25 30 10 0 7 90 -4 109 -5 8 -18 10 -32 7 -17 -5 -26 -2 -30 9 -7 17
-49 20 -59 5z"/>
<path d="M166 5555 c-17 -16 -26 -34 -26 -55 0 -49 41 -80 105 -80 43 0 57 5
79 26 34 35 34 73 0 108 -37 37 -119 38 -158 1z m138 -37 c18 -29 -4 -53 -53
-56 -61 -5 -93 32 -59 66 19 19 98 11 112 -10z"/>
<path d="M1072 5541 c-21 -13 -10 -46 16 -49 27 -4 40 22 22 43 -14 17 -20 18
-38 6z"/>
<path d="M1490 5525 c0 -20 5 -25 25 -25 29 0 45 28 24 41 -27 17 -49 10 -49
-16z"/>
<path d="M990 5485 c-10 -12 -10 -18 0 -30 7 -8 18 -15 25 -15 7 0 18 7 25 15
10 12 10 18 0 30 -7 8 -18 15 -25 15 -7 0 -18 -7 -25 -15z"/>
<path d="M3108 5480 c-14 -23 -38 -26 -56 -8 -9 10 -16 8 -29 -5 -15 -14 -15
-21 -5 -37 16 -26 16 -27 -9 -33 -15 -4 -20 -12 -17 -29 4 -30 40 -31 53 0 12
26 18 27 51 5 23 -14 27 -15 41 -1 12 13 13 20 3 38 -10 19 -9 24 10 37 20 14
20 16 4 34 -22 24 -31 24 -46 -1z"/>
<path d="M841 5476 c-9 -10 -8 -16 4 -26 20 -16 45 -6 45 20 0 23 -31 28 -49
6z"/>
<path d="M1445 5466 c-16 -12 -17 -16 -6 -30 17 -20 35 -20 50 -2 9 11 8 18
-4 30 -20 19 -17 19 -40 2z"/>
<path d="M2167 5466 c-3 -8 0 -20 8 -26 19 -16 57 -3 53 18 -4 22 -53 28 -61
8z"/>
<path d="M1317 5423 c-12 -11 -8 -41 6 -46 17 -6 47 11 47 27 0 20 -39 34 -53
19z"/>
<path d="M1533 5403 c-18 -7 -16 -42 2 -49 24 -10 47 14 34 37 -10 19 -15 21
-36 12z"/>
<path d="M1776 5341 c-11 -18 6 -41 31 -41 20 0 24 4 21 23 -3 23 -41 37 -52
18z"/>
<path d="M140 5325 c-7 -8 -21 -15 -31 -15 -34 0 -20 -27 21 -39 27 -8 46 -9
59 -2 10 6 41 8 68 4 61 -7 93 8 93 42 0 28 -21 33 -40 10 -8 -10 -30 -15 -65
-15 -35 0 -57 5 -65 15 -7 8 -16 15 -20 15 -4 0 -13 -7 -20 -15z"/>
<path d="M3553 5283 c-19 -7 -16 -40 3 -47 9 -4 22 -1 30 5 23 19 -3 52 -33
42z"/>
<path d="M1790 5230 c0 -23 26 -38 41 -23 14 14 0 43 -22 43 -12 0 -19 -7 -19
-20z"/>
<path d="M3603 5204 c-3 -8 2 -23 11 -32 15 -15 17 -15 33 0 13 14 14 20 3 32
-16 20 -39 20 -47 0z"/>
<path d="M180 5183 c-46 -15 -54 -81 -14 -118 39 -37 121 -36 158 1 15 16 26
38 26 53 0 32 -33 71 -60 71 -26 0 -26 -22 0 -38 22 -14 26 -42 8 -60 -16 -16
-90 -16 -106 0 -17 17 -15 38 5 60 18 20 8 39 -17 31z"/>
<path d="M3761 5058 c-10 -27 -8 -34 11 -55 12 -13 30 -23 40 -23 11 0 18 -7
18 -20 0 -23 -21 -26 -50 -8 -24 15 -38 3 -24 -20 14 -21 56 -27 84 -12 32 17
24 67 -15 88 -16 9 -32 18 -34 20 -3 1 0 7 6 13 8 8 17 8 32 0 18 -10 21 -9
21 9 0 21 -4 24 -52 34 -23 5 -28 2 -37 -26z"/>
<path d="M3903 5051 c-8 -12 -9 -37 -4 -75 9 -63 13 -71 37 -62 13 5 14 9 4
21 -8 9 -11 31 -7 55 5 41 0 80 -12 80 -3 0 -11 -8 -18 -19z"/>
<path d="M4313 5054 c-15 -29 -1 -138 17 -142 13 -2 16 9 14 68 -1 75 -15 107
-31 74z"/>
<path d="M2570 5029 c14 -14 58 -50 98 -79 39 -29 72 -56 72 -61 0 -4 9 -11
20 -14 12 -4 36 -21 54 -38 19 -18 53 -46 77 -64 24 -18 57 -44 73 -57 16 -14
33 -23 37 -20 15 9 10 20 -14 31 -13 6 -48 34 -79 62 -31 28 -60 51 -65 51 -4
0 -42 28 -83 63 -42 34 -85 69 -97 77 -12 8 -23 22 -25 30 -2 8 -14 18 -28 21
-14 4 -34 10 -45 15 -16 6 -15 4 5 -17z"/>
<path d="M3974 5026 c-9 -22 0 -111 11 -111 6 0 11 17 13 37 2 20 10 42 18 48
8 7 14 19 14 26 0 18 -49 18 -56 0z"/>
<path d="M4066 5018 c-40 -56 10 -133 63 -99 18 11 23 78 8 102 -16 26 -52 24
-71 -3z m44 -68 c0 -5 -4 -10 -10 -10 -5 0 -10 5 -10 10 0 6 5 10 10 10 6 0
10 -4 10 -10z"/>
<path d="M4190 5021 c-33 -63 22 -145 68 -99 16 16 16 90 0 106 -18 18 -56 14
-68 -7z m50 -65 c0 -3 -4 -8 -10 -11 -5 -3 -10 -1 -10 4 0 6 5 11 10 11 6 0
10 -2 10 -4z"/>
<path d="M4386 5018 c-7 -41 -4 -83 6 -95 26 -32 85 2 73 41 -3 12 -8 30 -9
41 -2 11 -4 23 -5 28 0 4 -14 7 -31 7 -23 0 -31 -5 -34 -22z m44 -68 c0 -5 -4
-10 -10 -10 -5 0 -10 5 -10 10 0 6 5 10 10 10 6 0 10 -4 10 -10z"/>
<path d="M166 4935 c-25 -23 -33 -56 -20 -90 10 -24 58 -45 107 -45 85 0 129
86 72 140 -19 18 -28 21 -37 12 -9 -9 -8 -16 5 -30 21 -23 22 -56 2 -72 -29
-24 -45 -4 -45 55 0 54 -1 55 -29 55 -16 0 -39 -10 -55 -25z m54 -54 c0 -34
-9 -44 -27 -30 -16 14 -17 41 -1 57 16 16 28 5 28 -27z"/>
<path d="M75 4729 c-10 -16 -1 -22 93 -54 48 -16 86 -34 85 -39 -1 -6 -37 -21
-80 -34 -86 -27 -118 -47 -90 -58 19 -7 235 62 257 82 21 20 9 28 -126 73
-137 46 -131 45 -139 30z"/>
<path d="M3865 4730 c-4 -6 5 -10 19 -10 14 0 26 5 26 10 0 6 -9 10 -19 10
-11 0 -23 -4 -26 -10z"/>
<path d="M3004 4645 c6 -19 14 -31 19 -26 8 8 -11 61 -23 61 -4 0 -2 -16 4
-35z"/>
<path d="M3030 4583 c0 -7 10 -42 22 -78 17 -53 32 -76 78 -121 65 -63 100
-89 100 -76 0 5 -19 25 -42 43 -76 60 -117 116 -118 158 -1 19 -39 91 -40 74z"/>
<path d="M3260 4285 c0 -8 72 -75 93 -86 28 -16 20 7 -10 26 -16 10 -32 24
-36 31 -8 15 -47 38 -47 29z"/>
<path d="M3760 4195 c0 -50 4 -85 10 -85 6 0 10 8 10 19 0 21 17 37 45 42 10
3 26 16 34 30 13 24 13 29 -2 53 -14 21 -25 26 -57 26 l-40 0 0 -85z m68 27
c3 -16 -2 -22 -17 -22 -26 0 -36 17 -20 36 16 19 33 13 37 -14z"/>
<path d="M4350 4201 c0 -44 5 -83 10 -86 6 -4 10 25 10 79 0 51 -4 86 -10 86
-6 0 -10 -33 -10 -79z"/>
<path d="M3913 4228 c-6 -7 -13 -32 -17 -54 -7 -50 8 -67 56 -62 31 4 33 7 36
46 2 23 -2 50 -8 62 -12 22 -52 27 -67 8z m37 -78 c0 -5 -4 -10 -10 -10 -5 0
-10 5 -10 10 0 6 5 10 10 10 6 0 10 -4 10 -10z"/>
<path d="M4027 4233 c-9 -8 -9 -86 -1 -107 10 -27 24 -7 24 35 0 26 5 42 15
45 24 9 18 34 -8 34 -13 0 -27 -3 -30 -7z"/>
<path d="M4122 4228 c-17 -17 -15 -93 3 -108 21 -18 65 -4 65 20 0 22 -10 26
-26 10 -15 -15 -38 14 -30 36 4 11 13 14 31 10 17 -4 25 -2 25 7 0 18 -21 37
-40 37 -9 0 -21 -5 -28 -12z"/>
<path d="M4230 4221 c-33 -63 22 -145 68 -99 16 16 16 90 0 106 -18 18 -56 14
-68 -7z m50 -65 c0 -3 -4 -8 -10 -11 -5 -3 -10 -1 -10 4 0 6 5 11 10 11 6 0
10 -2 10 -4z"/>
<path d="M4422 4228 c-13 -16 -12 -89 1 -105 11 -15 36 -17 56 -4 17 11 17 87
0 107 -14 17 -43 18 -57 2z"/>
<path d="M2860 4196 c25 -15 45 -12 35 5 -4 5 -18 9 -33 9 l-27 -1 25 -13z"/>
<path d="M3190 4135 c-26 -27 -24 -35 11 -39 13 -2 41 -7 62 -11 35 -7 97 8
97 24 -1 17 -20 32 -51 41 -58 17 -93 12 -119 -15z"/>
<path d="M3405 4105 l-40 -24 44 -1 c25 0 52 -7 61 -15 28 -26 72 -28 108 -5
47 29 36 45 -31 45 -31 0 -62 6 -69 13 -17 17 -28 15 -73 -13z"/>
<path d="M2850 4017 c0 -7 9 -18 20 -25 22 -14 25 -9 10 19 -12 21 -30 26 -30
6z"/>
<path d="M3650 4015 c0 -8 9 -15 20 -15 11 0 20 7 20 15 0 8 -9 15 -20 15 -11
0 -20 -7 -20 -15z"/>
<path d="M3430 4010 c0 -5 7 -10 15 -10 8 0 15 5 15 10 0 6 -7 10 -15 10 -8 0
-15 -4 -15 -10z"/>
<path d="M3780 4000 c0 -5 7 -10 15 -10 8 0 15 5 15 10 0 6 -7 10 -15 10 -8 0
-15 -4 -15 -10z"/>
<path d="M2575 3989 c-9 -14 -2 -20 14 -10 8 6 9 11 3 15 -6 3 -14 1 -17 -5z"/>
<path d="M4173 3967 c-49 -19 -48 -24 6 -36 40 -8 57 -8 85 4 39 16 48 35 17
35 -10 0 -31 2 -47 5 -16 2 -43 -1 -61 -8z"/>
<path d="M2381 3934 c0 -11 3 -14 6 -6 3 7 2 16 -1 19 -3 4 -6 -2 -5 -13z"/>
<path d="M2948 3943 c7 -3 16 -2 19 1 4 3 -2 6 -13 5 -11 0 -14 -3 -6 -6z"/>
<path d="M3543 3923 c-7 -3 -13 -9 -13 -14 0 -12 37 -12 44 0 7 11 -14 20 -31
14z"/>
<path d="M760 3866 c0 -2 8 -10 18 -17 15 -13 16 -12 3 4 -13 16 -21 21 -21
13z"/>
<path d="M3050 3766 c0 -8 5 -18 10 -21 6 -3 10 1 10 9 0 8 -4 18 -10 21 -5 3
-10 -1 -10 -9z"/>
<path d="M3330 3771 c0 -11 26 -22 34 -14 12 12 5 23 -14 23 -11 0 -20 -4 -20
-9z"/>
<path d="M4050 3770 c0 -5 9 -10 19 -10 11 0 23 5 26 10 4 6 -5 10 -19 10 -14
0 -26 -4 -26 -10z"/>
<path d="M1735 3614 c-22 -7 -41 -14 -42 -14 -2 0 -3 -4 -3 -8 0 -4 25 -20 56
-35 55 -27 56 -28 38 -48 -16 -18 -16 -21 -1 -36 13 -14 21 -14 42 -5 22 10
24 14 13 32 -10 15 -10 22 0 32 19 19 14 43 -15 64 -45 32 -46 33 -88 18z"/>
<path d="M1426 3566 c-26 -12 -27 -14 -10 -19 10 -3 45 -8 77 -12 69 -8 75
-26 12 -43 -25 -7 -45 -16 -45 -21 0 -4 21 -13 48 -19 26 -6 65 -16 87 -22 22
-6 51 -14 65 -17 14 -4 37 -15 52 -26 27 -20 28 -20 48 -2 18 16 20 16 26 1 3
-9 12 -16 19 -16 14 0 45 32 45 47 0 17 -28 23 -54 11 -22 -9 -28 -7 -49 17
-15 18 -49 37 -93 51 -38 13 -61 23 -52 24 23 0 68 21 68 32 0 4 -11 8 -24 8
-14 0 -27 3 -29 8 -9 13 -160 12 -191 -2z"/>
<path d="M1146 3511 c-14 -22 52 -27 80 -6 18 13 16 14 -28 15 -26 0 -49 -4
-52 -9z"/>
<path d="M132 3438 l3 -43 94 0 c67 0 96 4 99 13 2 8 -12 12 -50 13 -75 1
-102 11 -106 37 -2 14 -10 22 -23 22 -17 0 -20 -6 -17 -42z"/>
<path d="M1035 3440 c-26 -22 -59 -47 -74 -54 -15 -8 -33 -21 -40 -30 -11 -13
-6 -17 29 -27 l42 -13 41 45 c23 25 57 54 75 64 39 23 40 32 6 45 -33 13 -26
16 -79 -30z"/>
<path d="M3762 3393 c3 -84 4 -88 27 -91 35 -5 71 7 71 23 0 10 -11 15 -34 15
-19 0 -38 5 -41 10 -10 16 15 40 41 40 15 0 24 6 24 15 0 10 -10 15 -31 15
-39 0 -34 23 7 30 45 8 34 25 -19 28 l-48 3 3 -88z"/>
<path d="M4410 3394 c0 -57 3 -83 10 -79 13 8 10 165 -2 165 -4 0 -8 -39 -8
-86z"/>
<path d="M3902 3398 c2 -40 8 -73 13 -73 6 0 11 33 13 73 2 60 0 72 -13 72
-13 0 -15 -12 -13 -72z"/>
<path d="M4333 3454 c-15 -29 -1 -138 17 -142 13 -2 15 9 15 60 -1 35 -6 72
-12 82 -10 19 -11 19 -20 0z"/>
<path d="M1885 3431 c-6 -20 3 -51 15 -51 5 0 8 -12 7 -27 -2 -29 19 -41 50
-29 13 5 10 11 -13 31 -16 14 -24 25 -18 25 16 0 26 28 19 51 -4 12 -16 19
-30 19 -14 0 -26 -7 -30 -19z"/>
<path d="M3970 3421 c-33 -63 22 -145 68 -99 16 16 16 90 0 106 -18 18 -56 14
-68 -7z m50 -65 c0 -3 -4 -8 -10 -11 -5 -3 -10 -1 -10 4 0 6 5 11 10 11 6 0
10 -2 10 -4z"/>
<path d="M4086 3431 c-6 -9 17 -107 27 -118 13 -13 34 7 45 45 22 74 11 106
-21 60 l-16 -23 -7 23 c-7 23 -19 29 -28 13z"/>
<path d="M4217 3433 c-3 -5 -8 -27 -12 -51 -9 -53 5 -72 51 -72 l34 0 0 53 c0
29 -5 58 -12 65 -13 13 -54 16 -61 5z m33 -83 c0 -5 -4 -10 -10 -10 -5 0 -10
5 -10 10 0 6 5 10 10 10 6 0 10 -4 10 -10z"/>
<path d="M4479 3424 c-7 -9 -13 -31 -13 -49 0 -58 43 -85 78 -49 18 18 21 66
6 95 -13 23 -53 25 -71 3z m51 -48 c0 -31 -14 -40 -30 -21 -15 18 -6 45 15 45
9 0 15 -9 15 -24z"/>
<path d="M4594 3426 c-9 -23 0 -111 11 -109 6 1 12 19 15 39 7 54 28 55 32 2
4 -54 22 -56 26 -4 6 68 -3 86 -44 86 -20 0 -37 -6 -40 -14z"/>
<path d="M1712 3308 c-14 -14 -16 -44 -3 -52 14 -9 41 5 41 20 0 8 7 17 15 20
8 4 12 10 9 15 -8 13 -48 11 -62 -3z"/>
<path d="M1800 3299 c32 -30 89 -54 101 -42 17 17 4 30 -38 37 -21 4 -47 10
-58 13 -16 5 -17 4 -5 -8z"/>
<path d="M2150 3299 c0 -5 9 -9 20 -9 11 0 20 2 20 4 0 2 -9 6 -20 9 -11 3
-20 1 -20 -4z"/>
<path d="M157 3280 c-21 -17 -27 -30 -27 -60 0 -52 35 -80 100 -80 68 0 100
27 100 85 0 34 -5 47 -22 59 -12 9 -26 16 -30 16 -13 0 -9 -29 7 -54 15 -23
12 -55 -6 -57 -31 -6 -34 -1 -39 51 -5 50 -7 55 -31 58 -14 2 -37 -6 -52 -18z
m48 -60 c0 -39 -19 -50 -35 -21 -8 15 -8 27 0 42 16 29 35 18 35 -21z"/>
<path d="M2222 3278 c5 -15 37 -18 41 -3 1 6 -9 12 -22 13 -16 3 -22 -1 -19
-10z"/>
<path d="M1024 3239 c-38 -33 -52 -39 -73 -34 -14 4 -53 14 -86 21 -33 8 -70
17 -82 20 -22 6 -111 -48 -182 -111 -39 -34 -116 -77 -222 -124 l-66 -28 14
28 c8 16 12 33 8 39 -9 15 -32 12 -39 -5 -4 -11 -21 -15 -59 -15 -36 0 -59 5
-67 15 -16 19 -36 19 -43 1 -3 -8 -16 -16 -28 -18 -31 -4 -37 -28 -7 -28 13 0
29 -5 35 -11 8 -8 25 -8 62 0 62 13 117 5 100 -15 -6 -8 -17 -14 -25 -14 -7 0
-15 -4 -19 -10 -7 -11 9 -15 275 -71 78 -17 129 -35 197 -71 50 -26 103 -48
117 -48 13 0 28 -5 31 -10 16 -26 194 -87 345 -118 126 -26 163 -32 204 -32
44 0 74 -19 62 -39 -4 -6 10 -10 36 -9 69 0 124 -4 105 -9 -24 -6 -11 -23 18
-23 30 0 41 16 24 37 -12 14 -7 15 56 9 39 -4 76 -2 84 2 18 13 51 3 51 -15 0
-11 6 -13 23 -8 53 17 91 16 155 -3 75 -23 110 -30 197 -38 33 -4 64 -10 70
-15 10 -10 75 -12 99 -3 9 3 16 12 16 20 0 8 7 14 15 14 21 0 19 17 -3 29 -11
6 -24 6 -33 0 -20 -13 -29 -11 -29 5 0 8 14 19 30 25 41 14 38 36 -7 47 -35 8
-36 10 -20 26 22 22 22 25 -8 32 -24 6 -36 26 -15 26 6 0 10 6 10 14 0 14 -60
39 -137 57 -46 11 -53 22 -26 37 26 15 8 42 -27 42 -37 0 -39 18 -5 50 22 21
28 22 62 12 64 -20 71 -28 45 -52 -30 -28 -28 -38 11 -55 28 -12 33 -12 44 2
7 9 10 26 7 37 -3 15 4 30 26 51 16 16 30 34 30 41 0 6 -24 19 -52 28 -87 27
-98 36 -98 71 0 18 -7 38 -15 45 -10 9 -14 22 -10 39 3 14 2 31 -3 36 -11 16
-60 35 -90 35 -16 0 -33 5 -38 10 -6 6 -28 11 -49 13 -34 2 -39 -1 -45 -22 -8
-34 -24 -36 -44 -6 -25 38 -56 32 -94 -17 -18 -23 -32 -48 -32 -55 0 -18 -11
-16 -39 8 l-24 20 23 24 c24 26 21 55 -6 55 -24 0 -77 -61 -64 -74 20 -20 11
-56 -17 -67 -16 -7 -37 -16 -48 -21 -26 -12 -141 -6 -138 7 1 5 24 17 50 26
53 18 93 40 93 50 0 4 -31 13 -68 19 -66 12 -72 11 -143 -15 -41 -15 -85 -30
-99 -32 -14 -3 -29 -9 -35 -13 -5 -4 -35 -11 -65 -15 -30 -4 -67 -17 -82 -28
-26 -19 -29 -19 -46 -4 -10 9 -25 17 -33 17 -9 0 -24 7 -35 15 -16 12 -17 16
-5 24 8 5 20 7 27 4 7 -2 18 5 24 17 6 12 25 26 41 32 16 5 29 14 29 19 0 5 8
9 18 9 19 0 42 18 42 32 0 4 -8 8 -19 8 -10 0 -30 9 -44 20 -38 30 -70 25
-123 -21z m1016 -102 c59 -21 80 -37 80 -59 0 -12 8 -31 19 -42 13 -15 17 -31
14 -57 -5 -36 -5 -36 -36 -26 -18 5 -39 14 -47 18 -8 5 -26 14 -40 20 -66 28
-76 56 -48 132 12 31 11 31 58 14z"/>
<path d="M1995 3050 c-3 -5 -1 -10 4 -10 6 0 11 5 11 10 0 6 -2 10 -4 10 -3 0
-8 -4 -11 -10z"/>
<path d="M2290 3269 c0 -5 5 -7 10 -4 6 3 10 8 10 11 0 2 -4 4 -10 4 -5 0 -10
-5 -10 -11z"/>
<path d="M2336 3123 c5 -5 12 -12 16 -18 4 -6 8 -2 8 8 0 9 -7 17 -17 17 -9 0
-12 -3 -7 -7z"/>
<path d="M2508 2963 c7 -3 16 -2 19 1 4 3 -2 6 -13 5 -11 0 -14 -3 -6 -6z"/>
<path d="M2580 2940 c0 -5 6 -10 14 -10 8 0 18 5 21 10 3 6 -3 10 -14 10 -12
0 -21 -4 -21 -10z"/>
<path d="M248 2903 c-9 -2 -27 -26 -39 -54 -13 -27 -26 -49 -30 -49 -15 0 -19
34 -4 50 20 22 19 40 -3 40 -28 0 -42 -21 -42 -62 0 -29 6 -41 26 -55 24 -15
29 -15 53 -2 14 8 31 30 37 49 12 38 40 52 50 25 4 -10 -2 -25 -16 -40 -22
-23 -20 -45 4 -45 40 0 67 95 35 124 -17 17 -48 25 -71 19z"/>
<path d="M2443 2773 c-21 -8 -16 -71 6 -82 11 -7 20 -26 24 -52 3 -23 10 -45
16 -48 6 -4 45 -13 86 -20 l75 -12 0 -35 c0 -22 6 -37 15 -40 11 -5 14 -15 9
-39 -8 -44 8 -51 56 -24 48 27 51 45 10 54 -16 4 -30 11 -30 16 0 6 14 15 30
20 49 17 34 41 -34 53 -21 4 -49 18 -63 32 -14 14 -35 24 -53 24 -32 0 -39 17
-18 38 10 10 10 15 -2 22 -8 5 -23 10 -32 10 -22 0 -24 18 -4 26 25 10 27 34
3 43 -34 13 -81 20 -94 14z"/>
<path d="M2703 2753 c9 -2 23 -2 30 0 6 3 -1 5 -18 5 -16 0 -22 -2 -12 -5z"/>
<path d="M230 2671 c-41 -3 -81 -10 -87 -14 -8 -5 -13 -29 -13 -58 0 -43 3
-51 25 -61 34 -15 42 -3 22 31 -19 33 -13 64 12 59 11 -2 17 -16 19 -40 5 -58
61 -87 105 -54 14 11 17 26 15 76 -2 35 -7 64 -13 65 -5 1 -44 -1 -85 -4z m54
-57 c18 -18 19 -24 7 -43 -15 -23 -41 -5 -41 29 0 33 11 38 34 14z"/>
<path d="M3737 2674 c-10 -10 -8 -136 2 -152 9 -15 80 -13 83 3 1 6 -11 12
-28 15 -28 5 -29 7 -32 65 -3 59 -12 82 -25 69z"/>
<path d="M4170 2666 c0 -8 -12 -21 -27 -28 -23 -11 -29 -21 -31 -56 -4 -52 10
-72 49 -72 l29 0 0 85 c0 50 -4 85 -10 85 -5 0 -10 -7 -10 -14z m-5 -91 c0
-28 -29 -25 -33 3 -3 19 0 23 15 20 10 -2 18 -12 18 -23z"/>
<path d="M4316 2673 c-3 -3 -6 -34 -6 -68 0 -67 17 -95 58 -95 40 0 53 26 50
99 -4 84 -22 86 -26 3 -2 -46 -7 -65 -18 -69 -23 -9 -34 15 -34 74 0 49 -9 71
-24 56z"/>
<path d="M3873 2628 c-6 -7 -13 -32 -17 -54 -7 -50 8 -67 56 -62 31 4 33 7 36
46 2 23 -2 50 -8 62 -12 22 -52 27 -67 8z m37 -78 c0 -5 -4 -10 -10 -10 -5 0
-10 5 -10 10 0 6 5 10 10 10 6 0 10 -4 10 -10z"/>
<path d="M3987 2633 c-9 -8 -9 -86 -1 -107 10 -27 24 -7 24 35 0 28 4 39 15
39 10 0 15 -10 15 -29 0 -37 10 -62 21 -55 13 8 11 98 -3 112 -13 13 -60 16
-71 5z"/>
<path d="M4466 2618 c-7 -41 -4 -83 6 -95 26 -32 85 2 73 41 -3 12 -8 30 -9
41 -2 11 -4 23 -5 28 0 4 -14 7 -31 7 -23 0 -31 -5 -34 -22z m44 -68 c0 -5 -4
-10 -10 -10 -5 0 -10 5 -10 10 0 6 5 10 10 10 6 0 10 -4 10 -10z"/>
<path d="M4593 2628 c-6 -7 -13 -32 -17 -54 -7 -50 8 -67 56 -62 31 4 33 7 36
46 2 23 -2 50 -8 62 -12 22 -52 27 -67 8z m37 -78 c0 -5 -4 -10 -10 -10 -5 0
-10 5 -10 10 0 6 5 10 10 10 6 0 10 -4 10 -10z"/>
<path d="M4709 2619 c-6 -12 -8 -37 -5 -58 4 -20 7 -48 7 -63 0 -24 4 -28 27
-28 43 0 52 17 52 97 l0 73 -35 0 c-25 0 -37 -6 -46 -21z m55 -35 c7 -19 -12
-47 -25 -38 -5 3 -9 16 -9 30 0 27 24 33 34 8z"/>
<path d="M4842 2620 c-19 -31 -15 -88 7 -100 43 -23 51 -14 51 55 0 61 -1 65
-23 65 -12 0 -28 -9 -35 -20z m48 -70 c0 -5 -4 -10 -10 -10 -5 0 -10 5 -10 10
0 6 5 10 10 10 6 0 10 -4 10 -10z"/>
<path d="M1544 2514 l-21 -22 36 -5 c20 -2 40 0 46 4 5 6 4 9 -3 9 -7 0 -12 6
-12 14 0 23 -24 23 -46 0z"/>
<path d="M1740 2511 c-15 -30 -12 -33 14 -16 13 8 30 13 38 10 8 -3 21 1 28
10 11 13 7 15 -28 15 -31 0 -44 -5 -52 -19z"/>
<path d="M1870 2490 c0 -12 47 -12 75 0 15 6 8 9 -27 9 -27 1 -48 -3 -48 -9z"/>
<path d="M2973 2478 c-25 -13 -43 -29 -43 -39 0 -17 6 -18 165 -39 39 -5 86
-12 105 -15 19 -3 63 -11 98 -17 34 -5 62 -14 62 -18 0 -4 -18 -15 -40 -25
-78 -35 -75 -71 5 -61 40 5 155 -21 155 -34 0 -4 -15 -13 -32 -21 -30 -12 -47
-26 -48 -39 0 -3 15 -11 33 -18 31 -12 31 -13 12 -28 -11 -8 -26 -19 -34 -23
-22 -13 -6 -27 46 -41 27 -7 67 -19 91 -27 40 -15 45 -14 99 6 32 12 65 29 73
36 13 11 24 12 51 5 64 -19 131 -12 174 17 22 14 42 28 44 29 11 9 -25 34 -50
34 -68 0 -25 36 134 111 62 30 84 54 55 64 -7 2 -36 6 -64 9 -46 6 -56 3 -116
-34 -61 -36 -70 -39 -117 -33 -28 3 -54 10 -57 15 -3 4 16 17 41 28 27 12 45
25 43 33 -5 12 -90 29 -243 48 -44 5 -93 14 -110 20 -16 5 -61 14 -100 19 -68
10 -131 20 -245 41 -111 20 -143 20 -187 -3z"/>
<path d="M1283 2478 c-13 -6 -23 -15 -23 -20 0 -14 37 -9 43 6 4 10 19 12 54
9 36 -3 44 -2 33 6 -19 14 -78 13 -107 -1z"/>
<path d="M1658 2479 c-27 -15 -22 -24 12 -23 37 1 50 12 30 24 -18 12 -21 12
-42 -1z"/>
<path d="M1750 2465 c0 -2 6 -14 13 -29 13 -23 16 -24 33 -11 10 8 30 15 44
15 40 0 9 17 -42 23 -27 2 -48 3 -48 2z"/>
<path d="M1205 2433 l-30 -16 27 -9 c22 -8 33 -5 53 10 21 17 22 21 9 26 -21
8 -25 8 -59 -11z"/>
<path d="M1601 2431 c-10 -7 -10 -10 -1 -16 6 -4 16 -3 22 3 13 13 -4 23 -21
13z"/>
<path d="M1890 2423 c0 -14 34 -16 65 -4 16 7 11 9 -22 12 -30 3 -43 1 -43 -8z"/>
<path d="M85 2395 c-22 -21 -25 -33 -25 -90 l0 -65 136 0 c104 0 135 3 132 13
-3 7 -28 14 -59 17 -49 5 -54 7 -54 30 0 19 12 31 55 55 30 17 56 38 58 48 5
23 -10 21 -70 -9 -44 -22 -53 -24 -62 -12 -14 19 -50 38 -71 38 -9 0 -27 -11
-40 -25z m74 -29 c7 -8 11 -32 9 -53 -2 -31 -7 -39 -26 -41 -35 -5 -55 16 -48
51 11 53 41 72 65 43z"/>
<path d="M1307 2402 c-16 -18 -16 -19 10 -31 15 -7 29 -8 32 -3 3 5 21 13 39
17 25 5 32 3 32 -9 0 -19 36 -40 45 -26 3 5 15 10 26 10 34 0 15 25 -22 28
-19 2 -38 7 -44 12 -5 4 -30 11 -55 15 -38 5 -48 3 -63 -13z"/>
<path d="M1682 2413 c-13 -3 -26 -11 -29 -19 -3 -7 -23 -19 -44 -24 -23 -6
-39 -17 -39 -25 0 -20 29 -19 36 0 5 13 9 13 21 3 13 -10 19 -8 37 15 12 15
27 27 33 27 6 0 16 7 23 15 13 16 10 17 -38 8z"/>
<path d="M1795 2380 c-18 -19 -17 -20 3 -20 26 0 72 20 72 32 0 16 -57 8 -75
-12z"/>
<path d="M1153 2367 c5 -13 0 -20 -16 -26 l-22 -8 23 -7 c13 -5 26 -5 29 -2 3
3 13 1 23 -4 22 -12 106 28 91 43 -7 7 -25 6 -57 -3 -43 -12 -48 -12 -62 6
-13 17 -14 17 -9 1z"/>
<path d="M1010 2360 c-11 -7 -7 -10 18 -10 17 0 32 5 32 10 0 13 -30 13 -50 0z"/>
<path d="M1932 2349 c3 -8 15 -13 27 -11 12 2 28 -1 34 -6 19 -16 94 -25 102
-13 3 7 -3 11 -15 11 -12 0 -29 4 -38 9 -9 5 -39 12 -66 16 -39 6 -48 5 -44
-6z"/>
<path d="M4338 2343 c7 -3 16 -2 19 1 4 3 -2 6 -13 5 -11 0 -14 -3 -6 -6z"/>
<path d="M1321 2331 c-9 -6 -8 -11 3 -20 17 -14 47 -12 47 4 1 13 -35 25 -50
16z"/>
<path d="M1696 2331 c-3 -5 1 -12 10 -15 20 -8 29 -1 19 13 -8 13 -22 14 -29
2z"/>
<path d="M1822 2312 c-23 -9 -41 -21 -39 -27 6 -17 60 -18 72 -2 6 8 19 17 30
19 20 4 20 4 0 15 -15 8 -31 6 -63 -5z"/>
<path d="M4435 2320 c-8 -13 5 -13 25 0 13 8 13 10 -2 10 -9 0 -20 -4 -23 -10z"/>
<path d="M1454 2295 c-4 -8 -12 -15 -20 -15 -8 0 -33 -12 -57 -27 -23 -15 -52
-26 -64 -25 -12 1 -25 -3 -29 -10 -5 -8 7 -9 46 -5 47 6 63 13 116 52 10 7 20
6 34 -3 11 -7 39 -15 63 -18 36 -5 45 -2 66 20 14 14 19 26 13 26 -7 0 -12 -4
-12 -8 0 -5 -14 -9 -30 -10 -17 0 -38 -3 -49 -7 -20 -6 -46 18 -36 35 3 6 -3
10 -15 10 -11 0 -23 -7 -26 -15z"/>
<path d="M1937 2279 c-9 -6 -15 -14 -12 -20 10 -16 32 -10 38 11 6 22 0 24
-26 9z"/>
<path d="M740 2253 c-30 -14 -77 -33 -105 -43 -45 -17 -203 -82 -297 -124 -45
-19 -48 -32 -10 -40 15 -3 77 -15 137 -26 61 -12 126 -25 145 -30 19 -6 116
-25 215 -45 99 -19 335 -66 525 -105 190 -39 399 -81 465 -95 66 -13 241 -49
389 -80 148 -30 278 -55 290 -55 11 0 30 7 41 16 17 13 18 16 5 24 -8 5 -25
10 -37 10 -35 0 -28 28 12 47 45 22 44 31 -5 39 -50 8 -51 25 -4 48 39 18 37
32 -5 38 -40 5 -35 24 14 52 25 15 43 31 40 37 -4 5 -26 9 -51 9 -62 0 -134
19 -134 36 0 7 14 20 30 29 40 21 38 33 -7 41 -21 3 -60 12 -88 19 -27 8 -86
21 -130 30 l-81 17 -59 -32 c-65 -35 -59 -35 -231 0 -109 22 -112 22 -150 4
-21 -10 -51 -26 -65 -37 -25 -18 -27 -18 -90 2 -35 10 -90 25 -123 32 -58 13
-59 13 -122 -21 -61 -34 -64 -34 -111 -22 -67 18 -72 27 -29 53 21 12 34 25
29 29 -14 12 -90 30 -104 25 -17 -6 -90 19 -91 31 0 5 19 19 43 32 24 12 45
26 47 30 4 12 -117 36 -167 35 -25 -1 -52 2 -60 7 -10 5 -36 -1 -71 -17z"/>
<path d="M1659 2244 c-19 -10 -20 -12 -4 -17 43 -17 123 -1 102 20 -11 10 -78
8 -98 -3z"/>
<path d="M3770 1615 l0 -85 50 0 c37 0 50 4 50 14 0 10 -13 16 -37 18 -30 2
-38 7 -38 23 0 15 8 21 33 23 19 2 32 9 32 17 0 8 -13 15 -32 17 -41 4 -39 21
3 28 55 9 48 30 -10 30 l-51 0 0 -85z"/>
<path d="M4194 1687 c-3 -8 -4 -45 -2 -83 3 -74 20 -90 28 -28 7 54 28 55 32
2 4 -54 22 -56 26 -4 5 61 -4 86 -33 86 -15 0 -25 6 -25 14 0 21 -19 30 -26
13z"/>
<path d="M4123 1671 c-18 -28 -2 -141 20 -141 11 0 14 66 8 148 -1 18 -14 15
-28 -7z"/>
<path d="M3921 1646 c-7 -8 -11 -35 -9 -63 3 -47 4 -48 37 -51 18 -2 37 0 42
5 4 4 5 33 1 63 -6 50 -10 55 -33 58 -14 2 -31 -4 -38 -12z"/>
<path d="M4034 1646 c-9 -22 0 -111 11 -111 6 0 11 17 13 37 2 20 10 42 18 48
8 7 14 19 14 26 0 18 -49 18 -56 0z"/>
<path d="M3497 1623 c-4 -3 -7 -115 -7 -248 0 -179 3 -244 12 -253 17 -17 -9
-35 -37 -26 -11 4 -38 7 -59 8 -31 1 -41 6 -47 24 -5 14 -5 31 1 42 14 27 12
70 -3 70 -16 0 -77 -61 -77 -78 0 -21 -37 -33 -65 -20 -20 9 -28 9 -38 -1 -19
-19 29 -54 64 -47 32 6 89 -19 89 -39 0 -21 -17 -27 -32 -12 -15 15 -115 33
-160 29 -31 -2 -34 5 -17 42 15 33 3 48 -53 66 -24 7 -52 22 -64 32 -11 10
-28 18 -37 18 -26 0 -48 42 -41 77 5 25 2 33 -15 42 -12 7 -21 22 -21 35 0 21
-5 24 -62 29 -35 3 -67 1 -72 -4 -6 -5 6 -9 32 -9 36 0 44 -4 52 -26 6 -14 8
-30 4 -35 -11 -18 -51 -9 -75 17 -23 25 -99 70 -99 59 0 -3 -14 2 -31 11 -21
10 -40 13 -58 8 -14 -4 -31 -8 -37 -9 -6 -2 -20 -6 -31 -9 -12 -4 -30 1 -46
14 -19 15 -40 20 -94 20 -44 1 -75 6 -87 15 -11 8 -26 15 -34 15 -8 0 18 -31
57 -70 39 -38 74 -70 79 -70 5 0 22 -15 39 -32 55 -60 93 -89 106 -81 27 18
85 33 125 33 29 0 50 7 64 20 27 25 48 26 48 2 0 -20 -83 -62 -123 -62 -14 0
-38 -5 -53 -10 l-28 -11 40 -31 c21 -18 55 -49 75 -70 20 -21 41 -38 48 -38
15 0 130 -122 158 -167 35 -58 46 -60 121 -26 20 10 47 14 72 10 28 -3 40 -1
40 7 0 13 -41 56 -54 56 -11 0 -39 30 -33 36 3 3 24 -4 48 -15 23 -12 46 -21
50 -21 5 0 20 -12 34 -26 18 -18 30 -23 38 -16 7 5 23 13 37 17 13 4 30 14 38
22 8 8 23 11 34 7 12 -3 27 1 38 11 10 9 31 15 47 14 47 -4 63 0 63 15 0 8 -7
16 -15 20 -8 3 -15 12 -15 21 0 18 2 18 35 3 27 -12 32 -24 13 -30 -18 -6 0
-26 42 -48 47 -24 60 -25 60 -5 0 9 -16 25 -35 36 -35 21 -43 37 -26 55 5 5
11 40 14 79 5 49 11 74 24 85 16 14 18 33 15 223 l-3 207 -33 0 c-18 0 -36 -3
-39 -7z m-892 -243 c0 -16 -54 -38 -93 -39 -27 -1 -39 23 -22 45 18 21 115 16
115 -6z m183 -220 c3 -43 -18 -93 -33 -79 -8 9 -16 110 -9 121 3 5 13 8 22 6
12 -2 18 -16 20 -48z m-63 5 c0 -24 -24 -30 -49 -12 -25 18 -12 39 22 35 19
-2 27 -9 27 -23z m364 -99 c9 -11 9 -16 0 -21 -10 -7 -28 10 -29 28 0 12 17 8
29 -7z m84 -49 c22 -17 28 -29 25 -52 -3 -28 -4 -29 -18 -12 -8 10 -27 30 -42
44 -16 15 -28 30 -28 35 0 16 35 8 63 -15z"/>
<path d="M1420 1507 c-14 -6 -36 -22 -50 -34 -14 -13 -31 -23 -39 -23 -19 0
-98 -83 -93 -98 2 -8 -5 -16 -17 -19 -28 -7 -27 -17 4 -41 17 -14 23 -25 18
-38 -5 -14 -2 -16 17 -11 16 4 31 0 42 -10 15 -13 23 -14 43 -5 16 8 32 9 43
3 9 -5 25 -12 35 -15 24 -8 17 -30 -11 -34 -27 -4 -28 -17 -4 -31 16 -10 15
-10 -3 -11 -11 0 -26 9 -33 20 -13 21 -47 27 -57 10 -10 -17 -23 -11 -29 13
-5 21 -20 30 -95 55 -29 10 -38 9 -51 -3 -32 -29 -68 -9 -54 29 7 18 31 28 39
16 6 -10 45 -8 63 4 27 17 11 28 -33 23 l-46 -5 5 34 c6 36 5 38 -39 48 -30 6
-30 6 -7 -10 30 -22 28 -47 -7 -61 -36 -13 -54 -3 -55 34 -1 25 -5 28 -39 31
-30 3 -44 -2 -65 -23 -26 -26 -57 -49 -129 -96 -38 -24 -43 -48 -12 -56 12 -4
18 -11 15 -20 -3 -8 -6 -17 -6 -19 0 -2 -11 -4 -24 -4 -16 0 -27 7 -31 20 -9
29 -26 25 -65 -15 -19 -19 -52 -47 -74 -62 -23 -15 -63 -47 -91 -70 -56 -49
-70 -52 -86 -22 -13 26 -21 18 -39 -40 -11 -34 -28 -54 -83 -98 -37 -30 -66
-60 -64 -66 2 -7 44 -17 93 -24 231 -30 420 -61 519 -85 22 -5 67 -11 100 -14
33 -2 67 -7 75 -10 16 -6 131 -26 290 -49 155 -23 174 -26 195 -35 11 -4 58
-13 105 -19 46 -6 89 -16 94 -21 6 -6 39 -10 74 -10 35 0 71 -4 81 -9 10 -6
40 -12 67 -15 42 -5 208 -33 299 -51 186 -38 216 -42 300 -49 28 -2 57 -5 65
-7 12 -3 14 5 13 34 -3 40 -38 97 -61 97 -12 0 -14 13 -8 78 6 71 4 82 -17
113 -25 37 -39 47 -187 133 -95 55 -105 58 -177 62 -41 2 -84 -1 -94 -6 -14
-8 -21 -6 -30 12 l-12 22 -18 -23 c-29 -35 -58 -24 -78 29 -20 55 -44 63 -60
19 -6 -18 -11 -42 -11 -54 0 -21 -22 -34 -57 -35 -16 0 -41 50 -36 72 3 9 0
25 -6 36 -20 37 -3 60 54 73 48 11 57 10 98 -10 109 -53 261 -20 218 48 -7 11
-14 9 -38 -8 -25 -19 -34 -20 -58 -11 -39 15 -47 29 -30 54 12 17 12 21 -1 30
-17 13 -9 46 11 46 7 0 18 -7 25 -15 10 -12 10 -18 0 -31 -11 -13 -10 -18 7
-36 17 -16 24 -18 42 -9 11 7 21 16 21 22 0 22 -42 88 -95 149 -65 74 -129
112 -219 130 -108 21 -191 43 -206 55 -8 7 -32 16 -53 19 -21 4 -44 9 -50 11
-7 2 -23 -2 -37 -8z m156 -72 c22 -24 22 -25 4 -35 -15 -8 -25 -6 -45 12 -14
12 -25 28 -25 35 0 22 41 15 66 -12z m124 -23 c0 -4 14 -13 31 -19 22 -9 30
-17 25 -28 -3 -10 1 -18 12 -22 9 -4 27 -17 39 -29 12 -12 32 -25 43 -29 36
-11 21 -21 -32 -20 -45 0 -53 -3 -52 -17 1 -10 -2 -18 -7 -18 -5 0 -9 6 -9 14
0 18 -30 30 -43 17 -7 -7 -4 -17 8 -31 14 -15 16 -23 7 -32 -17 -17 -44 -2
-37 22 5 17 2 20 -23 20 -20 0 -32 7 -40 23 -10 21 -11 20 -11 -10 -1 -20 6
-37 17 -45 23 -17 36 -38 23 -38 -5 0 -22 16 -37 35 -24 32 -26 40 -16 70 l10
35 -33 0 c-37 0 -48 10 -39 34 9 24 65 21 71 -4 8 -29 26 -25 21 5 -3 15 -1
25 6 25 16 0 37 -37 30 -54 -3 -8 3 -19 15 -25 27 -15 28 -14 46 13 15 23 15
25 -10 50 -14 14 -32 26 -39 26 -20 0 -27 12 -15 27 12 14 39 18 39 5z m-186
-27 c20 -15 20 -15 0 -30 -29 -23 -58 -15 -62 18 -3 23 0 27 20 27 13 0 32 -7
42 -15z m374 -31 c26 -18 29 -44 6 -44 -23 0 -74 32 -74 47 0 18 41 16 68 -3z
m-558 -58 c-17 -21 -56 -20 -65 1 -4 12 1 24 16 36 22 17 23 17 42 -2 17 -17
18 -22 7 -35z m622 -13 c29 -26 22 -43 -17 -43 -37 0 -43 -8 -23 -28 7 -7 8
-12 2 -12 -6 0 -19 9 -28 19 -17 19 -17 21 5 50 26 35 35 38 61 14z m-1039 -7
c3 -8 21 -16 39 -18 25 -2 34 -8 36 -25 4 -25 -28 -43 -77 -43 -50 0 -64 33
-33 75 20 28 28 31 35 11z m-85 -45 c-1 -18 4 -37 15 -49 14 -15 15 -21 4 -30
-24 -20 -57 24 -57 77 0 25 4 31 21 31 17 0 20 -5 17 -29z m668 -7 c16 -4 27
-21 39 -61 10 -30 25 -57 34 -60 27 -10 51 -35 51 -55 0 -24 -32 -23 -55 2
-12 13 -31 20 -57 20 -43 0 -44 1 -22 36 15 23 15 26 0 43 -9 9 -16 25 -16 34
0 9 -5 19 -10 22 -6 4 -8 11 -5 16 7 10 12 11 41 3z m-311 -24 c3 -5 15 -10
26 -10 25 0 25 -36 0 -50 -11 -5 -33 -10 -50 -10 -29 0 -31 2 -31 40 0 36 3
40 24 40 14 0 28 -4 31 -10z m-125 -25 c10 -12 9 -16 -5 -21 -19 -8 -40 9 -31
25 10 15 21 14 36 -4z m-99 -8 c-1 -12 -15 -9 -19 4 -3 6 1 10 8 8 6 -3 11 -8
11 -12z m812 -3 c29 -10 16 -39 -19 -42 -22 -2 -33 2 -38 14 -7 19 12 47 28
39 6 -3 19 -8 29 -11z m100 -6 c34 -16 35 -36 1 -44 -29 -7 -47 6 -49 36 -2
23 10 25 48 8z m74 -14 c-3 -4 -14 -3 -24 0 -15 6 -15 8 -3 16 16 10 39 -4 27
-16z m-677 6 c0 -5 -2 -10 -4 -10 -3 0 -8 5 -11 10 -3 6 -1 10 4 10 6 0 11 -4
11 -10z m-10 -46 c11 -12 10 -18 -3 -31 -21 -21 -47 -9 -47 22 0 29 29 35 50
9z m690 -24 c0 -13 -7 -20 -20 -20 -13 0 -20 7 -20 20 0 13 7 20 20 20 13 0
20 -7 20 -20z m-595 -2 c36 -16 31 -52 -8 -56 -35 -4 -57 13 -57 44 0 27 23
31 65 12z m263 -122 c2 -9 -4 -28 -12 -41 -13 -20 -25 -25 -56 -25 -21 0 -41
4 -44 9 -9 14 79 83 99 77 6 -1 11 -10 13 -20z m-268 -31 c17 -21 5 -49 -18
-39 -9 4 -44 8 -77 8 -64 1 -85 9 -85 32 0 21 162 20 180 -1z"/>
<path d="M2137 1474 c-6 -6 49 -117 82 -162 11 -16 36 -37 54 -45 18 -9 42
-26 53 -38 10 -12 29 -25 42 -30 18 -7 22 -14 17 -29 -4 -13 -1 -22 9 -26 8
-3 22 -28 31 -55 13 -37 26 -56 53 -73 41 -26 50 -37 135 -145 31 -40 57 -79
57 -85 0 -17 80 -66 107 -66 38 0 88 -25 129 -65 66 -62 229 -162 244 -149 2
3 -8 16 -23 30 -15 14 -27 29 -27 33 0 5 -12 13 -27 19 -67 24 -214 172 -363
365 -43 57 -89 102 -140 138 -41 30 -83 62 -92 72 -10 9 -23 17 -29 17 -28 0
-239 243 -239 275 0 20 -57 35 -73 19z"/>
<path d="M1148 1383 c7 -3 16 -2 19 1 4 3 -2 6 -13 5 -11 0 -14 -3 -6 -6z"/>
<path d="M4170 1311 l-25 -6 -1 -150 0 -150 -29 -3 c-16 -2 -31 2 -36 10 -5 8
-26 13 -54 12 l-45 -1 21 20 c13 12 19 27 15 40 -3 12 0 27 6 34 26 32 -19 58
-51 29 -9 -8 -40 -18 -69 -22 -59 -7 -55 -14 -52 89 1 44 -2 58 -15 63 -9 4
-18 4 -22 1 -8 -8 -8 -206 0 -214 4 -3 32 0 63 7 55 13 57 13 75 -9 24 -29 24
-37 -1 -44 -17 -4 -20 -14 -20 -60 0 -105 -31 -139 -109 -122 -17 3 -32 2 -36
-4 -8 -14 -48 -14 -80 1 -29 13 -33 28 -6 28 25 0 43 23 39 52 -2 12 0 24 5
26 23 7 35 -1 41 -28 4 -21 11 -30 26 -30 23 0 28 31 7 52 -7 7 -16 21 -20 30
-5 14 -11 16 -32 8 -19 -7 -25 -6 -25 5 0 18 18 29 50 29 18 1 25 6 25 21 0
16 -7 20 -37 20 -44 0 -53 7 -39 32 5 11 12 63 14 117 l4 97 -31 -3 c-30 -3
-31 -5 -34 -58 -1 -30 -3 -64 -3 -75 0 -20 0 -20 -15 -1 -22 31 -34 8 -40 -75
-4 -43 -12 -81 -20 -90 -21 -24 -7 -49 27 -49 34 0 39 -24 9 -40 -23 -12 -25
-37 -8 -74 9 -22 8 -29 -6 -45 -10 -11 -28 -21 -40 -23 -14 -2 -22 -11 -24
-30 -4 -31 -16 -36 -92 -39 -55 -1 -150 31 -150 51 0 6 -18 13 -40 16 -41 7
-53 27 -29 51 7 7 8 19 4 30 -5 10 -7 24 -6 31 3 21 -36 13 -51 -10 -14 -21
-18 -22 -40 -9 -29 15 -80 8 -98 -14 -9 -10 -6 -15 12 -20 13 -4 39 -24 59
-44 19 -20 47 -44 62 -54 17 -11 27 -27 27 -42 0 -22 -3 -24 -32 -18 -18 3
-46 21 -64 38 -18 18 -52 46 -76 62 -23 17 -42 35 -41 41 2 7 -8 12 -22 12
-32 0 -33 -23 -2 -53 33 -31 116 -89 157 -108 19 -9 49 -27 65 -41 17 -14 58
-40 93 -59 56 -30 61 -35 46 -46 -10 -7 -26 -13 -35 -13 -51 0 -141 -97 -132
-143 5 -25 -30 -104 -52 -119 -5 -3 -32 -19 -59 -35 -28 -15 -65 -43 -84 -60
-19 -18 -39 -33 -46 -33 -27 0 -66 27 -77 52 -8 20 -23 31 -50 38 -40 11 -62
36 -73 81 -7 33 -42 77 -77 98 -26 16 -37 16 -111 5 -233 -34 -286 -38 -375
-25 -49 7 -113 21 -144 32 -31 10 -62 19 -69 19 -7 0 -21 6 -29 14 -9 7 -38
18 -66 24 -27 6 -90 25 -140 42 -90 32 -320 84 -418 95 -47 5 -394 18 -442 16
-187 -6 -389 27 -460 75 -11 8 -25 14 -32 14 -12 0 -81 28 -123 49 -8 5 -20
18 -26 30 l-11 22 -7 -23 c-3 -13 -6 -53 -6 -89 l0 -66 73 -13 c39 -7 113 -23
164 -36 50 -13 142 -33 205 -44 186 -33 347 -81 512 -153 51 -23 75 -24 301
-18 58 1 107 -5 178 -24 54 -13 102 -27 105 -29 21 -13 291 -47 437 -56 179
-10 232 -21 358 -79 60 -27 140 -56 222 -80 22 -6 81 -10 131 -9 82 3 94 6
139 36 27 17 54 32 62 32 7 0 13 4 13 10 0 13 29 27 68 33 19 3 42 13 51 22
11 9 25 13 35 9 10 -4 22 0 29 10 8 10 38 19 87 25 161 21 152 17 253 113 l68
65 79 7 c77 7 81 9 156 66 52 40 100 67 153 85 88 31 163 81 182 122 7 15 34
47 60 71 46 42 49 43 124 46 103 4 107 8 108 136 l2 101 -34 26 c-24 18 -35
22 -41 14 -11 -19 -109 -3 -123 20 -15 23 -43 25 -55 2 -9 -15 -12 -14 -38 6
-27 21 -29 29 -34 109 -5 94 -9 99 -70 83z m-480 -220 c0 -6 -4 -13 -10 -16
-5 -3 -10 1 -10 9 0 9 5 16 10 16 6 0 10 -4 10 -9z m8 -70 c3 -8 -1 -12 -9 -9
-7 2 -15 10 -17 17 -3 8 1 12 9 9 7 -2 15 -10 17 -17z m762 -10 c0 -4 -19 -11
-42 -17 -24 -6 -52 -15 -63 -19 -23 -10 28 35 60 53 19 10 45 0 45 -17z m-375
-41 c3 -5 -1 -10 -9 -10 -9 0 -16 5 -16 10 0 6 4 10 9 10 6 0 13 -4 16 -10z
m223 -22 c-6 -18 -28 -21 -28 -4 0 9 7 16 16 16 9 0 14 -5 12 -12z m-291 -14
c12 -3 25 -14 28 -23 6 -20 74 -22 98 -3 10 9 22 10 40 3 21 -8 28 -6 40 12
12 17 18 19 28 10 10 -10 7 -14 -12 -22 -14 -5 -31 -16 -38 -25 -7 -9 -24 -16
-38 -16 -25 0 -76 -22 -103 -45 -14 -12 -80 -26 -80 -17 0 2 11 13 26 24 34
27 29 62 -8 66 -20 2 -28 9 -28 23 0 20 10 23 47 13z m203 -114 c0 -18 -49
-35 -62 -22 -9 9 -7 12 9 12 12 0 25 5 28 10 8 13 25 13 25 0z m-261 -29 c11
-7 7 -13 -17 -25 -17 -9 -40 -16 -50 -16 -11 0 -25 -7 -32 -15 -13 -16 -40
-20 -40 -7 0 14 32 39 70 55 42 18 51 19 69 8z m311 4 c0 -2 -9 -9 -20 -15
-16 -9 -20 -8 -20 5 0 8 9 15 20 15 11 0 20 -2 20 -5z m-120 -9 c0 -11 -19
-15 -25 -6 -3 5 1 10 9 10 9 0 16 -2 16 -4z m54 -41 c-29 -22 -40 -18 -14 5
13 11 26 18 28 15 3 -3 -3 -12 -14 -20z m-156 -36 c5 -12 82 -11 82 1 0 6 8
10 17 10 30 0 -24 -44 -97 -80 -36 -17 -72 -36 -82 -40 -11 -6 -20 -4 -28 5
-16 19 -2 38 22 32 12 -4 28 2 40 13 11 10 28 16 39 13 26 -7 24 12 -3 31 -19
14 -25 14 -44 1 -17 -11 -24 -12 -27 -2 -10 28 71 44 81 16z m-318 -18 c0 -12
-23 -31 -39 -31 -8 0 -23 -8 -33 -17 -14 -12 -21 -14 -30 -5 -15 15 16 52 43
52 10 0 20 4 24 10 6 10 35 3 35 -9z m220 5 c0 -2 -3 -11 -6 -20 -9 -23 -24
-20 -24 4 0 11 7 20 15 20 8 0 15 -2 15 -4z m-57 -53 c4 -2 7 -10 6 -16 0 -9
-2 -9 -6 1 -7 17 -43 15 -43 -3 0 -15 -14 -24 -44 -29 -8 -1 -19 -5 -22 -9 -4
-4 -18 -7 -31 -7 -31 0 -30 28 1 36 14 3 32 14 42 25 14 15 25 18 53 13 20 -4
39 -9 44 -11z m-518 -3 c3 -5 14 -10 24 -10 14 0 16 -7 13 -35 -3 -21 0 -35 7
-35 6 0 11 -9 11 -21 0 -12 -5 -19 -12 -16 -7 2 -12 11 -10 19 1 8 -11 27 -28
43 -16 16 -30 37 -30 47 0 19 15 24 25 8z m215 -27 c0 -20 -3 -24 -11 -16 -7
7 -9 19 -6 27 10 24 17 19 17 -11z m108 -13 c10 -17 10 -20 -6 -20 -19 0 -42
18 -42 32 0 16 36 7 48 -12z m-181 -1 c28 -11 28 -11 6 -20 -13 -4 -23 -15
-23 -24 0 -12 -4 -14 -19 -6 -21 12 -34 38 -25 52 7 12 27 11 61 -2z m380 -25
c-3 -3 -12 -4 -19 -1 -8 3 -5 6 6 6 11 1 17 -2 13 -5z m-62 -14 c3 -5 -3 -10
-15 -10 -12 0 -18 5 -15 10 3 6 10 10 15 10 5 0 12 -4 15 -10z m-218 -17 c21
3 50 9 66 12 20 5 27 4 27 -7 0 -9 -14 -14 -42 -16 -24 -1 -50 -3 -58 -4 -32
-3 -104 5 -82 9 12 2 22 9 22 15 0 6 6 6 15 -2 9 -7 30 -10 52 -7z m158 7 c-3
-5 -15 -10 -26 -10 -10 0 -19 5 -19 10 0 6 12 10 26 10 14 0 23 -4 19 -10z"/>
<path d="M4516 792 c-2 -4 -1 -14 4 -21 10 -17 31 -5 23 14 -6 16 -19 20 -27
7z"/>
<path d="M3022 668 c6 -16 36 -34 44 -25 9 9 -15 37 -33 37 -8 0 -13 -5 -11
-12z"/>
<path d="M4252 594 c-12 -8 -22 -22 -22 -31 0 -13 8 -14 43 -9 51 8 65 20 47
41 -16 19 -40 19 -68 -1z"/>
<path d="M4163 560 c-3 -11 -13 -20 -22 -20 -20 0 -41 -19 -41 -37 0 -15 21
-7 72 27 42 28 49 50 17 50 -12 0 -23 -8 -26 -20z"/>
<path d="M238 519 c-42 -24 -6 -69 42 -54 23 7 44 41 35 55 -8 13 -55 12 -77
-1z"/>
<path d="M570 422 c0 -27 24 -44 57 -40 22 2 28 8 28 28 0 22 -5 25 -42 28
-37 3 -43 0 -43 -16z"/>
<path d="M423 408 c-30 -14 -29 -22 2 -36 34 -16 50 -15 65 3 10 12 10 18 0
30 -14 17 -36 18 -67 3z"/>
<path d="M3692 388 c-16 -16 -15 -23 4 -42 23 -23 74 -21 74 3 0 33 -56 61
-78 39z"/>
<path d="M677 373 c-32 -16 -34 -29 -6 -43 32 -18 69 -4 69 24 0 30 -28 38
-63 19z"/>
<path d="M3827 343 c-12 -11 -7 -33 7 -33 7 0 19 6 25 14 9 11 8 15 -5 20 -19
7 -19 7 -27 -1z"/>
<path d="M874 315 c-16 -13 -17 -16 -4 -25 17 -11 63 -13 73 -4 11 11 -13 44
-31 44 -10 0 -27 -7 -38 -15z"/>
<path d="M1243 283 c-7 -2 -13 -13 -13 -23 0 -21 37 -36 111 -46 48 -6 49 -6
49 21 0 24 -3 27 -25 23 -14 -3 -28 -1 -31 3 -3 5 -16 9 -29 9 -13 0 -27 5
-30 10 -7 11 -13 11 -32 3z"/>
<path d="M1473 258 c-18 -23 -22 -45 -10 -57 26 -26 66 2 67 47 0 17 -6 22
-24 22 -13 0 -28 -6 -33 -12z"/>
<path d="M1168 253 c7 -3 16 -2 19 1 4 3 -2 6 -13 5 -11 0 -14 -3 -6 -6z"/>
<path d="M3412 204 c-25 -17 -29 -52 -8 -60 17 -7 86 21 86 35 0 9 -38 41 -50
41 -3 0 -16 -7 -28 -16z"/>
<path d="M1626 195 c-8 -21 21 -45 55 -45 35 0 37 9 6 38 -27 25 -52 28 -61 7z"/>
<path d="M2054 176 c-10 -27 15 -57 44 -54 50 6 36 68 -15 68 -13 0 -26 -6
-29 -14z"/>
<path d="M1830 161 c0 -15 6 -21 21 -21 14 0 19 5 17 17 -5 26 -38 29 -38 4z"/>
<path d="M3173 125 c-8 -23 26 -55 58 -55 41 0 47 20 13 47 -33 26 -62 30 -71
8z"/>
<path d="M3360 120 c-13 -8 -13 -10 2 -10 9 0 20 5 23 10 8 13 -5 13 -25 0z"/>
<path d="M2291 61 c-12 -8 -12 -12 -2 -25 17 -20 41 -20 67 -1 16 13 17 16 4
25 -19 12 -50 13 -69 1z"/>
</g>
</svg>
