<?xml version="1.0" standalone="no"?>
<!DOCTYPE svg PUBLIC "-//W3C//DTD SVG 20010904//EN"
 "http://www.w3.org/TR/2001/REC-SVG-20010904/DTD/svg10.dtd">
<svg version="1.0" xmlns="http://www.w3.org/2000/svg"
 width="942.000000pt" height="774.000000pt" viewBox="0 0 942.000000 774.000000"
 preserveAspectRatio="xMidYMid meet">

<g transform="translate(0.000000,774.000000) scale(0.100000,-0.100000)"
fill="#000000" stroke="none">
<path d="M3653 7325 c-71 -36 -115 -98 -127 -180 -3 -22 -10 -65 -16 -95 -5
-30 -14 -82 -19 -115 -10 -63 -69 -409 -121 -710 -17 -99 -31 -197 -32 -217
-1 -55 31 -108 82 -135 l43 -23 1211 0 1211 0 40 23 c27 15 47 37 63 69 l23
46 -36 214 c-20 117 -40 238 -45 268 -5 30 -14 82 -20 115 -5 33 -14 87 -20
120 -5 33 -18 114 -30 180 -21 121 -36 208 -47 279 -10 61 -60 127 -122 159
-53 26 -60 27 -218 27 -138 0 -165 -2 -170 -15 -3 -9 -3 -18 0 -22 4 -3 73 -8
154 -12 l148 -6 -28 -19 c-23 -16 -33 -17 -47 -8 -10 6 -51 12 -92 13 -70 1
-77 -1 -193 -58 -205 -100 -182 -94 -242 -65 l-52 26 -91 -43 c-123 -59 -170
-56 -323 18 -59 29 -104 57 -101 62 3 5 41 27 85 49 l79 40 280 0 c273 0 280
0 280 20 0 20 -7 20 -728 20 l-728 0 -51 -25z m845 -24 c10 -6 8 -11 -10 -22
-45 -29 -566 -289 -578 -289 -9 0 -11 11 -6 38 4 20 10 56 13 79 l5 41 -125
62 c-126 61 -147 83 -94 93 42 8 782 7 795 -2z m1202 -37 c59 -50 54 -33 155
-639 19 -115 39 -232 44 -260 70 -385 70 -393 25 -436 l-26 -24 -1016 -3
c-558 -1 -1019 1 -1023 5 -5 5 39 32 96 62 l105 53 56 -26 55 -26 95 45 c52
25 102 45 110 45 8 0 59 -22 114 -50 55 -27 106 -50 113 -50 10 0 400 193 415
206 2 1 -1 11 -7 22 -12 22 -19 17 164 111 38 20 71 41 73 48 2 7 -36 32 -90
58 -92 46 -93 46 -131 31 -37 -15 -41 -14 -103 17 -35 17 -64 36 -64 42 0 6
26 24 58 40 31 16 59 30 61 32 2 1 4 12 5 24 1 21 138 95 593 323 86 43 105
68 58 80 -13 3 -43 3 -65 0 -27 -4 -50 -2 -66 6 -50 27 -19 73 82 121 35 17
64 36 64 43 0 7 -13 25 -30 41 -37 35 -37 46 -2 67 38 23 46 22 82 -8z m-192
-15 c46 -21 102 -65 102 -81 0 -4 -25 -19 -56 -33 l-57 -26 -64 30 c-35 17
-68 31 -74 31 -6 0 -81 -35 -167 -78 -140 -70 -160 -77 -180 -66 -53 27 -50
31 119 114 90 44 184 91 208 105 54 31 106 32 169 4z m-1744 -45 c61 -31 117
-62 124 -68 10 -10 10 -27 0 -92 l-13 -78 -70 -36 c-39 -20 -106 -55 -150 -78
-43 -23 -85 -42 -92 -42 -7 0 -13 -4 -13 -10 0 -12 -27 -14 -33 -2 -2 4 6 68
19 142 13 74 28 160 33 191 13 74 44 128 75 129 5 0 59 -25 120 -56z m765 -69
c62 -30 124 -55 137 -55 15 0 24 -6 24 -15 0 -8 -5 -15 -11 -15 -7 0 -63 -26
-125 -57 l-114 -57 -84 43 -84 44 -103 -48 c-57 -27 -115 -56 -129 -65 -14 -9
-41 -23 -60 -31 -66 -27 -160 -79 -160 -89 0 -12 33 -34 81 -54 31 -13 39 -13
63 0 41 20 56 18 56 -10 0 -21 12 -31 70 -62 83 -43 81 -49 -19 -97 l-63 -31
-162 81 c-88 45 -191 95 -228 112 -38 17 -68 35 -68 40 0 6 23 21 52 33 29 12
91 42 138 66 338 175 636 322 654 322 12 0 72 -25 135 -55z m465 -3 c15 -18
15 -19 -11 -31 -80 -36 -87 -58 -28 -81 19 -8 35 -17 35 -22 0 -4 -73 -44
-162 -89 l-162 -81 -88 43 c-73 36 -86 45 -75 56 21 21 430 222 453 222 11 1
28 -7 38 -17z m406 -2 c14 -11 30 -20 36 -20 5 0 19 -6 29 -14 18 -13 18 -14
-2 -42 -13 -18 -19 -40 -17 -54 4 -23 -4 -29 -86 -68 l-91 -43 -100 52 c-61
31 -97 55 -91 61 9 9 283 148 292 148 3 0 16 -9 30 -20z m-1060 -168 c30 -16
55 -35 55 -42 0 -14 -299 -170 -326 -170 -9 0 -22 7 -29 15 -16 19 -28 19 -64
0 -15 -8 -34 -15 -40 -15 -24 0 -66 25 -64 38 3 15 364 200 393 201 11 1 45
-12 75 -27z m789 -33 c75 -37 94 -58 53 -59 -9 -1 -100 -24 -202 -53 l-186
-53 -42 22 -42 22 27 20 c16 11 38 22 49 26 12 4 68 31 125 61 57 29 111 54
120 54 9 1 53 -17 98 -40z m481 35 c0 -7 -223 -114 -238 -114 -18 1 -59 27
-51 34 2 2 39 21 83 43 66 33 88 39 142 40 35 0 64 -1 64 -3z m-1059 -116 c60
-29 109 -56 109 -60 0 -9 -144 -78 -164 -78 -8 0 -31 8 -50 17 l-36 17 -95
-47 c-53 -26 -104 -47 -115 -47 -21 0 -120 50 -120 61 0 3 74 44 165 89 91 46
168 87 171 92 9 14 25 9 135 -44z m768 -4 c12 -9 19 -20 14 -25 -4 -4 -79 -44
-166 -88 l-158 -79 -57 29 c-31 16 -62 29 -68 29 -6 0 -19 9 -28 19 -17 19
-17 20 21 30 114 30 155 42 223 61 41 12 89 25 105 30 49 13 89 11 114 -6z
m-585 -80 c9 -3 16 -11 16 -18 0 -8 -319 -172 -552 -284 -18 -8 -6 21 27 67
24 33 35 59 33 76 -3 23 5 30 76 67 l79 42 42 -23 42 -22 99 50 c103 52 112
55 138 45z m-988 -126 c123 -62 224 -117 224 -123 0 -5 -10 -15 -23 -21 -53
-25 -330 -174 -391 -210 -24 -14 -15 -29 32 -51 20 -9 52 -26 70 -36 l33 -20
-27 -28 c-35 -36 -263 -154 -275 -142 -6 6 -1 55 12 124 11 63 24 143 29 179
5 36 14 92 20 125 6 33 15 85 19 115 24 153 35 200 48 200 3 0 106 -51 229
-112z m1140 52 c47 -22 84 -46 82 -52 -2 -6 -87 -53 -189 -105 l-184 -94 -88
43 c-49 24 -86 48 -85 56 3 12 341 190 365 191 7 1 51 -17 99 -39z m-663 -114
c-3 -6 -21 -30 -40 -53 -18 -23 -33 -44 -33 -47 0 -3 -21 -35 -47 -71 -27 -37
-53 -76 -59 -87 -7 -11 -16 -24 -21 -29 -10 -10 -194 79 -200 98 -2 6 20 23
49 38 29 14 78 40 108 56 191 105 266 135 243 95z m694 -12 c-3 -3 -12 -4 -19
-1 -8 3 -5 6 6 6 11 1 17 -2 13 -5z m-34 -21 c-7 -2 -19 -2 -25 0 -7 3 -2 5
12 5 14 0 19 -2 13 -5z m-50 -20 c-42 -8 -26 -37 40 -70 35 -18 69 -33 76 -33
7 0 11 -7 9 -16 -2 -10 -50 -41 -111 -72 -84 -43 -111 -52 -117 -42 -6 10 -7
157 -1 192 2 11 84 46 106 46 17 -1 16 -1 -2 -5z m-364 -51 c45 -24 81 -45 79
-48 -13 -12 -400 -204 -412 -204 -8 0 -31 10 -51 21 -42 25 -41 29 18 108 37
50 56 64 152 113 61 31 115 55 120 54 6 0 48 -21 94 -44z m229 -109 c2 -64 -1
-93 -10 -101 -7 -5 -81 -45 -164 -87 l-152 -76 -91 45 c-50 26 -91 50 -91 55
0 4 94 56 209 115 116 58 225 114 243 125 18 11 38 18 43 17 6 -1 11 -43 13
-93z m434 25 c38 -18 68 -36 68 -40 0 -4 -18 -17 -40 -28 -22 -11 -58 -29 -80
-40 -21 -11 -46 -20 -54 -20 -15 0 -102 44 -120 60 -5 5 16 21 45 35 30 15 62
36 72 46 24 25 30 24 109 -13z m-1245 -74 c62 -31 113 -59 113 -61 0 -7 -200
-262 -224 -286 -16 -17 -20 -18 -34 -4 -14 14 -12 19 16 52 18 20 32 38 32 40
0 3 -22 16 -50 30 -51 26 -66 57 -35 69 33 12 14 41 -47 71 -34 17 -63 35 -65
41 -3 10 151 104 172 104 5 0 60 -25 122 -56z m1027 -40 c31 -14 56 -32 56
-40 0 -8 -5 -14 -11 -14 -6 0 -9 -12 -7 -27 3 -24 -4 -30 -82 -69 -46 -23 -88
-40 -92 -38 -4 3 -8 14 -8 25 0 11 -4 28 -9 37 -5 9 -12 38 -16 65 -6 42 -5
47 11 47 11 1 35 9 54 20 44 24 38 25 104 -6z m-732 -106 c81 -40 148 -78 148
-85 0 -13 -136 -83 -162 -83 -10 0 -33 9 -53 20 -20 11 -44 20 -54 20 -10 0
-67 -25 -126 -55 -59 -30 -113 -55 -121 -55 -18 0 -18 25 0 47 55 67 146 184
166 213 23 33 39 49 50 50 3 0 71 -33 152 -72z m538 16 c0 -18 -19 -30 -131
-85 -88 -44 -107 -50 -133 -42 -59 17 -42 35 101 106 126 62 139 66 150 50 7
-9 13 -22 13 -29z m18 -56 c7 -7 12 -27 12 -45 0 -30 -4 -34 -77 -69 l-76 -36
-36 20 c-20 12 -37 25 -39 31 -3 8 178 109 199 110 3 1 10 -4 17 -11z m-1033
-50 c24 -13 45 -27 45 -33 0 -5 -14 -23 -31 -41 -36 -37 -34 -45 17 -69 61
-29 28 -37 -141 -33 -152 3 -157 4 -176 27 -11 13 -18 29 -16 35 3 10 234 135
250 136 4 0 27 -10 52 -22z"/>
<path d="M5380 6271 c0 -15 22 -16 201 -13 234 4 220 22 -16 22 -107 0 -185
-4 -185 -9z"/>
<path d="M5397 6203 c-9 -2 -15 -9 -12 -14 8 -12 362 -12 369 0 3 5 -1 12 -10
15 -18 7 -320 6 -347 -1z"/>
<path d="M5407 6134 c-20 -20 8 -24 174 -24 140 0 180 3 177 13 -4 9 -49 13
-174 15 -94 1 -173 -1 -177 -4z"/>
<path d="M5405 6050 c4 -6 77 -10 185 -10 108 0 181 4 185 10 4 7 -60 10 -185
10 -125 0 -189 -3 -185 -10z"/>
<path d="M5217 7344 c-16 -16 -6 -34 19 -34 19 0 25 5 22 17 -3 19 -29 29 -41
17z"/>
<path d="M729 6730 c-41 -22 -96 -80 -111 -119 -5 -14 -14 -53 -19 -86 -15
-91 -26 -158 -49 -290 -12 -66 -25 -145 -30 -175 -5 -30 -14 -82 -20 -115 -6
-33 -15 -87 -20 -120 -5 -33 -14 -85 -19 -115 -5 -30 -14 -84 -20 -120 -6 -36
-15 -89 -21 -119 -17 -92 3 -153 65 -191 32 -20 46 -20 1265 -20 l1233 0 34
26 c41 31 63 72 63 119 0 20 -20 154 -45 298 -24 144 -65 384 -90 532 -59 355
-63 373 -90 415 -26 41 -36 50 -88 79 -34 19 -53 21 -213 21 -162 0 -175 -1
-172 -17 3 -16 17 -18 106 -21 56 -1 102 -7 102 -11 0 -5 31 -9 69 -9 75 1 91
-6 136 -60 21 -25 31 -53 41 -110 7 -42 20 -117 29 -167 9 -49 21 -117 25
-150 5 -33 18 -112 30 -175 11 -63 25 -140 30 -170 5 -30 16 -95 24 -145 8
-49 21 -121 27 -160 6 -38 16 -87 21 -107 9 -39 1 -67 -29 -96 -15 -15 -263
-25 -285 -11 -7 4 -18 3 -25 -3 -17 -14 -46 5 -142 89 -20 18 -39 33 -43 33
-5 0 -8 15 -8 34 0 44 -38 86 -80 86 -16 0 -30 -4 -30 -10 0 -16 -35 -11 -56
8 -20 18 -265 185 -318 215 -47 29 -77 60 -71 75 7 18 -48 72 -73 72 -11 0
-33 -12 -49 -27 -16 -16 -35 -30 -43 -32 -8 -2 -87 -7 -175 -12 -88 -5 -195
-12 -238 -15 -75 -6 -78 -6 -103 21 -18 20 -22 31 -15 38 6 6 11 23 11 38 0
15 5 31 10 34 6 3 10 19 10 35 0 16 4 31 9 34 5 3 11 20 14 38 3 18 10 51 17
73 7 22 14 55 17 73 4 23 12 34 28 38 13 3 31 14 40 23 17 20 7 21 215 -19 80
-16 164 -32 188 -35 28 -5 48 -14 57 -29 24 -36 58 -50 86 -36 23 12 79 69 79
80 0 4 16 4 35 2 30 -4 35 -1 35 17 0 12 -5 21 -12 21 -18 0 0 14 57 44 57 31
78 43 118 70 20 13 39 17 63 13 49 -8 84 8 97 43 12 33 32 35 32 4 0 -16 9
-19 58 -22 52 -3 59 -1 64 17 4 17 13 21 44 21 27 0 42 5 46 16 10 26 -16 34
-115 34 -73 0 -94 -3 -98 -15 -9 -22 -28 -18 -39 8 -7 16 -20 23 -48 25 -45 4
-64 -9 -75 -52 -6 -22 -19 -36 -48 -51 -21 -11 -41 -22 -44 -25 -3 -3 -23 -14
-45 -24 -22 -11 -54 -30 -72 -43 -17 -13 -39 -23 -47 -23 -9 0 -16 -3 -16 -7
0 -15 -53 -34 -64 -23 -15 15 -45 12 -72 -9 -20 -16 -31 -17 -71 -9 -26 5 -79
15 -118 23 -38 7 -106 20 -150 29 -44 9 -89 16 -100 16 -11 0 -29 12 -41 27
-18 23 -30 28 -78 29 l-56 2 0 -53 c0 -35 5 -57 15 -65 16 -13 12 -75 -6 -94
-5 -6 -9 -20 -9 -31 0 -12 -8 -48 -19 -81 -10 -32 -24 -85 -31 -116 -10 -43
-20 -62 -39 -75 -40 -26 -52 -45 -47 -79 4 -26 0 -34 -20 -43 -13 -6 -24 -19
-24 -29 0 -15 -5 -18 -25 -14 -18 3 -25 0 -25 -12 0 -9 -11 -22 -25 -28 -14
-6 -25 -17 -25 -24 0 -6 -11 -15 -24 -18 -14 -3 -28 -15 -31 -26 -3 -11 -13
-20 -20 -20 -8 0 -20 -8 -27 -18 -7 -11 -23 -24 -35 -31 -13 -6 -23 -19 -23
-27 0 -12 -8 -14 -44 -9 -37 6 -46 4 -65 -16 -26 -28 -28 -80 -3 -102 22 -20
72 -22 93 -4 23 19 38 62 28 78 -14 22 -11 29 11 29 11 0 39 19 63 43 23 24
50 46 60 50 9 3 17 13 17 22 0 8 6 15 14 15 8 0 36 21 62 46 27 25 56 50 67
55 11 7 16 17 13 26 -5 11 -2 13 11 8 40 -17 64 -16 90 1 32 22 193 42 339 43
50 1 116 6 148 12 53 10 60 9 80 -10 16 -15 36 -21 67 -21 37 0 56 -9 114 -50
72 -52 91 -65 160 -109 22 -14 42 -29 45 -32 3 -3 34 -23 69 -44 36 -22 73
-55 86 -75 32 -51 50 -63 83 -55 26 5 36 0 81 -45 39 -37 49 -52 37 -56 -8 -3
-24 -1 -35 5 -11 6 -22 8 -25 3 -2 -4 -445 -7 -983 -7 l-978 0 -28 26 c-27 26
-27 27 -22 130 3 77 10 114 24 143 12 23 17 45 12 53 -7 14 -1 65 38 283 11
63 38 225 61 360 23 135 43 253 46 263 8 27 64 87 93 100 19 9 236 13 756 17
685 5 730 6 733 23 3 16 -37 17 -735 17 -706 -1 -740 -2 -774 -20z m1645 -216
c12 -12 13 -20 5 -35 -13 -24 -47 -22 -63 4 -9 15 -7 21 8 33 25 18 31 18 50
-2z m-1016 -146 c16 -16 15 -23 -4 -42 -12 -12 -20 -13 -35 -6 -10 6 -19 16
-19 23 0 16 20 37 35 37 6 0 16 -5 23 -12z m587 -118 c0 -16 -6 -26 -19 -28
-25 -5 -39 12 -31 38 10 31 50 24 50 -10z m-61 -363 c26 -19 13 -57 -19 -57
-28 0 -43 34 -25 55 15 18 21 19 44 2z m-664 -32 c17 -21 5 -45 -24 -45 -28 0
-37 17 -24 43 11 21 31 22 48 2z m1224 -339 c9 -13 7 -20 -7 -31 -35 -25 -70
10 -40 40 18 18 32 16 47 -9z m-1656 -52 c4 -25 -20 -47 -42 -38 -16 6 -22 45
-9 58 14 14 48 1 51 -20z"/>
<path d="M2292 6733 c2 -10 12 -18 23 -18 11 0 21 8 23 18 3 13 -3 17 -23 17
-20 0 -26 -4 -23 -17z"/>
<path d="M6595 6733 c-77 -40 -120 -108 -136 -216 -18 -116 -27 -172 -104
-622 -90 -528 -90 -539 -25 -597 l43 -38 1238 0 1239 0 45 43 c44 42 45 46 45
103 0 32 -7 95 -15 139 -8 44 -26 150 -40 235 -14 85 -28 166 -31 180 -3 14
-9 50 -14 80 -17 103 -29 175 -50 295 -12 66 -25 148 -31 183 -17 114 -57 177
-134 213 -34 16 -66 19 -213 19 -160 0 -173 -1 -170 -17 3 -15 16 -18 86 -21
70 -2 82 -5 82 -20 -1 -22 -44 -102 -97 -182 -26 -38 -43 -75 -43 -92 0 -38
-33 -104 -73 -149 -39 -43 -73 -61 -232 -123 -115 -45 -136 -54 -187 -75 -13
-6 -48 -20 -78 -32 -129 -50 -277 -123 -355 -174 -45 -29 -189 -139 -197 -150
-15 -21 -16 3 -2 55 34 129 15 194 -75 257 -59 41 -86 83 -100 156 -16 85 -12
82 -281 210 -52 25 -113 61 -134 79 -35 31 -39 39 -39 81 0 34 6 54 27 81 57
75 7 70 821 76 685 5 730 6 733 23 3 16 -37 17 -735 17 -652 -1 -741 -3 -768
-17z m1996 -35 c33 -20 79 -61 79 -71 0 -28 -151 -184 -205 -214 -16 -8 -34
-22 -38 -29 -13 -23 -66 -46 -89 -38 -12 4 -18 2 -14 -4 6 -10 -19 -35 -46
-45 -15 -5 -15 -2 3 33 11 21 24 61 28 87 5 39 10 47 25 45 15 -3 17 1 12 23
-6 22 -3 28 14 32 11 3 20 13 20 23 0 9 9 29 20 43 11 14 20 32 20 40 0 8 7
20 15 27 8 7 15 21 15 30 0 10 8 21 18 23 36 10 103 7 123 -5z m112 -155 c5
-26 17 -94 77 -438 11 -66 25 -144 30 -174 6 -30 8 -56 5 -59 -2 -2 -23 12
-46 32 -89 76 -159 65 -394 -61 -68 -36 -73 -38 -170 -37 -99 0 -101 1 -200
48 -146 70 -241 96 -355 96 l-65 1 45 20 c76 36 127 57 200 84 25 9 59 22 75
30 17 7 73 29 125 50 110 44 308 140 331 161 8 8 19 14 23 14 29 0 286 226
286 251 0 22 28 6 33 -18z m-2149 -97 c20 -19 36 -39 36 -45 0 -6 7 -11 15
-11 8 0 23 -4 33 -10 9 -5 73 -36 142 -68 132 -63 136 -66 161 -152 7 -25 19
-58 26 -73 16 -32 79 -94 103 -102 9 -3 27 -24 39 -46 29 -52 25 -106 -15
-206 -33 -82 -80 -135 -201 -229 -161 -125 -282 -183 -398 -191 -90 -7 -140
12 -160 60 -15 37 -7 143 21 249 8 31 13 61 12 65 -2 9 7 68 29 193 8 47 18
110 23 140 5 30 14 82 20 115 14 77 27 152 40 240 12 83 19 105 29 105 5 0 25
-15 45 -34z m1175 -546 c8 4 25 4 38 -1 13 -5 27 -8 31 -7 29 7 120 -28 140
-55 7 -9 17 -15 22 -12 5 3 40 -9 77 -27 62 -29 77 -32 171 -33 56 -1 102 2
102 6 0 3 27 17 60 29 32 12 61 27 63 34 3 8 11 7 27 -2 21 -13 22 -12 18 6
-5 16 2 24 27 36 18 9 42 16 52 16 10 0 25 6 31 12 10 10 17 10 34 -1 18 -11
20 -11 15 3 -5 12 0 16 17 16 13 0 26 -7 30 -15 3 -8 17 -15 31 -15 14 0 33
-10 43 -22 9 -12 27 -31 40 -43 12 -12 22 -30 22 -39 0 -9 6 -27 14 -39 16
-24 36 -144 29 -165 -3 -7 -1 -18 4 -25 6 -6 15 -44 22 -84 11 -61 10 -75 -3
-100 -32 -62 43 -58 -1056 -59 -554 -1 -1013 -4 -1019 -9 -7 -4 -18 0 -25 11
-7 9 -18 14 -24 10 -6 -4 -21 -2 -33 4 -21 12 -21 12 7 27 16 8 39 13 51 10
14 -2 20 0 17 8 -7 16 22 45 63 62 18 7 33 17 33 21 0 4 30 30 68 59 37 28 80
65 96 82 17 17 38 31 48 31 10 0 18 6 18 13 0 15 100 107 117 107 7 0 17 8 22
18 5 10 27 27 48 38 21 10 54 31 74 47 24 18 50 28 81 31 25 2 51 7 58 11 6 4
23 4 37 1 14 -4 31 -2 39 5 11 9 17 9 29 -1 12 -10 18 -9 31 4 15 15 18 15 33
2 10 -10 22 -12 30 -6z"/>
<path d="M8525 5840 c-3 -5 -1 -10 4 -10 6 0 11 5 11 10 0 6 -2 10 -4 10 -3 0
-8 -4 -11 -10z"/>
<path d="M7410 5829 c0 -5 5 -7 10 -4 6 3 10 8 10 11 0 2 -4 4 -10 4 -5 0 -10
-5 -10 -11z"/>
<path d="M7310 5769 c0 -5 5 -7 10 -4 6 3 10 8 10 11 0 2 -4 4 -10 4 -5 0 -10
-5 -10 -11z"/>
<path d="M8365 5760 c3 -5 8 -10 11 -10 2 0 4 5 4 10 0 6 -5 10 -11 10 -5 0
-7 -4 -4 -10z"/>
<path d="M7215 5700 c-3 -5 -1 -10 4 -10 6 0 11 5 11 10 0 6 -2 10 -4 10 -3 0
-8 -4 -11 -10z"/>
<path d="M8152 6733 c2 -10 12 -18 23 -18 11 0 21 8 23 18 3 13 -3 17 -23 17
-20 0 -26 -4 -23 -17z"/>
<path d="M808 6653 c-8 -10 -19 -34 -25 -53 -10 -35 -9 -36 27 -51 34 -15 40
-15 75 2 38 19 54 14 55 -15 0 -4 11 -6 25 -3 18 3 29 -1 36 -15 6 -12 19 -18
32 -16 14 2 26 -4 32 -17 6 -11 21 -20 34 -20 12 0 27 -8 32 -18 6 -10 22 -17
38 -17 21 0 30 -6 34 -21 7 -28 41 -21 45 9 3 21 -9 27 -45 23 -6 -1 -14 8
-18 19 -3 11 -14 20 -24 20 -10 0 -30 9 -44 20 -14 11 -30 20 -37 20 -6 0 -19
7 -27 16 -9 8 -24 13 -35 11 -11 -3 -22 2 -28 14 -6 10 -18 19 -26 19 -8 0
-34 20 -56 45 -44 48 -75 57 -100 28z m60 -31 c3 -18 -1 -22 -22 -22 -31 0
-42 16 -25 36 17 21 43 13 47 -14z"/>
<path d="M7455 6565 c-33 -20 -53 -25 -112 -25 -95 0 -108 -12 -87 -78 9 -26
18 -70 21 -99 6 -59 31 -93 68 -93 24 0 80 40 104 75 7 11 47 52 88 91 65 62
73 74 68 96 -5 20 -18 30 -55 42 -27 9 -50 16 -52 16 -2 0 -21 -12 -43 -25z
m84 -28 l31 -13 -103 -107 c-57 -59 -111 -107 -120 -107 -21 0 -37 30 -37 72
0 18 -7 54 -15 81 l-14 47 77 0 c60 0 84 5 107 20 36 24 34 23 74 7z"/>
<path d="M2195 6310 c-5 -7 -21 -9 -46 -5 -37 6 -39 5 -39 -19 0 -28 26 -36
47 -15 8 8 17 7 32 -3 16 -10 25 -10 40 -1 16 10 22 9 32 -3 7 -8 20 -12 30
-9 11 4 26 0 35 -9 8 -9 26 -16 38 -16 13 0 29 -7 36 -15 7 -8 21 -15 31 -15
11 0 19 -7 19 -15 0 -9 11 -20 25 -25 14 -5 25 -16 25 -24 0 -8 10 -22 23 -31
12 -8 22 -19 23 -23 3 -26 19 -42 43 -42 22 -1 24 -2 9 -11 -10 -5 -18 -21
-18 -34 0 -13 -4 -27 -10 -30 -17 -11 -11 -60 10 -83 46 -50 133 -14 126 51
-3 30 -37 67 -61 67 -7 0 -23 23 -36 50 -13 28 -27 50 -32 50 -4 0 -12 12 -17
26 -6 14 -19 28 -30 31 -10 3 -20 15 -22 26 -2 12 -12 23 -23 26 -11 2 -30 14
-43 28 -12 13 -27 21 -33 18 -6 -4 -16 1 -23 10 -9 13 -22 16 -44 13 -22 -3
-32 0 -32 9 0 9 -14 13 -43 13 -24 0 -48 5 -54 11 -8 8 -13 8 -18 -1z m455
-385 c0 -17 -2 -18 -24 -9 -23 9 -20 24 4 24 11 0 20 -7 20 -15z"/>
<path d="M1293 5973 c-18 -7 -16 -50 3 -57 25 -10 33 -7 44 15 18 33 -10 58
-47 42z"/>
<path d="M4590 5566 c0 -141 4 -217 11 -221 6 -4 13 -5 15 -2 9 8 -9 437 -18
437 -4 0 -8 -96 -8 -214z"/>
<path d="M2600 5560 l-95 -5 -1 -30 c-1 -43 10 -52 62 -53 36 -1 51 4 70 24
14 13 30 22 35 19 16 -11 49 6 49 25 0 24 -10 26 -120 20z"/>
<path d="M857 5493 c-14 -13 -7 -71 9 -77 36 -14 101 -6 119 14 10 11 28 20
41 20 30 0 61 30 42 41 -15 10 -202 12 -211 2z"/>
<path d="M3185 5319 c-4 -5 4 -20 17 -32 12 -13 101 -105 197 -205 119 -125
177 -180 184 -173 7 7 0 21 -24 44 -19 19 -67 69 -108 113 -127 135 -252 264
-256 264 -2 0 -7 -5 -10 -11z"/>
<path d="M5969 5205 c-280 -293 -274 -285 -246 -285 7 0 75 66 153 148 205
215 226 240 222 254 -3 7 -59 -44 -129 -117z"/>
<path d="M4455 5190 c-164 -27 -398 -105 -420 -139 -11 -19 29 -12 81 13 106
51 256 89 426 108 190 20 465 -20 623 -91 60 -27 83 -33 89 -22 15 23 -199 97
-364 126 -91 16 -347 19 -435 5z"/>
<path d="M3912 4988 c-29 -20 -40 -34 -34 -40 11 -11 102 45 102 62 0 18 -24
10 -68 -22z"/>
<path d="M3756 4875 c-53 -48 -36 -65 20 -19 24 20 44 40 44 45 0 19 -28 8
-64 -26z"/>
<path d="M3625 4748 c-84 -94 -138 -169 -128 -179 6 -6 28 14 59 53 27 35 69
85 93 111 30 32 41 51 34 58 -7 7 -25 -7 -58 -43z"/>
<path d="M331 4700 c-52 -24 -97 -68 -116 -115 -12 -27 -69 -336 -105 -565 -5
-30 -30 -176 -55 -325 -57 -333 -58 -363 -18 -413 17 -21 46 -42 68 -50 30
-10 294 -12 1254 -10 l1216 3 31 22 c35 25 64 78 66 120 1 24 -12 114 -38 258
-9 50 -64 376 -75 438 -5 31 -13 83 -19 115 -5 31 -14 86 -20 122 -40 253 -57
309 -108 358 -58 54 -93 62 -275 62 -155 0 -168 -1 -165 -17 2 -13 14 -19 41
-21 32 -3 36 -6 28 -21 -5 -9 -47 -34 -93 -55 -46 -21 -105 -49 -133 -61 -135
-63 -165 -67 -237 -36 -92 40 -228 135 -228 159 0 9 55 12 240 12 233 0 240 1
240 20 0 20 -7 20 -727 20 -707 0 -729 -1 -772 -20z m192 -50 c80 -38 227
-171 352 -320 214 -254 295 -336 405 -409 52 -35 70 -44 130 -69 111 -45 256
-50 360 -13 55 20 142 69 160 91 3 3 19 16 35 29 17 12 58 48 93 78 136 120
220 172 325 199 77 21 100 14 105 -29 3 -21 -2 -29 -25 -38 -133 -55 -174 -84
-358 -262 -87 -83 -107 -108 -98 -118 29 -30 99 -7 291 95 129 68 234 67 244
-3 2 -17 2 -35 -1 -40 -3 -5 -35 -12 -71 -15 -72 -8 -109 -17 -190 -49 -59
-22 -203 -104 -260 -147 -19 -14 -71 -53 -115 -86 -200 -151 -294 -208 -410
-250 -40 -15 -88 -19 -242 -22 -142 -3 -193 0 -193 8 0 6 15 37 33 68 74 128
107 260 87 350 -27 123 -88 209 -201 286 -91 61 -238 109 -484 156 -79 15
-242 67 -273 88 -22 15 -24 20 -18 71 12 114 42 257 61 289 34 56 119 96 187
87 14 -2 46 -14 71 -25z m253 4 c28 -13 64 -36 80 -52 16 -15 51 -43 77 -64
27 -20 97 -83 156 -140 225 -216 336 -301 436 -330 49 -15 197 -16 245 -2 46
14 160 71 246 124 203 126 313 168 401 155 39 -6 43 -9 43 -36 0 -23 -4 -29
-22 -29 -43 0 -146 -39 -217 -82 -70 -41 -87 -55 -210 -162 -198 -172 -336
-222 -501 -182 -195 48 -326 149 -555 429 -121 149 -258 284 -335 332 -36 21
-67 40 -69 41 -1 2 0 7 3 13 4 6 42 10 89 10 65 0 92 -5 133 -25z m284 8 c19
-9 37 -19 40 -22 3 -3 15 -13 28 -22 12 -8 44 -35 70 -59 26 -24 72 -64 102
-89 30 -25 64 -53 75 -63 10 -9 56 -35 100 -57 75 -37 88 -40 165 -40 97 0
120 7 257 77 56 29 137 64 180 79 150 49 200 83 225 150 15 43 44 45 80 7 35
-38 43 -57 57 -133 7 -36 14 -73 16 -82 5 -26 -14 -34 -85 -37 -85 -3 -186
-43 -325 -128 -158 -96 -227 -130 -298 -149 -78 -20 -174 -14 -242 15 -51 23
-147 85 -193 126 -15 13 -38 33 -50 44 -13 11 -63 57 -111 103 -129 124 -209
191 -278 235 -46 30 -59 43 -50 52 17 17 194 12 237 -7z m256 -8 c21 -15 66
-51 99 -82 60 -55 152 -107 213 -118 18 -4 54 -1 80 6 45 13 211 94 262 130
14 9 51 31 84 49 55 30 64 32 145 29 97 -3 103 -10 60 -72 -29 -43 -53 -56
-165 -95 -51 -17 -142 -56 -204 -87 -128 -63 -188 -84 -245 -84 -96 0 -216 60
-334 168 -20 18 -70 58 -111 89 -41 32 -79 60 -84 64 -21 18 10 29 83 29 68 0
83 -3 117 -26z m-1041 -479 c21 -14 45 -25 54 -25 9 0 35 -7 58 -15 22 -8 67
-19 100 -24 79 -14 271 -59 308 -72 161 -58 296 -168 335 -274 43 -116 15
-285 -68 -410 -53 -79 -31 -74 -379 -75 -297 0 -313 1 -313 18 0 26 36 57 101
86 43 19 81 26 165 31 179 11 273 39 338 101 72 68 75 189 8 288 -27 40 -120
111 -157 120 -11 2 -47 11 -80 20 -33 8 -103 15 -155 16 -161 0 -362 39 -412
79 -20 17 -21 21 -10 58 7 22 12 57 12 78 0 36 1 37 29 32 16 -3 46 -18 66
-32z m2228 -87 c3 -24 9 -62 13 -85 l7 -43 -71 0 c-79 0 -137 -20 -235 -83
-60 -39 -140 -70 -145 -57 -2 5 32 41 75 82 42 40 90 86 106 101 26 24 98 75
162 114 11 6 34 12 51 12 29 1 32 -2 37 -41z m-2177 -132 c38 -8 125 -17 194
-21 162 -7 202 -13 275 -37 126 -43 190 -116 201 -226 7 -74 -14 -116 -79
-159 -65 -43 -98 -52 -262 -64 -126 -10 -147 -14 -211 -44 -39 -19 -79 -46
-90 -61 -55 -76 -52 -74 -110 -74 -51 0 -54 1 -54 25 0 50 28 91 118 175 105
98 133 142 136 209 3 96 -35 127 -182 148 -59 8 -113 21 -120 27 -10 10 -11
27 -2 82 6 37 16 72 22 75 6 4 30 -4 53 -17 23 -13 73 -30 111 -38z m-114
-147 c9 -5 34 -9 54 -9 91 0 154 -47 154 -115 0 -56 -27 -95 -140 -205 -80
-77 -100 -103 -111 -140 -18 -67 -28 -74 -66 -47 -45 31 -54 56 -33 87 10 14
35 57 56 95 47 87 50 142 9 224 -24 49 -27 91 -8 123 4 8 59 0 85 -13z m2360
-97 c9 -48 14 -91 11 -95 -3 -4 -35 -5 -71 -2 -111 11 -254 -27 -398 -106 -32
-18 -120 -72 -194 -119 -185 -119 -190 -121 -291 -118 l-84 3 75 44 c107 63
210 133 325 221 170 130 280 195 400 235 49 17 179 34 201 27 6 -1 18 -42 26
-90z m-2445 -53 c10 -106 8 -124 -21 -172 -40 -70 -55 -50 -32 45 10 40 20 92
23 116 5 46 26 54 30 11z m2457 -89 c11 -11 34 -109 35 -152 l1 -27 -117 -4
c-125 -4 -158 -10 -238 -47 -139 -64 -168 -70 -305 -69 -94 1 -130 4 -130 13
0 18 207 152 334 216 61 31 136 62 166 68 30 7 64 14 75 16 34 8 167 -2 179
-14z m14 -223 c13 -15 5 -30 -25 -46 -33 -17 -326 -19 -307 -2 5 5 38 18 74
29 36 12 72 23 80 26 34 11 168 6 178 -7z"/>
<path d="M1880 4700 c0 -15 7 -20 25 -20 18 0 25 5 25 20 0 15 -7 20 -25 20
-18 0 -25 -5 -25 -20z"/>
<path d="M7019 4693 c-62 -32 -113 -98 -122 -159 -3 -22 -24 -147 -47 -279
-43 -254 -54 -320 -69 -412 -5 -32 -26 -154 -46 -272 -37 -211 -37 -214 -19
-253 10 -22 34 -52 53 -66 l34 -27 1236 0 1236 0 33 23 c65 47 74 105 43 282
-6 30 -15 82 -20 115 -5 33 -19 114 -31 180 -12 66 -25 143 -29 170 -38 246
-95 557 -108 588 -22 50 -77 103 -128 122 -59 23 -358 18 -363 -6 -3 -14 19
-17 170 -23 179 -8 205 -14 244 -58 41 -44 52 -85 94 -358 4 -30 19 -120 33
-200 38 -214 38 -206 2 -202 -16 1 -39 7 -50 12 -11 5 -63 22 -115 38 -52 16
-142 44 -200 61 -58 18 -159 50 -225 71 -239 77 -342 109 -445 139 -58 18
-112 35 -120 40 -9 5 -30 12 -49 16 -18 4 -35 13 -37 20 -3 7 11 52 31 101
104 254 125 303 133 314 2 3 90 7 195 10 162 4 192 7 192 20 0 13 -88 15 -726
18 l-725 2 -55 -27z m1080 -22 c11 -7 6 -24 -22 -87 -19 -44 -61 -140 -92
-214 -99 -234 -92 -230 -445 -281 -80 -11 -172 -25 -205 -30 -33 -5 -91 -13
-130 -19 -38 -5 -115 -17 -170 -26 -55 -9 -118 -17 -140 -18 -45 -1 -44 -5
-27 104 48 295 74 431 88 468 17 45 77 96 124 105 46 8 1005 7 1019 -2z m-30
-490 c47 -15 104 -33 126 -40 69 -19 239 -72 260 -81 11 -4 40 -14 65 -21 25
-7 51 -17 57 -22 18 -13 8 -409 -10 -419 -7 -3 -32 -11 -57 -18 -25 -6 -59
-16 -76 -21 -17 -5 -42 -9 -57 -9 -14 0 -28 -4 -31 -9 -3 -5 -23 -11 -43 -14
-21 -3 -58 -11 -83 -17 -25 -6 -58 -14 -75 -16 -16 -3 -39 -9 -50 -14 -11 -5
-33 -11 -50 -14 -40 -7 -120 -24 -170 -35 -22 -6 -74 -17 -115 -26 -41 -9 -83
-20 -92 -25 -13 -7 -18 -7 -19 2 0 7 0 122 1 255 l1 243 49 105 c44 93 52 105
75 105 41 0 114 40 148 81 18 21 38 39 46 39 7 0 52 -13 100 -29z m-391 -110
c10 -6 5 -25 -22 -84 -49 -105 -55 -156 -53 -444 1 -163 -3 -257 -9 -263 -7
-7 -138 -10 -390 -8 -374 3 -379 3 -410 25 -18 13 -34 35 -37 50 -5 28 18 236
28 253 3 5 7 26 9 47 9 93 48 299 59 310 7 7 41 15 77 18 36 3 92 9 125 15 33
5 139 21 235 35 96 14 213 31 260 39 107 17 112 17 128 7z m1048 -90 c32 -11
120 -38 194 -61 74 -23 146 -45 160 -50 14 -4 50 -15 81 -25 94 -27 84 -3 144
-350 8 -49 15 -103 15 -118 0 -37 -27 -82 -57 -96 -15 -7 -101 -11 -222 -11
-190 0 -200 1 -227 22 -76 59 -118 107 -149 173 -39 80 -41 102 -37 368 2 191
-4 181 98 148z m-103 -500 c19 -48 46 -89 88 -134 32 -36 56 -68 52 -70 -5 -3
-258 -4 -563 -3 l-555 1 -3 27 c-4 31 12 42 73 52 22 4 114 25 205 47 424 101
627 148 650 148 22 1 29 -8 53 -68z"/>
<path d="M8581 4706 c-10 -11 -8 -16 9 -21 24 -8 46 7 36 24 -10 15 -31 14
-45 -3z"/>
<path d="M5746 4662 c-3 -5 15 -35 39 -68 39 -51 138 -239 174 -328 8 -19 15
-26 22 -19 18 18 -77 223 -164 351 -48 70 -60 81 -71 64z"/>
<path d="M4000 4526 c-65 -17 -116 -51 -160 -107 -51 -65 -73 -134 -73 -234
-1 -138 44 -239 134 -305 115 -83 319 -80 464 8 l45 27 0 142 0 143 -145 0
-145 0 0 -55 0 -55 75 0 c70 0 75 -1 81 -24 10 -42 0 -70 -34 -92 -70 -47
-183 -50 -249 -7 -51 34 -93 135 -93 227 0 109 65 202 156 223 83 19 148 -4
199 -71 23 -31 29 -33 58 -26 18 4 45 11 60 14 25 6 28 10 22 33 -9 37 -48 90
-86 119 -69 51 -205 68 -309 40z"/>
<path d="M5124 4531 c-98 -25 -158 -96 -158 -186 0 -104 68 -165 235 -210 57
-15 114 -34 127 -42 35 -22 47 -56 32 -92 -19 -47 -55 -66 -130 -66 -79 0
-119 24 -144 85 l-16 40 -60 0 c-45 0 -62 -4 -66 -15 -10 -26 29 -114 69 -154
51 -52 112 -71 224 -71 75 1 96 5 143 28 80 40 113 87 118 167 9 139 -46 196
-238 244 -125 32 -154 50 -158 94 -3 29 2 39 23 53 14 9 48 19 74 22 64 6 114
-18 136 -64 16 -35 16 -35 78 -32 l62 3 -1 38 c-2 50 -45 105 -109 136 -37 19
-67 25 -129 27 -45 2 -95 0 -112 -5z"/>
<path d="M4625 4517 c-3 -6 -4 -163 -3 -347 l3 -335 65 0 65 0 3 339 c2 265
-1 341 -10 348 -21 13 -118 10 -123 -5z"/>
<path d="M3316 4208 c-14 -46 -29 -108 -35 -138 -28 -143 -31 -438 -5 -447 8
-3 11 49 11 169 0 140 4 193 22 278 24 112 40 169 53 185 13 15 9 35 -7 35 -9
0 -23 -28 -39 -82z"/>
<path d="M5990 4163 c1 -16 7 -41 14 -58 12 -26 15 -28 21 -12 9 21 -11 97
-25 97 -6 0 -10 -12 -10 -27z"/>
<path d="M6027 4013 c-2 -4 -2 -23 0 -41 7 -40 29 -37 25 4 -4 31 -17 51 -25
37z"/>
<path d="M6036 3748 c-7 -125 -16 -188 -42 -289 -16 -64 -18 -89 -5 -89 13 0
37 85 55 195 16 92 27 270 19 293 -13 33 -21 1 -27 -110z"/>
<path d="M2666 3851 c-4 -5 -2 -12 3 -15 15 -9 416 -20 436 -12 11 4 15 10 9
15 -13 12 -441 24 -448 12z"/>
<path d="M6205 3771 c-3 -5 0 -13 7 -18 20 -12 408 -17 408 -5 0 17 -404 39
-415 23z"/>
<path d="M3777 3622 c-22 -25 -22 -85 1 -104 27 -24 49 -28 82 -17 24 9 30 17
30 40 0 24 -4 29 -25 29 -28 0 -34 -15 -9 -24 24 -9 6 -26 -27 -26 -38 0 -58
37 -41 75 13 28 58 35 81 13 10 -11 12 -9 9 7 -5 29 -77 34 -101 7z"/>
<path d="M3970 3575 c0 -73 12 -86 68 -78 48 8 50 23 3 23 -34 0 -41 3 -41 19
0 14 10 21 38 27 l37 8 -35 5 c-46 8 -56 41 -11 41 16 0 33 5 36 10 4 6 -13
10 -44 10 l-51 0 0 -65z"/>
<path d="M4166 3618 c-45 -63 8 -145 77 -119 47 18 64 92 29 124 -28 25 -87
22 -106 -5z m92 -39 c4 -43 -16 -64 -53 -55 -21 5 -25 12 -25 45 0 46 6 53 45
49 27 -3 30 -7 33 -39z"/>
<path d="M4377 3622 c-27 -30 -22 -87 9 -111 31 -24 43 -26 79 -9 18 8 25 19
25 40 0 23 -4 28 -25 28 -28 0 -34 -15 -9 -24 24 -9 6 -26 -27 -26 -36 0 -54
35 -38 76 9 25 12 26 55 20 41 -5 45 -4 34 9 -18 21 -83 19 -103 -3z"/>
<path d="M4570 3569 c0 -52 3 -70 13 -67 6 3 14 13 15 24 7 38 22 39 51 4 32
-39 48 -37 30 3 -9 21 -9 30 1 42 7 8 10 25 6 40 -6 23 -11 25 -61 25 l-55 0
0 -71z m88 34 c-2 -12 -12 -18 -28 -18 -16 0 -26 6 -28 18 -3 13 3 17 28 17
25 0 31 -4 28 -17z"/>
<path d="M4802 3618 c-30 -60 -42 -102 -33 -111 7 -7 13 -5 17 6 8 23 63 22
80 0 25 -35 26 -3 1 59 -27 68 -47 82 -65 46z m36 -45 c-4 -22 -22 -20 -26 1
-2 10 3 16 13 16 10 0 15 -7 13 -17z"/>
<path d="M4966 3618 c-9 -41 -1 -111 12 -115 7 -3 12 4 12 14 0 25 19 43 47
43 29 0 48 33 33 60 -8 15 -21 20 -55 20 -38 0 -45 -3 -49 -22z m78 -13 c6
-18 -16 -30 -39 -21 -8 3 -15 12 -15 21 0 20 46 20 54 0z"/>
<path d="M5150 3570 c0 -53 3 -71 13 -68 6 3 13 16 15 30 6 48 62 44 62 -4 0
-18 5 -28 12 -26 9 3 14 61 9 126 -2 24 -20 12 -23 -15 -4 -38 -49 -40 -58 -4
-3 14 -11 26 -18 29 -9 3 -12 -16 -12 -68z"/>
<path d="M5345 3628 c-10 -24 -1 -123 10 -121 14 4 19 113 6 126 -7 7 -12 5
-16 -5z"/>
<path d="M5454 3615 c-38 -59 22 -144 82 -116 13 6 24 17 24 26 0 17 -16 20
-25 5 -3 -5 -17 -10 -30 -10 -18 0 -26 7 -31 25 -10 42 3 75 31 75 13 0 26 -4
30 -10 3 -5 12 -7 21 -3 27 10 -6 33 -47 33 -30 0 -42 -5 -55 -25z"/>
<path d="M3727 3383 c-7 -13 -8 -103 -2 -124 12 -37 25 -8 25 56 0 57 -11 89
-23 68z"/>
<path d="M3828 3332 c-5 -65 5 -109 17 -79 4 9 5 23 2 30 -3 8 -2 19 3 26 8
14 11 12 51 -42 11 -15 25 -25 30 -22 5 4 9 38 9 76 0 44 -4 68 -10 64 -5 -3
-10 -22 -10 -41 0 -43 -15 -43 -41 0 -33 56 -47 53 -51 -12z"/>
<path d="M4027 3383 c-4 -3 -7 -35 -7 -70 0 -47 3 -64 12 -61 7 3 15 15 18 29
4 17 14 25 33 27 33 4 26 22 -9 22 -40 0 -27 34 14 38 18 2 30 8 27 13 -7 10
-78 12 -88 2z"/>
<path d="M4216 3377 c-9 -7 -20 -31 -23 -54 -4 -33 -1 -45 16 -62 46 -46 121
-13 121 52 0 62 -66 99 -114 64z m72 -19 c7 -7 12 -27 12 -45 0 -26 -6 -36
-25 -45 -33 -15 -55 4 -55 46 0 35 15 56 40 56 9 0 21 -5 28 -12z"/>
<path d="M4413 3383 c-19 -7 -17 -117 2 -133 13 -11 15 -8 15 18 0 45 15 47
48 6 32 -38 50 -32 30 11 -9 19 -9 28 0 37 18 18 14 46 -7 58 -20 10 -66 12
-88 3z m75 -35 c4 -19 -35 -35 -50 -20 -6 6 -8 18 -4 27 8 21 50 16 54 -7z"/>
<path d="M4607 3383 c-4 -3 -7 -35 -7 -70 0 -49 3 -63 15 -63 9 0 15 9 15 25
0 14 5 25 10 25 6 0 10 -8 10 -19 0 -21 23 -45 33 -34 4 3 7 17 7 30 0 29 18
30 22 1 2 -12 9 -23 16 -26 15 -5 17 124 2 133 -18 11 -40 -16 -40 -47 0 -41
-34 -35 -38 7 -4 36 -28 56 -45 38z"/>
<path d="M4863 3378 c-6 -7 -16 -31 -24 -53 -7 -22 -17 -46 -23 -53 -13 -19 2
-28 24 -14 27 16 65 15 80 -3 27 -33 27 -1 0 62 -30 71 -40 82 -57 61z m23
-75 c-7 -17 -8 -17 -17 0 -12 21 -2 44 13 29 6 -6 8 -19 4 -29z"/>
<path d="M4995 3380 c-3 -5 1 -10 9 -10 22 0 30 -19 27 -65 -1 -28 4 -46 14
-55 13 -11 15 -5 15 50 0 53 3 63 20 67 11 3 20 9 20 14 0 12 -97 11 -105 -1z"/>
<path d="M5295 3374 c-28 -21 -28 -100 -1 -120 50 -36 116 -2 116 61 0 63 -65
97 -115 59z m73 -16 c17 -17 15 -73 -3 -88 -12 -10 -21 -10 -40 -2 -43 20 -30
102 15 102 9 0 21 -5 28 -12z"/>
<path d="M5493 3383 c-20 -7 -18 -133 2 -133 10 0 15 10 15 29 0 43 17 47 36
9 18 -36 33 -50 46 -42 12 7 10 132 -2 139 -6 4 -10 -8 -10 -29 0 -50 -16 -53
-45 -6 -14 22 -26 40 -28 39 -1 0 -8 -3 -14 -6z"/>
<path d="M5174 3318 c1 -39 6 -63 14 -66 9 -3 12 14 12 62 0 50 -3 66 -14 66
-10 0 -13 -15 -12 -62z"/>
<path d="M3360 3270 c0 -18 30 -70 40 -70 13 0 13 7 -2 47 -11 30 -38 47 -38
23z"/>
<path d="M3430 3130 c0 -22 31 -70 45 -70 19 0 19 2 -6 44 -20 35 -39 47 -39
26z"/>
<path d="M4162 3129 c-42 -16 -23 -79 24 -79 21 0 39 -22 27 -34 -11 -11 -51
-6 -56 7 -2 6 -8 8 -13 4 -14 -13 11 -42 39 -45 16 -2 34 5 46 17 18 18 19 25
9 46 -7 15 -19 25 -33 25 -21 0 -45 17 -45 32 0 12 48 10 55 -2 4 -6 11 -8 16
-4 13 8 -5 30 -29 36 -10 3 -28 1 -40 -3z"/>
<path d="M4320 3118 c0 -7 9 -24 20 -38 11 -14 20 -40 20 -57 0 -23 5 -33 15
-33 10 0 15 10 15 29 0 17 10 46 21 66 27 46 17 57 -17 20 l-26 -29 -15 27
c-14 28 -33 36 -33 15z"/>
<path d="M4517 3123 c-4 -3 -7 -17 -7 -30 0 -16 10 -28 36 -40 20 -10 37 -22
38 -28 2 -15 -46 -18 -55 -4 -10 17 -23 5 -16 -15 8 -20 56 -32 76 -19 36 23
21 79 -22 85 -12 2 -23 11 -25 22 -4 16 0 18 32 12 30 -6 35 -4 30 9 -6 15
-74 22 -87 8z"/>
<path d="M4680 3125 c0 -3 11 -10 25 -15 23 -9 25 -15 25 -65 0 -30 5 -55 10
-55 6 0 10 27 10 60 0 46 3 60 14 60 8 0 18 5 21 10 4 6 -15 10 -49 10 -31 0
-56 -2 -56 -5z"/>
<path d="M4869 3128 c-1 -2 -3 -31 -4 -66 -2 -59 0 -64 22 -73 37 -14 73 -11
73 6 0 10 -11 15 -35 15 -28 0 -35 4 -35 20 0 16 7 20 35 20 44 0 46 18 3 22
-22 2 -34 9 -36 21 -3 14 4 17 32 17 20 0 36 5 36 10 0 8 -87 15 -91 8z"/>
<path d="M5050 3060 c0 -45 4 -69 10 -65 6 3 10 17 10 30 0 35 26 22 34 -17 5
-24 9 -28 20 -19 7 6 17 26 21 44 l8 32 6 -33 c10 -57 26 -40 29 31 3 65 2 68
-19 65 -14 -2 -25 -14 -33 -38 -14 -43 -29 -42 -36 2 -4 25 -11 34 -27 36 -22
3 -23 0 -23 -68z"/>
<path d="M5757 2968 c-25 -35 -59 -76 -76 -92 -29 -28 -41 -56 -23 -56 19 0
162 172 162 195 0 28 -17 15 -63 -47z"/>
<path d="M3510 2998 c1 -17 35 -58 49 -58 17 0 13 18 -11 45 -24 27 -38 32
-38 13z"/>
<path d="M3605 2890 c-7 -11 41 -70 57 -70 17 0 7 28 -21 54 -20 19 -31 24
-36 16z"/>
<path d="M734 2821 c-46 -21 -109 -89 -119 -129 -7 -30 -19 -97 -34 -187 -5
-33 -28 -168 -51 -300 -23 -132 -46 -267 -51 -300 -17 -105 -26 -157 -49 -293
l-22 -132 24 -48 c17 -35 34 -53 68 -69 l44 -23 1197 0 c868 0 1205 3 1230 11
66 23 109 80 109 146 0 21 -14 117 -30 213 -17 96 -55 319 -85 495 -30 176
-61 357 -69 403 -22 125 -68 190 -155 220 -35 13 -326 17 -355 6 -13 -5 -14
-9 -5 -20 9 -11 46 -14 161 -14 158 0 199 -9 246 -53 44 -40 53 -71 92 -317 5
-30 18 -109 30 -175 12 -66 25 -147 31 -180 5 -33 14 -86 19 -117 6 -32 14
-84 19 -115 5 -32 21 -124 35 -204 29 -159 27 -176 -19 -219 l-27 -25 -1191
-3 c-656 -2 -1207 0 -1226 3 -20 4 -47 20 -63 37 -33 35 -35 62 -13 188 8 47
20 113 25 147 5 33 30 182 55 330 26 147 57 334 71 415 27 162 40 202 76 235
58 54 39 53 818 53 682 0 721 1 718 18 -3 16 -47 17 -733 19 -691 3 -732 2
-771 -16z"/>
<path d="M2290 2820 c0 -16 5 -21 23 -18 12 2 22 10 22 18 0 8 -10 16 -22 18
-18 3 -23 -2 -23 -18z"/>
<path d="M6625 2817 c-26 -6 -57 -27 -90 -61 -58 -59 -58 -56 -105 -346 -17
-102 -35 -207 -40 -235 -5 -27 -19 -104 -29 -170 -11 -66 -34 -201 -51 -300
-39 -219 -37 -281 6 -326 16 -17 40 -35 53 -40 14 -6 517 -10 1243 -9 1345 0
1250 -5 1302 63 35 46 34 88 -10 343 -19 115 -40 234 -45 264 -5 30 -12 71
-14 90 -3 19 -10 58 -15 85 -5 28 -19 106 -30 175 -51 308 -56 330 -88 379
-15 24 -46 51 -76 68 -49 26 -58 27 -211 30 -88 2 -166 -1 -174 -6 -27 -17 -4
-41 39 -41 28 0 40 -4 40 -14 0 -8 -41 -85 -91 -172 -51 -88 -107 -186 -126
-219 -19 -33 -37 -63 -41 -66 -4 -4 -32 1 -62 11 -30 10 -89 28 -130 40 -98
30 -109 40 -83 77 11 15 37 59 58 96 41 74 35 72 118 51 43 -10 32 11 -14 26
-39 13 -40 15 -35 49 l6 36 -24 -29 c-24 -28 -26 -29 -64 -18 -47 14 -62 15
-62 4 0 -5 18 -15 40 -22 22 -7 40 -19 40 -26 0 -16 -99 -187 -113 -196 -7 -4
-16 -3 -21 2 -6 6 -20 10 -32 10 -13 0 -25 4 -28 8 -3 5 -30 15 -61 22 -30 7
-60 19 -66 26 -11 13 -9 18 80 170 22 39 41 76 41 83 0 6 5 11 11 11 5 0 7 5
4 10 -11 17 -21 4 -96 -125 -39 -69 -76 -128 -81 -131 -8 -5 -145 33 -203 56
-11 5 -28 11 -37 14 -27 8 -23 25 30 122 l49 89 373 2 c215 2 378 7 383 12 5
5 7 16 4 25 -5 13 -91 15 -719 14 -455 0 -727 -4 -753 -11z m588 -43 c6 -6
-20 -62 -34 -74 -3 -3 -34 -53 -69 -113 -34 -59 -67 -110 -72 -113 -9 -6 -166
39 -200 57 -10 5 -24 9 -32 9 -28 0 -27 21 3 73 17 31 27 58 22 65 -10 16 -30
-7 -60 -65 -11 -23 -24 -44 -29 -47 -4 -2 -35 4 -67 14 -33 10 -81 24 -107 31
-40 11 -48 17 -48 37 0 32 34 78 79 107 36 24 38 24 322 24 157 1 289 -2 292
-5z m92 -4 c3 -5 -8 -30 -24 -54 -17 -25 -31 -47 -31 -50 0 -4 -18 -36 -40
-72 -22 -36 -40 -68 -40 -70 0 -2 -27 -49 -60 -104 -33 -55 -60 -103 -60 -106
0 -16 -63 -94 -76 -94 -24 0 -26 25 -6 61 11 19 60 105 110 191 50 87 105 186
123 220 18 35 37 69 42 76 11 14 53 16 62 2z m1119 2 c2 -4 -32 -71 -76 -147
-89 -156 -82 -143 -202 -348 -47 -82 -86 -150 -86 -152 0 -2 -18 -33 -40 -69
-22 -36 -40 -68 -40 -70 0 -2 -17 -33 -39 -67 -38 -64 -72 -84 -79 -48 -2 9
72 146 164 304 91 159 175 304 186 324 11 20 24 41 28 46 10 14 69 122 93 170
11 22 24 46 29 53 11 13 54 17 62 4z m177 -6 c61 -26 99 -83 114 -173 6 -38 2
-51 -29 -108 -39 -69 -60 -88 -85 -75 -9 5 -76 28 -148 51 -139 44 -149 52
-119 94 7 11 23 37 35 58 11 20 30 52 40 71 11 18 25 44 33 57 7 13 18 27 23
31 17 13 101 9 136 -6z m-1958 -202 c42 -15 77 -32 77 -37 0 -5 -16 -38 -35
-73 -19 -35 -35 -68 -35 -74 0 -25 18 -5 58 65 24 41 49 75 55 75 12 0 181
-53 230 -72 15 -6 27 -15 27 -20 0 -5 -24 -50 -52 -100 l-53 -90 -50 5 c-161
14 -392 38 -401 42 -9 3 -9 21 1 72 6 37 18 102 25 143 6 41 14 81 16 89 5 17
36 11 137 -25z m702 -55 c55 -17 106 -33 113 -35 24 -7 11 -43 -58 -160 -69
-118 -87 -160 -55 -134 9 7 41 58 72 114 77 138 92 158 111 152 205 -57 211
-62 171 -133 -12 -21 -35 -63 -52 -93 -17 -30 -36 -64 -44 -75 -17 -25 -17
-35 1 -35 7 0 16 8 20 18 3 9 14 31 23 47 67 111 93 157 93 164 0 5 6 14 14
20 12 10 120 -18 263 -69 l33 -12 -15 -34 c-8 -20 -23 -47 -33 -62 -11 -15
-32 -52 -49 -82 -17 -30 -40 -73 -53 -95 -13 -22 -29 -52 -37 -66 -26 -52 -38
-54 -93 -20 -28 17 -52 31 -55 31 -2 0 -26 13 -52 28 -109 64 -383 168 -547
208 -43 10 -80 23 -83 29 -4 11 60 132 132 251 55 89 42 86 180 43z m1395 -63
c0 -12 -39 -89 -86 -172 -48 -82 -100 -174 -117 -204 -16 -30 -38 -67 -49 -82
-10 -14 -18 -29 -18 -32 0 -3 -14 -29 -31 -58 -18 -29 -40 -68 -50 -85 -11
-18 -29 -50 -40 -70 -12 -21 -35 -60 -51 -88 -16 -27 -34 -60 -40 -73 -13 -25
-35 -26 -51 -2 -7 12 5 39 47 109 31 51 56 95 56 96 0 2 17 32 38 66 21 35 52
89 69 119 17 30 63 111 103 180 104 179 126 218 161 283 25 45 35 55 45 46 8
-6 14 -21 14 -33z m-295 -16 c180 -55 176 -51 119 -146 -20 -32 -49 -84 -66
-114 -17 -30 -36 -64 -42 -75 -64 -111 -81 -137 -92 -142 -11 -4 -54 8 -127
36 l-28 11 47 87 c27 49 63 112 81 141 29 45 32 53 17 59 -9 3 -20 0 -25 -8
-23 -36 -73 -121 -109 -186 -23 -40 -45 -75 -49 -78 -12 -7 -102 25 -107 39
-4 11 70 146 190 348 42 70 49 77 69 68 12 -4 67 -23 122 -40z m322 -141 c22
-116 18 -138 -38 -236 -29 -48 -57 -93 -63 -99 -14 -15 -136 22 -136 41 0 16
6 27 114 213 49 84 94 151 100 149 6 -2 16 -33 23 -68z m-2137 -56 c8 -3 38
-7 65 -9 52 -3 313 -47 375 -63 70 -17 215 -62 232 -71 10 -6 27 -10 37 -10
11 0 22 -4 25 -9 3 -5 18 -12 33 -16 54 -13 261 -112 350 -166 35 -22 68 -39
73 -39 5 0 13 -6 17 -13 4 -6 20 -18 35 -26 15 -8 36 -21 45 -30 10 -9 36 -29
58 -46 116 -86 325 -299 325 -331 0 -11 -11 -14 -43 -13 -24 2 -49 -1 -56 -5
-8 -5 -41 21 -96 76 -146 146 -252 235 -349 293 -27 17 -62 38 -78 48 -57 34
-244 127 -256 127 -7 0 -20 4 -30 9 -80 44 -409 138 -516 147 -34 3 -70 9 -81
14 -28 13 -143 23 -260 24 l-100 1 3 55 c2 32 8 59 16 65 13 10 136 1 176 -12z
m-42 -143 c73 0 194 -18 206 -30 7 -7 -210 -404 -274 -500 -9 -14 -30 -50 -47
-80 -63 -117 -66 -119 -120 -65 -39 39 -39 42 -14 200 36 221 43 264 51 296 6
20 10 52 11 70 0 19 6 52 13 74 9 32 17 41 41 46 17 3 40 2 53 -3 13 -4 49 -8
80 -8z m2226 -89 c9 -54 12 -99 7 -104 -8 -8 -90 14 -120 32 -10 7 -5 23 28
77 41 71 61 98 66 92 2 -2 10 -46 19 -97z m-1938 44 c5 -12 -30 -78 -177 -332
-42 -73 -63 -111 -92 -163 -17 -30 -38 -67 -49 -82 -10 -14 -18 -30 -18 -35 0
-17 -41 -53 -60 -53 -29 0 -25 14 24 99 24 42 54 96 68 121 45 81 220 384 244
423 25 38 50 48 60 22z m169 -34 c160 -42 225 -62 225 -69 0 -9 -190 -343
-206 -361 -6 -7 -107 24 -111 35 -2 7 18 53 45 103 39 71 47 92 37 101 -9 8
-17 4 -29 -14 -9 -14 -16 -27 -16 -30 0 -12 -83 -146 -90 -146 -5 0 -45 12
-89 26 -51 16 -81 31 -81 40 0 8 38 79 85 159 103 177 109 185 115 185 3 0 55
-13 115 -29z m1140 -39 c61 -19 120 -37 133 -39 44 -10 45 -6 -79 -220 -29
-51 -57 -93 -62 -93 -5 0 -48 33 -95 73 -48 40 -104 85 -124 100 -21 16 -38
32 -38 36 0 5 18 40 41 77 72 120 68 116 92 108 12 -4 72 -23 132 -42z m395
-32 c66 -22 67 -31 13 -123 -21 -34 -45 -75 -53 -91 -8 -16 -21 -31 -28 -34
-20 -7 -122 27 -128 43 -3 8 11 42 32 77 20 35 46 79 56 98 11 19 22 38 25 43
6 10 21 8 83 -13z m-1235 -20 c7 -11 -28 -78 -125 -240 -18 -30 -41 -70 -51
-87 -38 -66 -59 -104 -78 -137 -38 -67 -46 -76 -68 -76 -31 0 -29 16 12 84 19
32 35 60 35 61 0 3 106 190 192 338 37 64 66 84 83 57z m174 -71 c144 -70 304
-173 406 -262 80 -69 195 -187 195 -199 0 -11 -577 -14 -589 -2 -5 5 27 87 43
109 13 18 17 17 110 -18 103 -40 116 -43 116 -27 0 12 -5 14 -180 79 -255 94
-355 133 -364 141 -8 8 119 240 132 240 3 0 62 -28 131 -61z m1276 22 c37 -8
52 -37 60 -116 5 -55 3 -64 -25 -107 -17 -28 -38 -48 -48 -48 -16 0 -214 64
-233 75 -4 3 22 57 58 119 l66 114 46 -15 c25 -8 60 -18 76 -22z m-330 -205
c140 -42 288 -95 296 -107 4 -7 -11 -41 -34 -78 -67 -108 -52 -101 -204 -101
-126 0 -135 1 -156 23 -42 42 -97 114 -97 126 0 12 38 86 71 139 17 27 25 27
124 -2z m-1596 -60 c89 -30 166 -57 169 -61 8 -7 -39 -99 -71 -138 l-22 -28
-195 1 c-106 0 -196 2 -198 4 -5 6 31 81 68 141 17 28 33 57 37 65 6 15 43 70
46 70 2 0 76 -24 166 -54z m478 -2 c169 -62 203 -77 203 -92 0 -8 -14 -41 -31
-73 l-32 -59 -198 0 c-154 0 -199 3 -199 13 0 7 18 43 40 81 22 37 40 70 40
73 0 11 62 93 70 93 5 0 54 -16 107 -36z m1533 -2 c0 -56 -97 -216 -134 -220
-37 -5 -34 13 24 113 28 48 50 91 50 96 0 5 4 9 9 9 5 0 11 9 14 20 3 11 12
20 21 20 12 0 16 -10 16 -38z m20 -122 c0 -35 -59 -108 -79 -96 -8 5 -4 22 16
59 40 75 63 88 63 37z"/>
<path d="M8157 2823 c-24 -23 12 -55 38 -33 12 10 13 16 4 26 -12 15 -31 18
-42 7z"/>
<path d="M3710 2771 c0 -5 14 -21 32 -36 38 -32 52 -16 17 21 -22 24 -49 32
-49 15z"/>
<path d="M5553 2751 c-31 -26 -43 -51 -25 -51 12 0 82 60 82 71 0 17 -25 8
-57 -20z"/>
<path d="M3520 2641 c-25 -26 -110 -116 -190 -200 -80 -83 -146 -156 -148
-161 -2 -6 3 -10 10 -10 8 0 65 53 126 118 61 64 147 155 191 202 45 47 81 88
81 92 0 21 -30 3 -70 -41z"/>
<path d="M5400 2640 c-105 -74 -294 -155 -420 -181 -106 -22 -238 -39 -297
-39 -47 0 -64 -3 -60 -12 9 -29 305 2 447 46 71 22 198 74 249 103 84 46 170
106 165 115 -9 14 -28 7 -84 -32z"/>
<path d="M5715 2670 c-3 -6 38 -56 92 -113 55 -56 139 -144 188 -194 48 -51
95 -93 102 -93 9 0 11 5 6 14 -11 20 -371 396 -379 396 -1 0 -6 -5 -9 -10z"/>
<path d="M1084 2632 c-20 -14 -54 -80 -54 -106 0 -26 1 -26 70 -26 70 0 70 0
70 28 0 38 -46 112 -70 112 -3 0 -10 -4 -16 -8z m42 -67 c9 -20 15 -37 13 -38
-2 -2 -21 0 -41 3 l-37 5 16 33 c8 17 19 32 24 32 4 0 16 -16 25 -35z"/>
<path d="M1793 2633 c-16 -6 -17 -45 -1 -61 30 -30 75 0 64 43 -6 24 -31 32
-63 18z"/>
<path d="M2471 2523 c-13 -20 -24 -50 -25 -67 l-1 -31 68 -3 c85 -4 92 9 52
85 -34 65 -59 70 -94 16z m79 -59 c0 -10 -13 -14 -40 -14 -22 0 -40 3 -40 6 0
3 10 20 22 36 l21 31 19 -23 c10 -12 18 -28 18 -36z"/>
<path d="M4160 2496 c0 -18 223 -86 237 -72 11 11 -9 24 -52 35 -22 5 -58 15
-80 21 -53 16 -105 24 -105 16z"/>
<path d="M4466 2421 c-7 -11 18 -21 54 -21 33 0 48 15 24 24 -24 9 -72 7 -78
-3z"/>
<path d="M4672 2043 c2 -162 6 -217 16 -221 14 -4 17 150 5 331 -11 184 -24
117 -21 -110z"/>
<path d="M834 2116 c-9 -23 -1 -48 19 -60 25 -16 52 4 52 40 0 25 -4 29 -33
32 -22 2 -34 -2 -38 -12z"/>
<path d="M1810 2043 c-16 -26 -30 -57 -30 -70 0 -22 4 -23 70 -23 53 0 72 4
76 15 8 19 -40 101 -66 115 -17 9 -24 5 -50 -37z m80 -54 c0 -10 -38 -18 -59
-12 -19 5 -19 6 -3 40 l17 35 22 -29 c13 -15 23 -31 23 -34z"/>
<path d="M2530 2075 c-7 -9 -10 -25 -6 -40 6 -22 11 -26 39 -23 25 2 33 8 35
26 7 44 -41 70 -68 37z"/>
<path d="M2418 1738 c-13 -18 -29 -46 -36 -62 -11 -25 -10 -30 5 -42 23 -17
104 -18 127 -1 13 9 16 20 12 34 -9 28 -64 103 -75 103 -5 0 -19 -15 -33 -32z
m40 -76 c-22 -2 -42 -1 -45 2 -3 3 5 19 17 36 l22 31 23 -33 23 -33 -40 -3z"/>
<path d="M3690 1738 c-85 -24 -150 -101 -163 -193 -3 -22 -19 -119 -36 -215
-16 -96 -41 -242 -55 -325 -32 -192 -40 -239 -71 -411 -32 -179 -32 -230 -2
-275 49 -74 -49 -69 1310 -69 1314 0 1244 -3 1293 52 29 31 48 93 39 126 -4
15 -11 52 -15 82 -5 30 -27 163 -50 295 -23 132 -45 265 -50 295 -13 86 -68
400 -78 450 -14 65 -26 91 -61 126 -58 59 -91 68 -254 72 -166 4 -200 0 -195
-26 3 -15 23 -18 173 -22 177 -5 191 -9 246 -60 32 -30 68 -175 72 -295 1 -33
7 -63 12 -67 21 -16 -21 -26 -107 -25 -65 0 -92 -3 -102 -14 -7 -8 -34 -61
-60 -118 -25 -58 -53 -115 -61 -128 -18 -26 -35 -30 -35 -8 0 8 -4 15 -10 15
-5 0 -10 -7 -10 -15 0 -8 -8 -15 -19 -15 -19 0 -61 -48 -82 -93 -6 -14 -20
-28 -31 -30 -11 -3 -17 -10 -14 -16 4 -5 -3 -27 -15 -48 -42 -76 -33 -73 -226
-73 -136 0 -180 3 -203 15 -17 9 -30 19 -30 24 0 5 -6 8 -12 7 -25 -2 -289
137 -284 149 3 8 -2 11 -15 8 -24 -7 -229 96 -229 114 0 7 7 21 16 30 8 10 35
48 60 86 52 77 54 66 -36 189 -33 44 -56 86 -53 94 3 8 -1 14 -11 14 -8 0 -23
12 -32 26 -15 22 -15 27 -3 35 11 7 12 11 1 18 -9 5 -14 35 -15 92 l-2 84 479
3 c487 2 523 5 495 38 -10 12 -133 14 -723 13 -438 0 -724 -5 -746 -11z m58
-46 c10 9 18 9 32 0 14 -9 20 -8 23 1 3 9 7 9 19 -1 9 -7 19 -9 22 -4 6 11 66
10 84 -1 6 -5 12 -4 12 1 0 13 173 10 183 -3 4 -6 10 -5 17 5 12 19 13 15 15
-107 l1 -101 42 -60 c23 -33 42 -66 42 -74 0 -7 9 -19 20 -26 11 -7 17 -18 14
-27 -4 -10 0 -15 15 -15 18 0 20 -4 15 -27 -6 -25 -5 -26 8 -15 13 10 17 10
22 -3 6 -17 -33 -93 -70 -138 -13 -16 -24 -33 -24 -38 0 -5 -10 -9 -21 -9 -16
0 -20 -5 -16 -20 3 -13 0 -20 -9 -20 -8 0 -19 -10 -24 -22 -19 -42 -57 -102
-69 -106 -6 -2 -11 -10 -11 -18 0 -16 7 -15 -197 -15 -134 1 -142 -1 -148 -20
-4 -12 -19 -22 -36 -26 -16 -3 -29 -12 -29 -20 0 -11 -22 -13 -117 -11 l-118
3 4 25 c1 14 6 27 10 30 3 3 7 34 8 68 1 35 6 69 11 75 5 7 9 36 10 65 1 29 7
63 14 75 7 12 11 33 9 47 -1 14 3 46 9 70 6 25 13 63 15 85 2 22 10 72 19 110
9 39 16 84 16 102 0 17 5 35 10 38 6 3 10 14 10 24 0 25 64 91 88 91 12 0 24
5 28 11 4 8 9 8 17 0 7 -7 15 -7 25 1z m1907 -493 c-5 -16 -3 -20 6 -17 8 3
13 12 11 22 -2 14 8 16 68 16 40 0 70 -4 70 -10 0 -5 -13 -10 -30 -10 -16 0
-30 -5 -30 -11 0 -7 9 -9 23 -6 31 8 41 -1 55 -56 9 -38 9 -51 -1 -67 -10 -17
-9 -22 3 -30 8 -5 20 -33 26 -62 11 -46 10 -54 -4 -64 -16 -12 -16 -13 1 -19
9 -4 17 -16 17 -26 0 -11 6 -28 12 -39 10 -15 10 -26 0 -52 -9 -25 -9 -34 1
-40 6 -4 12 -13 12 -20 1 -7 5 -30 9 -52 7 -29 5 -41 -5 -48 -11 -7 -10 -12 9
-25 29 -21 31 -73 2 -73 -11 0 -20 -4 -20 -10 0 -5 11 -10 24 -10 27 0 36 -21
36 -83 0 -27 -7 -45 -25 -62 -26 -26 -36 -28 -157 -27 -55 1 -78 -2 -78 -11 0
-8 -3 -9 -8 -1 -5 7 -142 10 -431 11 -396 0 -424 1 -434 18 -7 13 -5 26 7 47
15 25 16 29 2 34 -20 8 -20 43 -1 71 11 16 12 24 3 29 -8 5 -4 10 10 15 22 8
31 29 12 29 -12 0 -3 49 11 65 5 5 9 18 9 29 0 10 3 16 8 12 4 -4 7 -13 7 -18
0 -6 6 -13 14 -16 9 -3 11 1 6 17 -5 18 -2 21 21 21 22 0 25 -3 16 -12 -16
-16 -15 -28 3 -28 8 0 15 9 15 20 0 11 7 20 15 20 9 0 15 -7 13 -16 -2 -10 3
-19 11 -22 9 -3 11 1 6 17 -5 18 -2 21 21 21 21 0 24 -3 15 -13 -6 -8 -8 -17
-4 -20 12 -13 23 -7 23 13 0 11 7 20 16 20 11 0 14 -6 9 -21 -5 -16 -3 -20 6
-17 8 3 13 12 11 22 -2 11 4 16 18 16 14 0 20 -5 18 -16 -2 -10 3 -19 10 -21
7 -3 12 4 12 16 0 12 5 21 10 21 6 0 10 -9 10 -21 0 -12 5 -19 13 -16 6 2 11
11 9 19 -3 18 41 40 63 32 10 -4 15 0 15 10 0 9 -4 16 -10 16 -5 0 -10 5 -10
10 0 6 9 10 20 10 14 0 20 7 20 24 0 13 7 27 16 30 9 3 14 13 10 21 -3 9 3 19
15 25 11 6 17 15 14 19 -2 5 2 14 10 21 8 7 15 19 15 27 0 28 25 41 71 37 42
-4 45 -2 59 29 7 17 13 38 13 45 -1 6 3 12 8 12 9 0 42 66 43 85 1 6 7 14 14
18 6 4 12 17 12 27 0 10 10 26 22 34 12 9 17 16 10 16 -6 0 -12 5 -12 10 0 6
9 10 21 10 16 0 19 -4 14 -21z m-1119 -354 c159 -80 294 -151 301 -158 11 -12
6 -28 -39 -123 -5 -12 -11 -73 -13 -135 -1 -63 -3 -117 -4 -121 -2 -13 -1316
-10 -1344 3 -43 20 -58 67 -47 156 6 43 15 98 20 123 6 25 13 65 17 90 9 69
10 70 142 63 93 -5 120 -3 131 8 57 56 70 59 228 59 171 0 152 -9 238 106 31
41 62 74 69 74 7 0 143 -65 301 -145z"/>
<path d="M3730 1584 c0 -8 5 -12 10 -9 6 4 8 11 5 16 -9 14 -15 11 -15 -7z"/>
<path d="M3826 1591 c-4 -5 -2 -12 3 -15 5 -4 12 -2 15 3 4 5 2 12 -3 15 -5 4
-12 2 -15 -3z"/>
<path d="M3925 1591 c-3 -5 -1 -12 5 -16 5 -3 10 1 10 9 0 18 -6 21 -15 7z"/>
<path d="M3778 1583 c7 -3 16 -2 19 1 4 3 -2 6 -13 5 -11 0 -14 -3 -6 -6z"/>
<path d="M3978 1583 c7 -3 16 -2 19 1 4 3 -2 6 -13 5 -11 0 -14 -3 -6 -6z"/>
<path d="M4078 1583 c7 -3 16 -2 19 1 4 3 -2 6 -13 5 -11 0 -14 -3 -6 -6z"/>
<path d="M3711 1534 c0 -11 3 -14 6 -6 3 7 2 16 -1 19 -3 4 -6 -2 -5 -13z"/>
<path d="M3751 1534 c0 -11 3 -14 6 -6 3 7 2 16 -1 19 -3 4 -6 -2 -5 -13z"/>
<path d="M3811 1534 c0 -11 3 -14 6 -6 3 7 2 16 -1 19 -3 4 -6 -2 -5 -13z"/>
<path d="M4000 1530 c0 -5 5 -10 10 -10 6 0 10 5 10 10 0 6 -4 10 -10 10 -5 0
-10 -4 -10 -10z"/>
<path d="M3730 1490 c0 -5 5 -10 11 -10 5 0 7 5 4 10 -3 6 -8 10 -11 10 -2 0
-4 -4 -4 -10z"/>
<path d="M3780 1490 c-13 -8 -12 -10 3 -10 9 0 17 5 17 10 0 12 -1 12 -20 0z"/>
<path d="M3825 1490 c-3 -5 -1 -10 4 -10 6 0 11 5 11 10 0 6 -2 10 -4 10 -3 0
-8 -4 -11 -10z"/>
<path d="M3925 1490 c-3 -5 -1 -10 4 -10 6 0 11 5 11 10 0 6 -2 10 -4 10 -3 0
-8 -4 -11 -10z"/>
<path d="M4025 1490 c-3 -5 -1 -10 4 -10 6 0 11 5 11 10 0 6 -2 10 -4 10 -3 0
-8 -4 -11 -10z"/>
<path d="M3678 1483 c7 -3 16 -2 19 1 4 3 -2 6 -13 5 -11 0 -14 -3 -6 -6z"/>
<path d="M3830 1445 c-63 -35 -75 -93 -35 -169 30 -57 30 -56 2 -56 -26 0 -57
-28 -57 -52 0 -17 41 -48 63 -48 8 0 17 -10 21 -22 5 -18 8 -20 15 -9 5 8 16
11 30 6 12 -4 28 -2 36 5 10 9 16 7 24 -7 10 -17 10 -16 11 3 0 15 8 24 25 28
14 4 31 17 37 30 9 21 6 30 -22 64 -31 39 -33 62 -6 62 21 0 7 100 -18 132
-37 47 -79 58 -126 33z m70 -90 c0 -7 -6 -18 -14 -24 -20 -17 -44 13 -26 33
13 17 40 10 40 -9z m-57 -175 c7 -26 47 -26 70 0 14 16 21 18 37 10 24 -13 16
-39 -14 -41 -78 -6 -104 -5 -128 4 -32 10 -35 22 -10 36 26 16 39 13 45 -9z"/>
<path d="M3711 1434 c0 -11 3 -14 6 -6 3 7 2 16 -1 19 -3 4 -6 -2 -5 -13z"/>
<path d="M3685 1390 c-3 -5 -1 -10 4 -10 6 0 11 5 11 10 0 6 -2 10 -4 10 -3 0
-8 -4 -11 -10z"/>
<path d="M4020 1390 c0 -5 5 -10 10 -10 6 0 10 5 10 10 0 6 -4 10 -10 10 -5 0
-10 -4 -10 -10z"/>
<path d="M4120 1390 c0 -5 5 -10 11 -10 5 0 7 5 4 10 -3 6 -8 10 -11 10 -2 0
-4 -4 -4 -10z"/>
<path d="M3711 1334 c0 -11 3 -14 6 -6 3 7 2 16 -1 19 -3 4 -6 -2 -5 -13z"/>
<path d="M3630 1290 c0 -5 5 -10 11 -10 5 0 7 5 4 10 -3 6 -8 10 -11 10 -2 0
-4 -4 -4 -10z"/>
<path d="M3675 1290 c-3 -5 -2 -10 4 -10 5 0 13 5 16 10 3 6 2 10 -4 10 -5 0
-13 -4 -16 -10z"/>
<path d="M4020 1290 c0 -5 5 -10 10 -10 6 0 10 5 10 10 0 6 -4 10 -10 10 -5 0
-10 -4 -10 -10z"/>
<path d="M4075 1290 c-3 -5 -1 -10 4 -10 6 0 11 5 11 10 0 6 -2 10 -4 10 -3 0
-8 -4 -11 -10z"/>
<path d="M4120 1290 c0 -5 5 -10 10 -10 6 0 10 5 10 10 0 6 -4 10 -10 10 -5 0
-10 -4 -10 -10z"/>
<path d="M4220 1290 c0 -5 5 -10 11 -10 5 0 7 5 4 10 -3 6 -8 10 -11 10 -2 0
-4 -4 -4 -10z"/>
<path d="M3650 1240 c0 -5 5 -10 11 -10 5 0 7 5 4 10 -3 6 -8 10 -11 10 -2 0
-4 -4 -4 -10z"/>
<path d="M3711 1234 c0 -11 3 -14 6 -6 3 7 2 16 -1 19 -3 4 -6 -2 -5 -13z"/>
<path d="M3630 1189 c0 -5 5 -7 10 -4 6 3 10 8 10 11 0 2 -4 4 -10 4 -5 0 -10
-5 -10 -11z"/>
<path d="M3670 1196 c0 -2 7 -6 15 -10 8 -3 15 -1 15 4 0 6 -7 10 -15 10 -8 0
-15 -2 -15 -4z"/>
<path d="M4020 1190 c0 -5 5 -10 10 -10 6 0 10 5 10 10 0 6 -4 10 -10 10 -5 0
-10 -4 -10 -10z"/>
<path d="M4075 1190 c3 -5 8 -10 11 -10 2 0 4 5 4 10 0 6 -5 10 -11 10 -5 0
-7 -4 -4 -10z"/>
<path d="M4120 1190 c0 -5 5 -10 10 -10 6 0 10 5 10 10 0 6 -4 10 -10 10 -5 0
-10 -4 -10 -10z"/>
<path d="M4220 1189 c0 -5 5 -7 10 -4 6 3 10 8 10 11 0 2 -4 4 -10 4 -5 0 -10
-5 -10 -11z"/>
<path d="M3630 1089 c0 -5 5 -7 10 -4 6 3 10 8 10 11 0 2 -4 4 -10 4 -5 0 -10
-5 -10 -11z"/>
<path d="M3678 1093 c7 -3 16 -2 19 1 4 3 -2 6 -13 5 -11 0 -14 -3 -6 -6z"/>
<path d="M3730 1089 c0 -5 5 -7 10 -4 6 3 10 8 10 11 0 2 -4 4 -10 4 -5 0 -10
-5 -10 -11z"/>
<path d="M4120 1090 c0 -5 5 -10 10 -10 6 0 10 5 10 10 0 6 -4 10 -10 10 -5 0
-10 -4 -10 -10z"/>
<path d="M4175 1090 c4 -6 11 -8 16 -5 14 9 11 15 -7 15 -8 0 -12 -5 -9 -10z"/>
<path d="M4220 1089 c0 -5 5 -7 10 -4 6 3 10 8 10 11 0 2 -4 4 -10 4 -5 0 -10
-5 -10 -11z"/>
<path d="M3605 1040 c-3 -5 -1 -10 4 -10 6 0 11 5 11 10 0 6 -2 10 -4 10 -3 0
-8 -4 -11 -10z"/>
<path d="M3650 1040 c0 -5 5 -10 11 -10 5 0 7 5 4 10 -3 6 -8 10 -11 10 -2 0
-4 -4 -4 -10z"/>
<path d="M3850 1040 c0 -5 5 -10 11 -10 5 0 7 5 4 10 -3 6 -8 10 -11 10 -2 0
-4 -4 -4 -10z"/>
<path d="M3905 1040 c-3 -5 -1 -10 4 -10 6 0 11 5 11 10 0 6 -2 10 -4 10 -3 0
-8 -4 -11 -10z"/>
<path d="M4045 1040 c-3 -5 -1 -10 4 -10 6 0 11 5 11 10 0 6 -2 10 -4 10 -3 0
-8 -4 -11 -10z"/>
<path d="M4100 1040 c0 -5 5 -10 11 -10 5 0 7 5 4 10 -3 6 -8 10 -11 10 -2 0
-4 -4 -4 -10z"/>
<path d="M3730 994 c0 -8 5 -12 10 -9 6 4 8 11 5 16 -9 14 -15 11 -15 -7z"/>
<path d="M3826 1001 c-4 -5 -2 -12 3 -15 5 -4 12 -2 15 3 4 5 2 12 -3 15 -5 4
-12 2 -15 -3z"/>
<path d="M3630 989 c0 -5 5 -7 10 -4 6 3 10 8 10 11 0 2 -4 4 -10 4 -5 0 -10
-5 -10 -11z"/>
<path d="M3678 993 c7 -3 16 -2 19 1 4 3 -2 6 -13 5 -11 0 -14 -3 -6 -6z"/>
<path d="M3928 993 c7 -3 16 -2 19 1 4 3 -2 6 -13 5 -11 0 -14 -3 -6 -6z"/>
<path d="M3978 993 c7 -3 16 -2 19 1 4 3 -2 6 -13 5 -11 0 -14 -3 -6 -6z"/>
<path d="M4078 993 c7 -3 16 -2 19 1 4 3 -2 6 -13 5 -11 0 -14 -3 -6 -6z"/>
<path d="M3811 944 c0 -11 3 -14 6 -6 3 7 2 16 -1 19 -3 4 -6 -2 -5 -13z"/>
<path d="M3906 951 c-4 -7 -5 -15 -2 -18 9 -9 19 4 14 18 -4 11 -6 11 -12 0z"/>
<path d="M3650 940 c0 -5 5 -10 11 -10 5 0 7 5 4 10 -3 6 -8 10 -11 10 -2 0
-4 -4 -4 -10z"/>
<path d="M3950 940 c0 -5 5 -10 11 -10 5 0 7 5 4 10 -3 6 -8 10 -11 10 -2 0
-4 -4 -4 -10z"/>
<path d="M4000 940 c0 -5 5 -10 10 -10 6 0 10 5 10 10 0 6 -4 10 -10 10 -5 0
-10 -4 -10 -10z"/>
<path d="M4100 940 c0 -5 5 -10 10 -10 6 0 10 5 10 10 0 6 -4 10 -10 10 -5 0
-10 -4 -10 -10z"/>
<path d="M3630 894 c0 -8 5 -12 10 -9 6 4 8 11 5 16 -9 14 -15 11 -15 -7z"/>
<path d="M3730 894 c0 -8 5 -12 10 -9 6 4 8 11 5 16 -9 14 -15 11 -15 -7z"/>
<path d="M3825 901 c-3 -5 -1 -12 5 -16 5 -3 10 1 10 9 0 18 -6 21 -15 7z"/>
<path d="M3925 901 c-3 -5 -1 -12 5 -16 5 -3 10 1 10 9 0 18 -6 21 -15 7z"/>
<path d="M3578 893 c7 -3 16 -2 19 1 4 3 -2 6 -13 5 -11 0 -14 -3 -6 -6z"/>
<path d="M3678 893 c7 -3 16 -2 19 1 4 3 -2 6 -13 5 -11 0 -14 -3 -6 -6z"/>
<path d="M3611 844 c0 -11 3 -14 6 -6 3 7 2 16 -1 19 -3 4 -6 -2 -5 -13z"/>
<path d="M3550 840 c0 -5 5 -10 11 -10 5 0 7 5 4 10 -3 6 -8 10 -11 10 -2 0
-4 -4 -4 -10z"/>
<path d="M3650 840 c0 -5 5 -10 10 -10 6 0 10 5 10 10 0 6 -4 10 -10 10 -5 0
-10 -4 -10 -10z"/>
<path d="M5700 1185 c0 -9 6 -12 15 -9 8 4 15 10 15 15 0 5 -7 9 -15 9 -8 0
-15 -7 -15 -15z"/>
<path d="M5635 1150 c-4 -6 -3 -16 3 -22 13 -13 23 4 13 21 -7 10 -10 10 -16
1z"/>
<path d="M5675 1150 c-4 -6 -3 -16 3 -22 6 -6 12 -6 17 2 4 6 3 16 -3 22 -6 6
-12 6 -17 -2z"/>
<path d="M5727 1146 c-3 -8 1 -17 9 -20 9 -4 14 1 14 14 0 23 -15 27 -23 6z"/>
<path d="M5774 1149 c-3 -6 -1 -16 5 -22 8 -8 11 -5 11 11 0 24 -5 28 -16 11z"/>
<path d="M5655 1099 c-4 -6 -3 -15 3 -21 6 -6 11 -4 15 6 7 18 -9 31 -18 15z"/>
<path d="M5755 1099 c-10 -15 3 -25 16 -12 7 7 7 13 1 17 -6 3 -14 1 -17 -5z"/>
<path d="M5595 1090 c3 -5 13 -10 21 -10 8 0 14 5 14 10 0 6 -9 10 -21 10 -11
0 -17 -4 -14 -10z"/>
<path d="M5695 1090 c3 -5 12 -10 20 -10 8 0 17 5 20 10 4 6 -5 10 -20 10 -15
0 -24 -4 -20 -10z"/>
<path d="M5790 1091 c0 -18 18 -21 30 -6 10 13 9 15 -9 15 -11 0 -21 -4 -21
-9z"/>
<path d="M5577 1046 c-3 -8 -2 -18 3 -21 13 -8 24 15 12 27 -6 6 -11 4 -15 -6z"/>
<path d="M5627 1045 c-16 -12 -16 -13 3 -18 22 -6 32 3 22 20 -5 8 -12 8 -25
-2z"/>
<path d="M5675 1050 c-4 -6 -3 -16 3 -22 6 -6 12 -6 17 2 4 6 3 16 -3 22 -6 6
-12 6 -17 -2z"/>
<path d="M5727 1046 c-17 -13 -16 -14 3 -19 15 -4 20 0 20 14 0 22 0 22 -23 5z"/>
<path d="M5775 1050 c-4 -6 -3 -16 3 -22 13 -13 23 4 13 21 -7 10 -10 10 -16
1z"/>
<path d="M5555 1000 c-4 -6 -3 -16 3 -22 6 -6 12 -6 17 2 4 6 3 16 -3 22 -6 6
-12 6 -17 -2z"/>
<path d="M5594 999 c-8 -13 25 -24 37 -12 7 7 3 12 -10 16 -12 3 -24 1 -27 -4z"/>
<path d="M5650 995 c0 -9 5 -15 11 -13 6 2 11 8 11 13 0 5 -5 11 -11 13 -6 2
-11 -4 -11 -13z"/>
<path d="M5750 995 c0 -9 5 -15 11 -13 6 2 11 8 11 13 0 5 -5 11 -11 13 -6 2
-11 -4 -11 -13z"/>
<path d="M5796 1003 c-3 -3 -3 -10 0 -14 7 -12 34 -11 34 0 0 11 -26 22 -34
14z"/>
<path d="M5695 990 c3 -5 13 -10 21 -10 8 0 14 5 14 10 0 6 -9 10 -21 10 -11
0 -17 -4 -14 -10z"/>
<path d="M5530 945 c-10 -13 -9 -15 8 -15 15 0 20 5 16 15 -4 8 -7 15 -9 15
-1 0 -8 -7 -15 -15z"/>
<path d="M5576 945 c-4 -11 1 -15 21 -15 14 0 24 1 22 3 -2 1 -11 8 -20 15
-14 10 -18 10 -23 -3z"/>
<path d="M5630 946 c0 -17 14 -29 23 -20 8 8 -3 34 -14 34 -5 0 -9 -6 -9 -14z"/>
<path d="M5676 953 c-11 -11 -6 -23 9 -23 8 0 15 4 15 9 0 13 -16 22 -24 14z"/>
<path d="M5730 945 c-10 -12 -10 -15 4 -15 9 0 16 7 16 15 0 8 -2 15 -4 15 -2
0 -9 -7 -16 -15z"/>
<path d="M5770 945 c0 -8 7 -15 15 -15 9 0 12 6 9 15 -4 8 -10 15 -15 15 -5 0
-9 -7 -9 -15z"/>
<path d="M5820 940 c0 -5 7 -10 15 -10 8 0 15 5 15 10 0 6 -7 10 -15 10 -8 0
-15 -4 -15 -10z"/>
<path d="M5400 895 c0 -10 7 -15 18 -13 21 4 19 22 -2 26 -10 2 -16 -3 -16
-13z"/>
<path d="M5457 904 c-8 -8 1 -24 14 -24 5 0 9 7 9 15 0 15 -12 20 -23 9z"/>
<path d="M5495 901 c-8 -14 10 -22 30 -15 13 5 14 8 3 15 -17 11 -26 11 -33 0z"/>
<path d="M5550 895 c0 -8 7 -15 15 -15 8 0 15 7 15 15 0 8 -7 15 -15 15 -8 0
-15 -7 -15 -15z"/>
<path d="M5595 900 c-8 -13 20 -24 36 -15 8 6 7 10 -2 16 -18 11 -26 11 -34
-1z"/>
<path d="M5650 895 c0 -9 5 -15 11 -13 6 2 11 8 11 13 0 5 -5 11 -11 13 -6 2
-11 -4 -11 -13z"/>
<path d="M5695 901 c-8 -14 10 -22 30 -15 13 5 14 8 3 15 -17 11 -26 11 -33 0z"/>
<path d="M5750 895 c0 -9 5 -15 11 -13 6 2 11 8 11 13 0 5 -5 11 -11 13 -6 2
-11 -4 -11 -13z"/>
<path d="M5795 900 c-3 -6 1 -13 10 -16 19 -8 30 0 20 15 -8 14 -22 14 -30 1z"/>
<path d="M5380 845 c0 -8 5 -15 10 -15 6 0 10 7 10 15 0 8 -4 15 -10 15 -5 0
-10 -7 -10 -15z"/>
<path d="M5433 853 c-20 -7 -15 -23 7 -23 11 0 20 4 20 9 0 13 -12 19 -27 14z"/>
<path d="M5480 846 c0 -9 5 -16 10 -16 6 0 10 4 10 9 0 6 -4 13 -10 16 -5 3
-10 -1 -10 -9z"/>
<path d="M5526 845 c-4 -10 1 -15 14 -15 13 0 18 5 14 15 -4 8 -10 15 -14 15
-4 0 -10 -7 -14 -15z"/>
<path d="M5577 853 c-12 -11 -8 -23 8 -23 8 0 15 7 15 15 0 16 -12 20 -23 8z"/>
<path d="M5627 853 c-12 -11 -8 -23 8 -23 8 0 15 7 15 15 0 16 -12 20 -23 8z"/>
<path d="M5676 853 c-11 -11 -6 -23 9 -23 8 0 15 4 15 9 0 13 -16 22 -24 14z"/>
<path d="M5730 845 c0 -8 5 -15 10 -15 6 0 10 7 10 15 0 8 -4 15 -10 15 -5 0
-10 -7 -10 -15z"/>
<path d="M5770 846 c0 -9 7 -16 16 -16 9 0 14 5 12 12 -6 18 -28 21 -28 4z"/>
<path d="M5826 853 c-11 -11 -6 -23 9 -23 8 0 15 4 15 9 0 13 -16 22 -24 14z"/>
<path d="M5357 804 c-8 -8 1 -24 14 -24 5 0 9 7 9 15 0 15 -12 20 -23 9z"/>
<path d="M5400 795 c0 -17 2 -18 24 -9 18 7 12 24 -10 24 -8 0 -14 -7 -14 -15z"/>
<path d="M5452 799 c2 -6 8 -10 13 -10 5 0 11 4 13 10 2 6 -4 11 -13 11 -9 0
-15 -5 -13 -11z"/>
<path d="M5499 803 c-1 -5 -1 -11 0 -16 1 -4 -15 -21 -34 -38 -33 -30 -63 -98
-50 -119 3 -5 1 -11 -5 -15 -16 -10 -12 -28 5 -22 8 4 17 1 21 -4 7 -12 -15
-60 -33 -72 -29 -18 1 -87 38 -87 11 0 17 -4 14 -10 -3 -5 -2 -18 4 -27 9 -17
10 -17 16 0 6 14 10 15 21 6 8 -6 21 -8 30 -5 9 4 23 1 30 -5 11 -9 14 -8 14
5 0 10 17 24 44 36 48 20 66 51 44 77 -7 9 -12 24 -10 35 4 20 -8 24 -25 7 -6
-6 -16 -10 -22 -8 -7 3 -1 23 14 53 35 68 32 97 -11 140 -26 26 -34 41 -29 56
5 14 2 20 -10 20 -12 0 -15 -6 -10 -20 5 -15 2 -20 -10 -20 -9 0 -19 9 -22 20
-5 19 -22 28 -24 13z m49 -136 c4 -20 -25 -34 -39 -20 -14 14 1 45 20 41 9 -2
17 -11 19 -21z m-58 -181 c0 -8 8 -17 18 -19 12 -3 11 -5 -6 -6 -13 0 -33 4
-44 10 -17 9 -18 13 -7 20 21 13 39 11 39 -5z m110 4 c19 -12 11 -18 -29 -26
-33 -7 -33 -7 -15 15 21 24 23 24 44 11z"/>
<path d="M5595 801 c-3 -5 -1 -12 5 -16 12 -7 30 2 30 16 0 12 -27 12 -35 0z"/>
<path d="M5650 796 c0 -8 4 -17 9 -20 10 -7 23 19 14 28 -11 11 -23 6 -23 -8z"/>
<path d="M5695 801 c-3 -5 -1 -12 5 -16 12 -7 30 2 30 16 0 12 -27 12 -35 0z"/>
<path d="M5750 795 c0 -8 5 -15 10 -15 6 0 10 7 10 15 0 8 -4 15 -10 15 -5 0
-10 -7 -10 -15z"/>
<path d="M5797 804 c-4 -4 -4 -10 -1 -15 6 -10 34 0 34 12 0 10 -24 12 -33 3z"/>
<path d="M5850 795 c0 -8 5 -15 10 -15 6 0 10 7 10 15 0 8 -4 15 -10 15 -5 0
-10 -7 -10 -15z"/>
<path d="M5327 755 c-4 -9 -1 -18 9 -22 22 -8 30 5 12 23 -14 14 -16 14 -21
-1z"/>
<path d="M5632 758 c-16 -16 -15 -28 3 -28 8 0 15 9 15 20 0 23 -2 24 -18 8z"/>
<path d="M5380 745 c0 -8 5 -15 10 -15 6 0 10 7 10 15 0 8 -4 15 -10 15 -5 0
-10 -7 -10 -15z"/>
<path d="M5676 752 c-3 -6 -1 -14 5 -17 15 -10 25 3 12 16 -7 7 -13 7 -17 1z"/>
<path d="M5722 753 c-15 -6 -6 -23 14 -23 8 0 14 7 14 15 0 15 -6 17 -28 8z"/>
<path d="M5776 753 c-11 -11 -6 -23 9 -23 8 0 15 4 15 9 0 13 -16 22 -24 14z"/>
<path d="M5827 753 c-12 -11 -8 -23 8 -23 8 0 15 7 15 15 0 16 -12 20 -23 8z"/>
<path d="M5300 700 c0 -5 7 -10 15 -10 8 0 15 5 15 10 0 6 -7 10 -15 10 -8 0
-15 -4 -15 -10z"/>
<path d="M5352 699 c2 -6 8 -10 13 -10 5 0 11 4 13 10 2 6 -4 11 -13 11 -9 0
-15 -5 -13 -11z"/>
<path d="M5652 699 c2 -6 8 -10 13 -10 5 0 11 4 13 10 2 6 -4 11 -13 11 -9 0
-15 -5 -13 -11z"/>
<path d="M5693 698 c2 -7 10 -13 17 -13 7 0 15 6 18 13 2 7 -5 12 -18 12 -13
0 -20 -5 -17 -12z"/>
<path d="M5750 695 c0 -8 5 -15 10 -15 6 0 10 7 10 15 0 8 -4 15 -10 15 -5 0
-10 -7 -10 -15z"/>
<path d="M5790 702 c0 -14 11 -21 26 -15 21 8 17 23 -6 23 -11 0 -20 -4 -20
-8z"/>
<path d="M5850 701 c0 -6 5 -13 10 -16 6 -3 10 1 10 9 0 9 -4 16 -10 16 -5 0
-10 -4 -10 -9z"/>
<path d="M5232 653 c-15 -6 -6 -23 14 -23 8 0 14 7 14 15 0 15 -6 17 -28 8z"/>
<path d="M5280 645 c0 -8 5 -15 10 -15 6 0 10 7 10 15 0 8 -4 15 -10 15 -5 0
-10 -7 -10 -15z"/>
<path d="M5325 650 c-3 -6 1 -13 10 -16 19 -8 30 0 20 15 -8 14 -22 14 -30 1z"/>
<path d="M5380 645 c0 -8 5 -15 10 -15 6 0 10 7 10 15 0 8 -4 15 -10 15 -5 0
-10 -7 -10 -15z"/>
<path d="M5670 645 c0 -9 5 -15 11 -13 6 2 11 8 11 13 0 5 -5 11 -11 13 -6 2
-11 -4 -11 -13z"/>
<path d="M5725 651 c-7 -12 12 -24 25 -16 11 7 4 25 -10 25 -5 0 -11 -4 -15
-9z"/>
<path d="M5776 653 c-11 -11 -6 -23 9 -23 8 0 15 4 15 9 0 13 -16 22 -24 14z"/>
<path d="M5827 654 c-8 -8 1 -24 14 -24 5 0 9 7 9 15 0 15 -12 20 -23 9z"/>
<path d="M5870 645 c0 -8 5 -15 10 -15 6 0 10 7 10 15 0 8 -4 15 -10 15 -5 0
-10 -7 -10 -15z"/>
<path d="M4860 601 c0 -17 18 -21 24 -6 3 9 0 15 -9 15 -8 0 -15 -4 -15 -9z"/>
<path d="M4906 595 c4 -8 7 -15 9 -15 1 0 8 7 15 15 10 13 9 15 -8 15 -15 0
-20 -5 -16 -15z"/>
<path d="M4962 599 c2 -6 8 -10 13 -10 5 0 11 4 13 10 2 6 -4 11 -13 11 -9 0
-15 -5 -13 -11z"/>
<path d="M5002 598 c6 -18 25 -20 31 -3 5 10 0 15 -14 15 -12 0 -19 -5 -17
-12z"/>
<path d="M5060 595 c0 -8 4 -15 9 -15 5 0 11 7 15 15 3 9 0 15 -9 15 -8 0 -15
-7 -15 -15z"/>
<path d="M5100 602 c0 -14 11 -21 26 -15 21 8 17 23 -6 23 -11 0 -20 -4 -20
-8z"/>
<path d="M5160 595 c0 -8 5 -15 10 -15 6 0 10 7 10 15 0 8 -4 15 -10 15 -5 0
-10 -7 -10 -15z"/>
<path d="M5202 598 c5 -15 28 -18 29 -3 0 6 -7 12 -17 13 -10 3 -15 -1 -12
-10z"/>
<path d="M5260 595 c0 -8 5 -15 10 -15 6 0 10 7 10 15 0 8 -4 15 -10 15 -5 0
-10 -7 -10 -15z"/>
<path d="M5302 599 c2 -6 8 -10 13 -10 5 0 11 4 13 10 2 6 -4 11 -13 11 -9 0
-15 -5 -13 -11z"/>
<path d="M5356 595 c4 -8 10 -12 15 -9 14 8 10 24 -6 24 -9 0 -12 -6 -9 -15z"/>
<path d="M5650 595 c0 -8 5 -15 10 -15 6 0 10 7 10 15 0 8 -4 15 -10 15 -5 0
-10 -7 -10 -15z"/>
<path d="M5696 596 c3 -8 12 -12 20 -9 21 8 17 23 -6 23 -13 0 -18 -5 -14 -14z"/>
<path d="M5750 595 c0 -8 5 -15 10 -15 6 0 10 7 10 15 0 8 -4 15 -10 15 -5 0
-10 -7 -10 -15z"/>
<path d="M5793 598 c2 -7 10 -13 17 -13 7 0 15 6 18 13 2 7 -5 12 -18 12 -13
0 -20 -5 -17 -12z"/>
<path d="M5850 595 c0 -8 5 -15 10 -15 6 0 10 7 10 15 0 8 -4 15 -10 15 -5 0
-10 -7 -10 -15z"/>
<path d="M4885 551 c-6 -11 9 -23 19 -14 9 9 7 23 -3 23 -6 0 -12 -4 -16 -9z"/>
<path d="M4930 545 c0 -10 7 -15 18 -13 21 4 19 22 -2 26 -10 2 -16 -3 -16
-13z"/>
<path d="M4985 551 c-6 -11 9 -23 19 -14 9 9 7 23 -3 23 -6 0 -12 -4 -16 -9z"/>
<path d="M5035 551 c-7 -12 12 -24 25 -16 11 7 4 25 -10 25 -5 0 -11 -4 -15
-9z"/>
<path d="M5080 545 c0 -9 5 -15 11 -13 6 2 11 8 11 13 0 5 -5 11 -11 13 -6 2
-11 -4 -11 -13z"/>
<path d="M5132 553 c-15 -6 -6 -23 14 -23 8 0 14 7 14 15 0 15 -6 17 -28 8z"/>
<path d="M5180 545 c0 -9 5 -15 11 -13 6 2 11 8 11 13 0 5 -5 11 -11 13 -6 2
-11 -4 -11 -13z"/>
<path d="M5232 548 c6 -18 28 -21 28 -4 0 9 -7 16 -16 16 -9 0 -14 -5 -12 -12z"/>
<path d="M5280 545 c0 -8 5 -15 10 -15 6 0 10 7 10 15 0 8 -4 15 -10 15 -5 0
-10 -7 -10 -15z"/>
<path d="M5326 551 c-3 -5 1 -12 10 -15 20 -8 29 -1 19 13 -8 13 -22 14 -29 2z"/>
<path d="M5377 554 c-8 -8 1 -24 14 -24 5 0 9 7 9 15 0 15 -12 20 -23 9z"/>
<path d="M5676 552 c-3 -6 -1 -14 5 -17 15 -10 25 3 12 16 -7 7 -13 7 -17 1z"/>
<path d="M5722 551 c-11 -7 -10 -10 3 -15 23 -9 25 -8 25 9 0 17 -9 19 -28 6z"/>
<path d="M5770 545 c0 -9 5 -15 11 -13 6 2 11 8 11 13 0 5 -5 11 -11 13 -6 2
-11 -4 -11 -13z"/>
<path d="M5827 554 c-8 -8 1 -24 14 -24 5 0 9 7 9 15 0 15 -12 20 -23 9z"/>
<path d="M5870 545 c0 -9 5 -15 11 -13 6 2 11 8 11 13 0 5 -5 11 -11 13 -6 2
-11 -4 -11 -13z"/>
<path d="M4906 511 c-3 -4 -2 -12 2 -18 5 -8 12 -8 25 2 16 12 16 13 -3 18
-11 3 -22 2 -24 -2z"/>
<path d="M5065 509 c-4 -6 -3 -15 3 -21 6 -6 11 -4 15 6 7 18 -9 31 -18 15z"/>
<path d="M5104 509 c-11 -18 11 -32 25 -16 9 12 8 16 -3 20 -9 4 -18 1 -22 -4z"/>
<path d="M5360 500 c0 -11 5 -20 10 -20 6 0 10 9 10 20 0 11 -4 20 -10 20 -5
0 -10 -9 -10 -20z"/>
<path d="M5755 509 c-4 -6 -3 -15 3 -21 6 -6 11 -4 15 6 7 18 -9 31 -18 15z"/>
<path d="M4862 499 c2 -6 8 -10 13 -10 5 0 11 4 13 10 2 6 -4 11 -13 11 -9 0
-15 -5 -13 -11z"/>
<path d="M4962 499 c2 -6 8 -10 13 -10 5 0 11 4 13 10 2 6 -4 11 -13 11 -9 0
-15 -5 -13 -11z"/>
<path d="M5006 496 c3 -8 12 -12 20 -9 21 8 17 23 -6 23 -13 0 -18 -5 -14 -14z"/>
<path d="M5160 495 c0 -8 5 -15 10 -15 6 0 10 7 10 15 0 8 -4 15 -10 15 -5 0
-10 -7 -10 -15z"/>
<path d="M5200 501 c0 -18 18 -21 30 -6 10 13 9 15 -9 15 -11 0 -21 -4 -21 -9z"/>
<path d="M5255 500 c3 -5 10 -10 16 -10 5 0 9 5 9 10 0 6 -7 10 -16 10 -8 0
-12 -4 -9 -10z"/>
<path d="M5300 500 c0 -5 7 -10 15 -10 8 0 15 5 15 10 0 6 -7 10 -15 10 -8 0
-15 -4 -15 -10z"/>
<path d="M5697 495 c6 -17 25 -15 31 3 2 7 -5 12 -17 12 -14 0 -19 -5 -14 -15z"/>
<path d="M5793 498 c2 -7 10 -13 17 -13 7 0 15 6 18 13 2 7 -5 12 -18 12 -13
0 -20 -5 -17 -12z"/>
<path d="M5850 495 c0 -8 5 -15 10 -15 6 0 10 7 10 15 0 8 -4 15 -10 15 -5 0
-10 -7 -10 -15z"/>
<path d="M4826 454 c-4 -9 1 -14 14 -14 23 0 27 15 6 23 -8 3 -17 -1 -20 -9z"/>
<path d="M4885 460 c-4 -6 -3 -16 3 -22 6 -6 12 -6 17 2 4 6 3 16 -3 22 -6 6
-12 6 -17 -2z"/>
<path d="M4987 456 c-3 -8 -2 -18 3 -21 13 -8 20 9 11 24 -6 10 -10 9 -14 -3z"/>
<path d="M5085 460 c-4 -6 -3 -16 3 -22 13 -13 23 4 13 21 -7 10 -10 10 -16 1z"/>
<path d="M5184 457 c-8 -21 2 -35 16 -21 5 5 6 15 0 24 -8 12 -10 12 -16 -3z"/>
<path d="M5280 450 c0 -11 5 -20 10 -20 6 0 10 9 10 20 0 11 -4 20 -10 20 -5
0 -10 -9 -10 -20z"/>
<path d="M5674 457 c-8 -21 2 -35 16 -21 5 5 6 15 0 24 -8 12 -10 12 -16 -3z"/>
<path d="M5875 457 c-4 -10 -5 -21 -1 -24 10 -10 18 4 13 24 -4 17 -4 17 -12
0z"/>
<path d="M4930 445 c0 -10 7 -15 18 -13 21 4 19 22 -2 26 -10 2 -16 -3 -16
-13z"/>
<path d="M5036 451 c-3 -5 1 -11 9 -15 15 -6 29 7 18 18 -9 9 -21 8 -27 -3z"/>
<path d="M5130 450 c-12 -8 -11 -10 8 -10 12 0 22 5 22 10 0 13 -11 13 -30 0z"/>
<path d="M5226 451 c-3 -5 0 -11 8 -14 15 -6 26 1 26 15 0 11 -27 10 -34 -1z"/>
<path d="M5325 451 c-3 -5 -1 -12 5 -16 12 -7 30 2 30 16 0 12 -27 12 -35 0z"/>
<path d="M5722 451 c-11 -7 -10 -10 3 -15 23 -9 25 -8 25 9 0 17 -9 19 -28 6z"/>
<path d="M5770 445 c0 -9 5 -15 11 -13 6 2 11 8 11 13 0 5 -5 11 -11 13 -6 2
-11 -4 -11 -13z"/>
<path d="M5827 454 c-8 -8 1 -24 14 -24 5 0 9 7 9 15 0 15 -12 20 -23 9z"/>
<path d="M4862 411 c-10 -6 -10 -10 2 -20 10 -9 16 -9 21 -1 10 16 -7 31 -23
21z"/>
<path d="M4910 400 c0 -19 3 -21 12 -12 9 9 9 15 0 24 -9 9 -12 7 -12 -12z"/>
<path d="M4965 410 c-4 -6 -3 -16 3 -22 6 -6 12 -6 17 2 4 6 3 16 -3 22 -6 6
-12 6 -17 -2z"/>
<path d="M5043 412 c-21 -2 -33 -9 -33 -18 0 -11 4 -12 19 -2 15 9 23 9 34 0
12 -10 16 -9 20 2 8 19 0 22 -40 18z"/>
<path d="M5162 411 c-10 -6 -10 -10 1 -20 12 -9 16 -8 20 3 7 19 -4 27 -21 17z"/>
<path d="M5256 411 c-3 -5 1 -14 9 -21 12 -10 15 -10 15 3 0 19 -16 31 -24 18z"/>
<path d="M5305 409 c-10 -15 3 -25 16 -12 7 7 7 13 1 17 -6 3 -14 1 -17 -5z"/>
<path d="M5357 413 c-3 -5 -2 -15 2 -22 7 -10 10 -10 16 -1 4 6 3 16 -3 22 -5
5 -12 6 -15 1z"/>
<path d="M5600 400 c0 -18 3 -19 20 -8 14 9 16 14 7 20 -20 13 -27 9 -27 -12z"/>
<path d="M5655 409 c-4 -6 -3 -15 3 -21 6 -6 11 -4 15 6 7 18 -9 31 -18 15z"/>
<path d="M5755 409 c-4 -6 -3 -15 3 -21 6 -6 11 -4 15 6 7 18 -9 31 -18 15z"/>
<path d="M5106 395 c4 -8 7 -15 9 -15 1 0 8 7 15 15 10 13 9 15 -8 15 -15 0
-20 -5 -16 -15z"/>
<path d="M5200 400 c0 -5 6 -10 14 -10 8 0 18 5 21 10 3 6 -3 10 -14 10 -12 0
-21 -4 -21 -10z"/>
<path d="M5400 401 c0 -18 18 -21 30 -6 10 13 9 15 -9 15 -11 0 -21 -4 -21 -9z"/>
<path d="M5697 395 c6 -17 25 -15 31 3 2 7 -5 12 -17 12 -14 0 -19 -5 -14 -15z"/>
<path d="M5797 395 c6 -17 25 -15 31 3 2 7 -5 12 -17 12 -14 0 -19 -5 -14 -15z"/>
<path d="M5850 401 c0 -17 18 -21 24 -6 3 9 0 15 -9 15 -8 0 -15 -4 -15 -9z"/>
<path d="M5892 398 c6 -18 28 -21 28 -4 0 9 -7 16 -16 16 -9 0 -14 -5 -12 -12z"/>
<path d="M4886 354 c-8 -22 1 -31 16 -16 9 9 9 15 1 23 -7 7 -12 5 -17 -7z"/>
<path d="M5085 360 c-4 -6 -3 -16 3 -22 13 -13 23 4 13 21 -7 10 -10 10 -16 1z"/>
<path d="M5776 363 c-17 -18 -3 -29 37 -28 42 1 56 20 14 20 -12 0 -27 3 -33
7 -6 4 -14 5 -18 1z"/>
<path d="M4825 351 c-3 -5 -1 -12 4 -15 13 -8 42 4 35 15 -7 12 -31 12 -39 0z"/>
<path d="M4930 345 c0 -10 7 -15 18 -13 21 4 19 22 -2 26 -10 2 -16 -3 -16
-13z"/>
<path d="M4982 348 c6 -18 28 -21 28 -4 0 9 -7 16 -16 16 -9 0 -14 -5 -12 -12z"/>
<path d="M5026 351 c-7 -11 22 -23 35 -15 5 3 7 10 4 15 -8 12 -32 12 -39 0z"/>
<path d="M5125 350 c-3 -5 -4 -10 -1 -10 2 0 11 -3 20 -6 11 -4 16 -1 16 10 0
18 -25 22 -35 6z"/>
<path d="M5180 345 c0 -9 5 -15 11 -13 6 2 11 8 11 13 0 5 -5 11 -11 13 -6 2
-11 -4 -11 -13z"/>
<path d="M5224 349 c-3 -5 -2 -9 3 -10 4 0 23 -2 41 -3 20 -2 32 1 32 8 0 14
-67 18 -76 5z"/>
<path d="M5322 348 c5 -15 28 -18 29 -3 0 6 -7 12 -17 13 -10 3 -15 -1 -12
-10z"/>
<path d="M5380 345 c0 -6 18 -11 40 -11 26 -1 40 3 40 11 0 8 -14 12 -40 11
-22 0 -40 -5 -40 -11z"/>
<path d="M5475 351 c-8 -14 10 -22 30 -15 13 5 14 8 3 15 -17 11 -26 11 -33 0z"/>
<path d="M5530 350 c0 -5 7 -10 16 -10 8 0 12 5 9 10 -3 6 -10 10 -16 10 -5 0
-9 -4 -9 -10z"/>
<path d="M5573 347 c4 -13 76 -15 79 -2 2 6 -16 11 -40 12 -27 1 -42 -3 -39
-10z"/>
<path d="M5672 349 c2 -6 8 -10 13 -10 5 0 11 4 13 10 2 6 -4 11 -13 11 -9 0
-15 -5 -13 -11z"/>
<path d="M5722 351 c-11 -7 -10 -10 3 -15 23 -9 25 -8 25 9 0 17 -9 19 -28 6z"/>
<path d="M5870 345 c0 -9 5 -15 11 -13 6 2 11 8 11 13 0 5 -5 11 -11 13 -6 2
-11 -4 -11 -13z"/>
<path d="M4189 809 c-88 -51 -91 -118 -13 -269 54 -106 70 -125 97 -114 21 8
127 235 127 270 0 34 -46 100 -83 121 -33 19 -88 15 -128 -8z m107 -104 c11
-43 -34 -73 -64 -43 -13 13 -16 50 -5 61 3 4 19 7 34 7 22 0 30 -6 35 -25z"/>
<path d="M4340 495 c7 -8 24 -21 39 -28 101 -48 -123 -109 -233 -63 -42 18
-46 44 -8 61 24 11 30 35 8 35 -7 0 -25 -10 -40 -21 -40 -31 -32 -68 19 -94
55 -28 202 -28 263 -1 65 30 66 78 1 110 -43 21 -66 22 -49 1z"/>
<path d="M5216 1734 c-4 -10 -1 -21 6 -26 19 -11 33 -4 33 18 0 24 -30 30 -39
8z"/>
<path d="M1084 1712 c-20 -12 -54 -81 -54 -107 0 -24 2 -25 70 -25 69 0 70 0
70 27 0 31 -46 113 -63 113 -7 0 -17 -4 -23 -8z m45 -68 c15 -34 15 -34 -22
-34 -44 0 -48 5 -30 40 16 33 35 31 52 -6z"/>
<path d="M1626 1667 c-29 -21 -17 -61 18 -65 43 -5 61 32 30 62 -19 19 -25 20
-48 3z"/>
<path d="M4388 1583 c7 -3 16 -2 19 1 4 3 -2 6 -13 5 -11 0 -14 -3 -6 -6z"/>
<path d="M4835 1526 c-78 -34 -125 -102 -125 -180 0 -44 24 -121 44 -146 7 -8
34 -59 60 -113 79 -160 110 -156 189 23 7 14 22 42 34 62 34 56 63 139 63 181
0 44 -24 97 -45 97 -7 0 -15 10 -17 22 -7 51 -134 84 -203 54z m162 -98 c-3
-8 -6 -5 -6 6 -1 11 2 17 5 13 3 -3 4 -12 1 -19z m-47 -38 c11 -11 20 -29 20
-40 0 -24 -42 -70 -63 -70 -24 0 -67 40 -67 64 0 59 68 88 110 46z"/>
<path d="M4725 1065 c-47 -20 -79 -59 -71 -89 13 -50 89 -84 211 -93 134 -9
253 24 284 79 13 23 13 29 -2 52 -18 26 -84 66 -112 66 -28 0 -16 -30 14 -36
37 -8 76 -47 67 -69 -3 -9 -27 -26 -53 -37 -94 -42 -278 -33 -346 16 -39 28
-32 55 21 81 33 17 40 24 30 32 -9 7 -22 6 -43 -2z"/>
<path d="M4455 990 c3 -5 8 -10 11 -10 2 0 4 5 4 10 0 6 -5 10 -11 10 -5 0 -7
-4 -4 -10z"/>
</g>
</svg>
