<?xml version="1.0" standalone="no"?>
<!DOCTYPE svg PUBLIC "-//W3C//DTD SVG 20010904//EN"
 "http://www.w3.org/TR/2001/REC-SVG-20010904/DTD/svg10.dtd">
<svg version="1.0" xmlns="http://www.w3.org/2000/svg"
 width="318.000000pt" height="298.000000pt" viewBox="0 0 318.000000 298.000000"
 preserveAspectRatio="xMidYMid meet">

<g transform="translate(0.000000,298.000000) scale(0.100000,-0.100000)"
fill="#000000" stroke="none">
<path d="M1375 2854 c-262 -46 -523 -177 -716 -362 -215 -204 -363 -479 -416
-775 -21 -122 -21 -342 0 -464 78 -433 355 -811 737 -1003 211 -106 378 -145
630 -145 195 0 287 14 443 67 209 70 375 173 532 332 124 125 193 220 264 363
103 205 144 382 144 618 0 173 -19 293 -69 444 -85 254 -266 504 -482 666
-167 125 -400 225 -601 259 -117 20 -355 20 -466 0z m-513 -421 c27 -14 48
-32 48 -40 0 -20 -82 -306 -90 -316 -10 -11 -150 60 -150 76 0 11 74 286 85
314 5 15 34 6 107 -34z m163 -80 c30 -15 55 -34 55 -42 0 -15 -89 -323 -95
-330 -9 -8 -136 72 -132 83 3 7 24 80 48 164 27 96 47 152 56 152 7 0 37 -12
68 -27z m165 -83 c33 -17 60 -37 60 -44 0 -21 -90 -309 -100 -319 -10 -11
-130 50 -130 67 0 10 49 185 86 309 7 23 15 22 84 -13z m880 -129 l13 -60 -49
-58 c-27 -32 -56 -66 -63 -76 -7 -9 -19 -61 -27 -115 -7 -53 -16 -109 -19
-124 -6 -23 -2 -30 26 -47 39 -24 40 -22 59 57 6 28 16 55 21 58 8 5 148 -63
182 -89 14 -11 11 -30 -34 -186 -27 -96 -51 -176 -53 -178 -3 -3 -181 90 -193
101 -2 1 6 35 17 74 25 90 25 88 -6 109 l-27 17 -42 -49 c-23 -26 -52 -50 -64
-52 -25 -3 -97 30 -104 49 -3 7 -6 -10 -6 -38 -1 -41 -8 -62 -33 -100 -19 -28
-45 -53 -61 -58 -39 -14 -110 7 -169 49 -26 19 -56 35 -67 35 -22 0 -45 25
-36 40 3 5 -10 42 -29 81 -43 86 -48 151 -15 193 11 14 18 29 15 34 -2 4 -32
21 -65 37 -34 16 -61 33 -61 37 0 11 100 331 105 336 2 3 143 -64 153 -73 2
-2 -8 -41 -22 -87 -14 -45 -21 -87 -17 -91 5 -5 28 17 52 48 37 47 48 55 68
50 14 -4 30 0 40 8 9 8 55 25 102 37 48 12 91 25 96 29 5 3 35 39 66 78 l58
73 88 -44 88 -45 13 -60z m286 -527 c53 -29 83 -51 80 -59 -2 -7 -26 -84 -51
-171 -26 -88 -51 -163 -55 -167 -9 -10 -159 70 -166 88 -4 10 80 326 93 348 6
11 7 11 99 -39z m290 -173 c-3 -9 -29 -91 -57 -183 l-53 -168 -85 46 c-48 26
-87 47 -89 49 -2 1 86 303 103 353 7 21 187 -75 181 -97z m220 -103 c8 -6 -5
-58 -44 -181 -30 -94 -58 -176 -63 -181 -9 -10 -179 83 -186 102 -4 10 68 261
98 340 l9 24 88 -48 c48 -26 92 -51 98 -56z m-1641 -58 c209 -66 373 -207 470
-405 58 -118 78 -204 78 -335 0 -116 -29 -255 -58 -277 -17 -12 -129 -25 -227
-27 -42 -1 -61 4 -77 18 -13 12 -28 16 -44 12 -17 -4 -33 1 -53 17 -24 19 -41
22 -115 22 -83 1 -91 3 -173 45 -77 40 -86 47 -86 72 0 28 -13 37 -25 18 -9
-15 -18 -13 -62 20 -33 24 -39 34 -35 55 6 34 37 53 94 61 32 5 55 2 76 -9 23
-11 29 -11 26 -2 -3 7 8 28 25 47 17 20 44 61 61 93 17 32 43 70 58 84 l27 25
-30 6 c-16 4 -35 2 -42 -3 -16 -12 -33 0 -33 24 0 23 -15 25 -24 3 -5 -13 -13
-10 -44 17 -21 19 -51 44 -66 57 -20 17 -26 29 -22 45 3 12 6 28 6 35 0 7 14
12 35 12 41 0 45 17 10 43 -22 15 -25 16 -25 2 0 -11 -11 -15 -44 -15 -25 0
-48 5 -51 11 -5 6 -12 4 -20 -8 -13 -17 -14 -17 -32 0 -17 17 -17 20 -2 30 15
9 14 13 -10 37 -14 14 -35 29 -45 33 -22 9 -94 -23 -121 -53 -18 -19 -17 -20
7 -20 42 0 51 -21 46 -114 -3 -61 -10 -93 -26 -119 -11 -20 -26 -55 -32 -78
-7 -23 -15 -38 -20 -33 -20 21 -92 167 -115 232 -35 102 -34 113 25 164 98 85
216 144 345 174 89 20 280 12 370 -16z"/>
<path d="M1667 2068 c-46 -12 -76 -25 -74 -32 3 -10 203 -125 218 -126 9 0 34
39 42 65 5 16 -1 24 -30 40 -23 12 -40 30 -43 45 -7 32 -18 33 -113 8z"/>
<path d="M1894 1944 c-4 -10 -14 -27 -22 -36 -12 -15 -12 -25 -1 -70 l13 -53
12 85 c11 85 11 110 -2 74z"/>
<path d="M1357 1877 c-9 -30 -17 -56 -17 -60 0 -5 70 2 78 8 1 1 -5 18 -13 38
-19 46 -19 50 3 43 14 -5 14 -4 -2 9 -11 8 -23 15 -26 15 -4 0 -14 -24 -23
-53z"/>
<path d="M1313 1764 c-22 -22 -25 -32 -21 -74 5 -46 53 -160 68 -160 4 0 15 9
25 20 10 11 24 20 31 20 7 0 39 23 72 50 65 54 72 58 72 36 0 -8 -25 -36 -55
-62 -30 -26 -55 -52 -55 -58 0 -5 -10 -20 -22 -33 -21 -22 -21 -23 -2 -44 10
-12 40 -32 66 -45 178 -90 218 101 57 271 -55 59 -136 105 -181 105 -18 0 -39
-10 -55 -26z"/>
<path d="M1609 1737 c23 -26 53 -71 67 -100 13 -29 24 -45 24 -37 0 26 -56
113 -96 150 -37 34 -37 34 5 -13z"/>
<path d="M1837 1716 c-9 -10 -17 -26 -17 -37 0 -16 3 -18 17 -10 13 7 25 4 46
-11 40 -28 49 -12 11 20 -17 15 -33 33 -36 41 -3 11 -7 10 -21 -3z"/>
<path d="M1061 1172 c-15 -29 -7 -42 28 -42 31 0 71 -45 71 -80 0 -15 11 -26
35 -36 19 -7 37 -14 40 -14 7 0 6 41 -1 79 -9 42 -93 106 -128 97 -15 -4 -26
-1 -28 6 -3 8 -9 4 -17 -10z"/>
<path d="M988 1173 c-19 -5 -24 -18 -9 -27 5 -3 20 3 32 14 24 19 16 24 -23
13z"/>
<path d="M860 1096 c0 -2 7 -6 15 -10 8 -3 15 -1 15 4 0 6 -7 10 -15 10 -8 0
-15 -2 -15 -4z"/>
<path d="M985 1090 c-3 -6 2 -13 12 -16 48 -15 64 -26 72 -48 5 -13 17 -26 25
-29 21 -8 20 -1 -4 38 -32 52 -89 81 -105 55z"/>
<path d="M1055 961 c-7 -12 31 -51 68 -70 15 -8 27 -21 27 -29 0 -10 6 -12 18
-7 9 4 25 10 35 12 16 5 13 11 -19 44 -20 21 -43 35 -50 32 -8 -3 -25 2 -39
11 -28 19 -32 19 -40 7z"/>
<path d="M1000 460 c-11 -7 -6 -10 20 -10 26 0 31 3 20 10 -8 5 -17 10 -20 10
-3 0 -12 -5 -20 -10z"/>
<path d="M1067 439 c7 -7 15 -10 18 -7 3 3 -2 9 -12 12 -14 6 -15 5 -6 -5z"/>
<path d="M1145 430 c3 -5 11 -10 16 -10 6 0 7 5 4 10 -3 6 -11 10 -16 10 -6 0
-7 -4 -4 -10z"/>
</g>
</svg>
