<?xml version="1.0" standalone="no"?>
<!DOCTYPE svg PUBLIC "-//W3C//DTD SVG 20010904//EN"
 "http://www.w3.org/TR/2001/REC-SVG-20010904/DTD/svg10.dtd">
<svg version="1.0" xmlns="http://www.w3.org/2000/svg"
 width="284.000000pt" height="264.000000pt" viewBox="0 0 284.000000 264.000000"
 preserveAspectRatio="xMidYMid meet">

<g transform="translate(0.000000,264.000000) scale(0.100000,-0.100000)"
fill="#000000" stroke="none">
<path d="M1205 2391 c-16 -4 -44 -15 -61 -24 -17 -9 -34 -14 -37 -11 -5 5 -16
-9 -67 -80 -14 -20 -31 -36 -37 -36 -7 0 -21 -17 -32 -39 -15 -29 -28 -40 -52
-45 -27 -5 -30 -9 -25 -31 5 -18 2 -25 -9 -25 -27 0 -20 -86 10 -124 35 -43
40 -48 72 -74 94 -77 91 -75 124 -62 29 12 32 11 53 -15 l23 -28 16 24 c9 13
17 34 17 47 0 35 24 21 28 -15 4 -43 96 -131 117 -113 24 20 18 59 -10 72 -27
12 -32 27 -13 46 23 23 45 12 82 -42 37 -53 37 -55 21 -85 l-15 -31 -268 -2
-267 -3 -3 -140 c-12 -550 159 -959 496 -1190 40 -27 70 -50 69 -52 -2 -1 -28
4 -57 13 -42 13 -66 29 -110 73 -30 32 -70 66 -87 75 -18 9 -33 20 -33 25 0 4
-18 29 -40 54 -24 27 -47 67 -56 96 -8 28 -20 53 -26 57 -8 5 -9 1 -3 -12 4
-10 11 -55 15 -99 3 -44 12 -91 20 -105 l13 -25 -22 20 c-31 27 -40 46 -51
105 -7 39 -6 61 5 93 9 27 11 45 5 51 -7 7 -10 1 -11 -15 0 -19 -3 -16 -15 16
-23 64 -35 84 -50 78 -10 -4 -14 4 -14 25 0 43 -20 132 -30 132 -4 0 -5 -15
-1 -32 4 -18 4 -73 -1 -123 -8 -84 -6 -114 8 -189 9 -42 -14 -24 -39 33 -28
63 -29 187 -1 251 16 37 18 58 13 116 -4 40 -11 80 -17 90 -9 16 -11 14 -26
-12 l-16 -29 6 52 c4 29 3 68 0 89 l-7 36 -25 -23 c-13 -12 -24 -27 -24 -33 0
-6 9 0 20 14 l20 25 0 -42 c0 -23 -12 -90 -26 -150 -21 -86 -25 -124 -21 -188
2 -44 7 -87 11 -95 3 -8 2 -21 -3 -28 -6 -11 -25 -5 -88 27 -89 44 -162 115
-180 175 -6 20 -10 36 -9 36 2 0 17 -20 35 -45 35 -49 102 -100 154 -117 17
-6 45 -24 60 -42 l28 -31 -28 50 c-25 45 -28 58 -26 135 1 54 10 117 26 174
19 69 23 96 16 128 -7 29 -5 51 7 86 20 61 29 138 16 146 -5 3 -22 -4 -38 -16
-26 -21 -27 -21 -20 -3 13 32 19 132 9 138 -5 3 -9 -10 -9 -29 0 -22 -19 -70
-52 -134 -54 -103 -81 -191 -83 -270 l-1 -45 -14 55 c-30 116 -2 220 92 335
36 44 46 65 50 103 3 27 15 62 29 82 31 45 36 75 13 74 -20 -2 -18 2 29 64 22
29 33 54 32 75 0 18 7 60 17 94 10 34 15 65 11 69 -4 4 -20 -4 -35 -18 -15
-13 -49 -39 -76 -57 -28 -18 -65 -44 -83 -58 -18 -14 -33 -20 -33 -14 0 22
-26 10 -62 -26 -83 -89 -159 -309 -161 -471 -1 -90 26 -282 49 -344 8 -24 21
-65 29 -93 19 -74 79 -195 120 -239 19 -21 44 -54 56 -72 11 -19 36 -46 54
-60 18 -13 56 -46 83 -72 81 -75 125 -109 167 -127 22 -10 65 -29 95 -44 44
-21 75 -27 170 -32 63 -4 126 -10 140 -13 14 -4 5 3 -20 13 -108 48 -140 76
-155 131 -5 20 5 13 49 -33 72 -76 129 -100 304 -132 138 -25 222 -49 222 -64
0 -18 -15 -17 -72 6 -95 39 -283 76 -322 63 -17 -5 -56 -16 -86 -24 -69 -19
-95 -37 -87 -61 8 -20 15 -19 142 26 119 43 180 43 295 -1 106 -40 134 -43
138 -13 3 23 -21 34 -172 73 -44 11 -81 21 -83 23 -1 2 30 26 70 53 153 104
306 289 375 456 82 198 112 358 119 642 5 196 4 221 -11 231 -12 10 -18 36
-22 111 -4 71 -11 106 -24 124 -37 54 -59 109 -66 168 -11 100 21 77 60 -45
18 -55 28 -66 64 -77 35 -11 28 17 -17 63 -22 23 -42 54 -46 71 -8 36 -93 127
-132 140 -15 5 -71 16 -123 25 -52 9 -121 25 -153 35 -31 11 -67 20 -80 20
-13 0 -27 4 -32 8 -12 10 -115 39 -170 47 -22 4 -49 8 -60 10 -11 2 -33 0 -50
-4z m100 -21 c3 -5 26 -10 51 -10 24 0 44 -4 44 -10 0 -5 10 -10 21 -10 12 0
42 -6 68 -14 147 -46 195 -58 278 -71 148 -24 145 -21 162 -161 9 -74 18 -98
56 -149 28 -39 45 -205 20 -205 -8 0 -19 17 -26 43 -15 59 -54 105 -105 127
-28 12 -52 33 -70 59 l-26 41 -27 -19 c-48 -33 -92 -52 -142 -60 -42 -7 -54
-5 -75 12 -22 17 -25 25 -19 53 3 20 2 34 -4 34 -13 0 -24 -36 -17 -57 7 -25
8 -79 2 -133 -3 -25 -7 -58 -8 -75 -4 -40 -38 -49 -38 -10 0 14 -11 43 -25 63
-14 20 -25 44 -25 53 0 9 -9 24 -19 33 -11 10 -22 28 -25 42 -4 13 -12 24 -18
24 -7 0 -23 12 -35 27 -13 14 -23 22 -23 16 0 -6 10 -21 23 -34 12 -14 27 -36
34 -51 11 -26 11 -26 -27 -24 -22 1 -48 10 -60 21 -11 10 -20 13 -20 7 0 -21
-58 -14 -70 9 -7 11 -14 18 -18 15 -3 -4 -17 4 -30 16 -23 21 -25 21 -17 3 4
-11 10 -30 12 -41 3 -14 11 -20 22 -17 27 7 52 -29 45 -65 l-6 -32 -29 36
c-27 34 -28 34 -39 15 -11 -22 -44 -28 -55 -10 -4 5 1 19 11 30 20 22 7 25
-22 5 -17 -13 -21 -12 -36 1 -10 9 -18 22 -18 30 0 7 -9 13 -19 13 -21 0 -81
74 -81 100 0 23 29 60 46 60 9 0 27 -13 41 -30 27 -33 44 -37 62 -16 16 19 -9
80 -38 95 -27 15 -19 34 36 90 24 24 50 56 59 72 8 16 21 29 29 29 8 0 32 9
52 20 40 21 127 28 138 10z m-295 -260 c6 -10 10 -26 10 -34 0 -27 -24 -17
-40 17 -11 24 -23 33 -45 36 -26 3 -27 4 -10 11 26 9 73 -7 85 -30z m-215
-150 c-15 -22 -57 -65 -94 -96 -36 -31 -87 -80 -113 -108 -27 -28 -48 -44 -48
-36 0 29 58 135 91 167 51 47 184 134 188 122 1 -5 -9 -28 -24 -49z m930 -70
c32 -50 31 -72 -2 -137 l-26 -53 -100 0 -99 0 6 25 c4 14 9 45 13 70 4 32 15
54 36 75 17 17 33 30 36 30 5 1 60 16 108 29 2 1 14 -17 28 -39z m70 -9 c11
-20 14 -22 15 -8 0 10 5 15 10 12 16 -10 12 -61 -6 -76 -8 -7 -22 -25 -30 -41
-16 -31 -51 -41 -39 -10 22 52 25 95 10 118 -8 13 -15 28 -15 33 0 18 41 -2
55 -28z m-1223 -49 c-28 -54 -41 -103 -61 -232 l-7 -45 -12 40 c-28 93 -4 201
58 267 22 23 43 38 46 35 4 -3 -7 -33 -24 -65z m1337 33 c40 -35 68 -107 53
-140 -11 -24 -16 -25 -101 -25 -84 0 -89 1 -84 20 3 11 9 20 14 20 5 0 9 6 9
14 0 8 11 28 25 44 14 17 25 37 25 45 0 22 11 47 20 47 5 0 22 -11 39 -25z
m-1131 -17 c-8 -13 -54 -54 -101 -93 -87 -71 -110 -95 -141 -150 l-17 -30 6
43 c7 52 42 111 88 146 27 21 162 101 176 105 2 1 -3 -9 -11 -21z m519 -23 c9
-19 14 -38 10 -42 -11 -10 -57 38 -57 59 0 30 29 20 47 -17z m43 -45 c0 -11
-4 -20 -10 -20 -5 0 -10 9 -10 20 0 11 5 20 10 20 6 0 10 -9 10 -20z m-600
-56 c0 -3 -40 -45 -88 -92 -49 -49 -98 -107 -110 -132 l-22 -45 0 38 c0 21 9
54 19 75 23 43 103 124 146 146 31 16 55 21 55 10z m1013 -9 c1 -5 -6 -11 -15
-13 -11 -2 -18 3 -18 13 0 17 30 18 33 0z m265 -2 c2 -8 -6 -13 -22 -13 -25 0
-33 10 -19 24 10 10 36 3 41 -11z m-1525 -180 c10 -19 17 -54 17 -85 l-1 -53
-29 34 c-51 59 -62 168 -27 263 12 32 12 30 18 -47 3 -46 12 -94 22 -112z
m987 177 c0 -5 -11 -10 -25 -10 -14 0 -25 5 -25 10 0 6 11 10 25 10 14 0 25
-4 25 -10z m567 -242 c-5 -194 -34 -429 -55 -450 -5 -5 -122 77 -262 182 -139
104 -255 190 -258 190 -2 0 -119 -86 -260 -190 -174 -129 -258 -186 -263 -178
-26 49 -59 332 -59 510 l0 138 581 0 582 0 -6 -202z m-1370 121 c-8 -19 -33
-63 -56 -98 -22 -35 -51 -92 -64 -125 l-22 -61 -3 60 c-4 83 17 132 90 204 34
33 63 59 65 57 2 -2 -2 -19 -10 -37z m-189 -202 c18 -18 32 -43 32 -54 0 -12
4 -33 10 -47 14 -37 -3 -33 -44 10 -46 47 -76 128 -75 202 l0 57 23 -68 c14
-40 35 -81 54 -100z m237 -59 c-62 -140 -88 -220 -93 -293 -5 -68 -6 -69 -18
-40 -18 42 -17 155 2 228 21 81 46 128 96 179 57 58 61 34 13 -74z m-236 -60
c41 -39 51 -57 57 -93 3 -25 2 -45 -3 -45 -20 0 -81 62 -107 110 -21 38 -30
70 -33 119 l-4 66 20 -55 c13 -38 35 -69 70 -102z m1241 -94 c137 -102 250
-192 250 -200 0 -16 -53 -151 -78 -199 l-17 -33 -208 154 -207 154 -200 -150
c-110 -82 -204 -150 -210 -150 -17 0 -110 223 -98 235 24 25 496 374 505 374
7 1 125 -83 263 -185z m-1006 -20 c-8 -38 -22 -100 -30 -139 -9 -38 -14 -89
-12 -113 3 -42 3 -43 -14 -22 -42 51 -32 177 24 301 38 86 54 74 32 -27z
m-196 -43 c38 -32 54 -55 67 -93 9 -28 15 -52 13 -54 -7 -7 -100 74 -125 109
-14 20 -29 35 -31 32 -14 -13 75 -118 129 -153 32 -20 61 -45 64 -55 4 -9 18
-31 33 -49 l27 -32 -63 34 c-80 42 -154 122 -181 196 -12 30 -19 59 -16 64 3
4 -2 27 -10 50 -23 65 -18 77 14 33 16 -22 52 -59 79 -82z m308 -158 c-18 -85
-21 -228 -6 -268 7 -17 7 -24 0 -20 -18 11 -10 -12 10 -30 11 -10 18 -20 16
-22 -9 -9 -213 95 -249 127 -60 52 -67 77 -10 36 36 -26 223 -111 223 -102 0
1 -9 19 -19 40 -44 85 -36 258 16 344 l28 47 3 -38 c2 -21 -4 -72 -12 -114z
m835 -79 c107 -80 195 -149 197 -153 6 -16 -86 -139 -158 -212 -77 -77 -212
-179 -237 -179 -25 0 -163 102 -237 175 -39 39 -93 103 -120 143 -48 70 -49
73 -30 87 10 7 100 75 199 149 99 74 183 135 186 136 3 0 93 -65 200 -146z
m-717 -106 c3 -18 7 -66 10 -107 3 -43 13 -89 24 -112 23 -46 20 -47 -23 -15
-37 29 -55 80 -55 159 0 87 34 144 44 75z m-262 -107 c18 -11 74 -36 125 -56
90 -36 134 -65 99 -65 -9 0 -53 12 -97 27 -60 19 -93 37 -127 69 -51 47 -51
55 0 25z m443 -182 c40 -76 36 -87 -12 -36 -32 32 -44 55 -57 112 -7 29 -7 29
12 11 11 -10 37 -49 57 -87z m-275 55 c30 -8 65 -14 77 -14 26 0 98 -33 108
-50 8 -14 -20 -13 -108 4 -84 16 -123 33 -152 67 -20 22 -20 22 0 15 11 -4 45
-14 75 -22z m177 -94 c39 -6 78 -17 87 -23 30 -22 -174 -5 -206 17 -39 25 -35
35 10 26 20 -5 69 -13 109 -20z m173 -72 l35 -23 -29 -3 c-43 -5 -105 6 -151
28 l-40 18 75 1 c61 1 81 -3 110 -21z m110 -122 c-52 -18 -101 -34 -109 -37
-7 -2 -15 1 -18 8 -6 16 131 60 192 61 19 1 -5 -11 -65 -32z"/>
<path d="M1215 2340 c-8 -13 5 -13 25 0 13 8 13 10 -2 10 -9 0 -20 -4 -23 -10z"/>
<path d="M1385 2320 c-3 -5 1 -10 9 -10 9 0 16 5 16 10 0 6 -4 10 -9 10 -6 0
-13 -4 -16 -10z"/>
<path d="M1492 2282 c-10 -3 -10 -8 3 -22 14 -15 14 -21 3 -39 -7 -11 -19 -22
-26 -23 -11 -2 -9 -9 8 -28 15 -17 20 -20 16 -7 -3 9 3 32 12 50 14 25 16 37
8 53 -6 11 -17 19 -24 16z"/>
<path d="M1079 2238 c-8 -7 -21 -22 -29 -33 -8 -11 0 -7 18 9 18 17 32 31 32
33 0 6 -6 3 -21 -9z"/>
<path d="M1768 2223 c7 -3 16 -2 19 1 4 3 -2 6 -13 5 -11 0 -14 -3 -6 -6z"/>
<path d="M1848 2213 c8 -3 23 -19 34 -37 17 -27 19 -28 13 -6 -10 34 -24 50
-44 49 -11 0 -12 -2 -3 -6z"/>
<path d="M1176 2175 c4 -8 8 -15 10 -15 2 0 4 7 4 15 0 8 -4 15 -10 15 -5 0
-7 -7 -4 -15z"/>
<path d="M1055 2145 c-20 -16 -20 -16 1 -10 17 4 23 0 28 -21 4 -15 2 -32 -5
-40 -9 -11 -8 -14 5 -14 14 0 17 8 14 47 -3 52 -14 61 -43 38z"/>
<path d="M1180 2133 c0 -5 11 -20 25 -33 14 -13 25 -21 25 -17 0 3 -11 18 -25
33 -14 15 -25 23 -25 17z"/>
<path d="M1052 2090 c0 -14 2 -19 5 -12 2 6 2 18 0 25 -3 6 -5 1 -5 -13z"/>
<path d="M1175 2061 c-3 -5 -1 -12 5 -16 5 -3 10 1 10 9 0 18 -6 21 -15 7z"/>
<path d="M1348 2063 c7 -3 16 -2 19 1 4 3 -2 6 -13 5 -11 0 -14 -3 -6 -6z"/>
<path d="M1051 2041 c-9 -6 -7 -10 8 -14 12 -3 21 -1 21 3 0 14 -15 19 -29 11z"/>
<path d="M1900 2040 c0 -17 17 -47 23 -40 2 3 -2 16 -10 30 -7 14 -13 18 -13
10z"/>
<path d="M951 2025 c1 -19 18 -51 18 -35 0 8 -4 22 -9 30 -5 8 -9 11 -9 5z"/>
<path d="M1011 1996 c-8 -9 -8 -16 -2 -20 6 -4 15 3 21 14 12 23 -2 27 -19 6z"/>
<path d="M1615 1995 c-39 -13 -39 -13 -9 -14 16 -1 39 6 50 14 23 17 12 17
-41 0z"/>
<path d="M1255 1990 c-3 -5 -1 -10 4 -10 6 0 11 5 11 10 0 6 -2 10 -4 10 -3 0
-8 -4 -11 -10z"/>
<path d="M1175 1980 c3 -5 14 -10 23 -10 15 0 15 2 2 10 -20 13 -33 13 -25 0z"/>
<path d="M1287 1929 c7 -7 15 -10 18 -7 3 3 -2 9 -12 12 -14 6 -15 5 -6 -5z"/>
<path d="M1460 1899 c0 -5 5 -7 10 -4 6 3 10 8 10 11 0 2 -4 4 -10 4 -5 0 -10
-5 -10 -11z"/>
<path d="M960 1556 c0 -134 51 -263 127 -321 25 -19 50 -35 55 -35 22 0 117
105 138 151 22 53 47 216 37 243 -6 14 -30 16 -182 16 l-175 0 0 -54z m340
-28 c0 -69 -17 -144 -44 -196 -21 -41 -93 -112 -114 -112 -30 0 -81 51 -111
113 -30 61 -59 211 -47 243 4 11 39 14 161 14 l155 0 0 -62z"/>
<path d="M1045 1540 c-14 -16 -16 -23 -7 -32 7 -7 12 -42 12 -83 0 -68 1 -73
35 -105 l35 -34 25 24 c24 23 25 23 46 4 21 -19 21 -19 40 5 18 21 18 26 4 41
-10 11 -15 38 -15 85 0 57 -4 73 -22 92 -19 21 -23 21 -38 8 -14 -12 -16 -29
-13 -88 2 -39 0 -78 -5 -86 -19 -28 -32 1 -32 73 0 63 -3 75 -23 94 l-24 22
-18 -20z m45 -95 c0 -57 4 -75 18 -89 18 -15 20 -15 36 3 14 16 17 34 15 95
-4 80 2 96 26 76 11 -9 15 -32 15 -84 0 -43 5 -77 12 -84 9 -9 9 -15 0 -24
-10 -10 -16 -8 -29 5 -16 16 -19 15 -45 -10 l-28 -27 -24 24 c-21 22 -25 35
-26 110 -3 106 -3 105 15 90 11 -9 15 -33 15 -85z"/>
<path d="M1630 1531 c0 -138 49 -246 141 -311 l29 -22 35 22 c85 52 134 155
142 298 l6 92 -177 0 -176 0 0 -79z m337 43 c11 -29 -16 -178 -42 -231 -28
-57 -95 -123 -124 -123 -28 0 -106 92 -126 148 -9 26 -19 86 -22 135 l-6 87
157 0 c134 0 158 -2 163 -16z"/>
<path d="M1809 1551 c-21 -17 -26 -18 -40 -5 -14 12 -18 12 -33 -5 -14 -15
-15 -24 -7 -40 15 -26 14 -144 -1 -176 -17 -37 2 -52 36 -30 21 14 31 15 57 6
38 -13 63 -2 84 39 20 39 19 63 -4 91 -17 21 -17 25 -3 35 14 10 11 17 -22 58
-21 25 -40 46 -41 46 -2 0 -13 -9 -26 -19z m54 -34 c17 -21 18 -29 8 -41 -11
-13 -9 -20 8 -42 28 -36 26 -58 -6 -94 -26 -29 -30 -30 -60 -20 -23 8 -37 8
-52 1 -26 -15 -38 -14 -23 1 15 15 16 174 2 183 -8 5 -7 11 1 21 9 11 15 11
25 3 11 -9 19 -8 36 4 28 20 37 18 61 -16z"/>
<path d="M1792 1508 c-13 -13 -17 -78 -4 -78 4 1 20 12 37 25 28 24 29 24 10
44 -21 24 -27 25 -43 9z m30 -40 c-15 -15 -26 -4 -18 18 5 13 9 15 18 6 9 -9
9 -15 0 -24z"/>
<path d="M1797 1422 c-10 -10 -17 -31 -17 -46 0 -25 3 -27 38 -24 33 3 37 6
40 33 3 19 -2 33 -14 42 -23 17 -28 16 -47 -5z m51 -38 c-4 -25 -36 -30 -45
-8 -4 11 1 22 12 30 22 16 39 5 33 -22z"/>
<path d="M1449 1287 c-13 -25 -22 -31 -43 -29 -25 3 -26 2 -20 -45 7 -62 20
-88 51 -102 57 -26 102 1 113 70 4 24 11 52 15 62 6 15 4 18 -12 15 -13 -2
-30 9 -47 30 -15 17 -31 32 -34 32 -4 0 -14 -15 -23 -33z m45 -12 c3 -9 4 -34
2 -58 -2 -23 -2 -35 1 -26 2 10 12 24 22 33 17 15 18 14 11 -31 -11 -67 -66
-98 -102 -55 -18 20 -34 107 -18 97 5 -3 10 -15 10 -25 0 -10 5 -22 10 -25 7
-4 9 2 5 17 -3 14 2 36 15 56 22 35 35 40 44 17z"/>
<path d="M1261 1146 c-17 -27 -26 -32 -46 -28 -23 4 -25 2 -19 -29 17 -95 35
-119 91 -119 42 0 71 25 78 68 3 20 8 47 11 60 3 16 0 22 -14 22 -10 0 -28 14
-40 30 -13 17 -27 30 -31 30 -5 0 -19 -15 -30 -34z m49 -55 c-5 -11 -10 -28
-10 -38 0 -13 6 -8 20 15 11 17 22 32 25 32 10 0 -8 -85 -20 -99 -18 -19 -62
-17 -84 3 -20 18 -34 99 -16 93 5 -2 12 -12 13 -23 7 -34 18 -35 14 -1 -2 22
3 41 19 61 l22 28 14 -26 c10 -19 11 -31 3 -45z"/>
<path d="M1631 1146 c-17 -27 -26 -32 -47 -28 -22 4 -25 2 -20 -14 3 -11 10
-39 15 -64 12 -53 32 -70 81 -70 54 0 68 18 84 118 5 26 2 32 -12 32 -10 0
-28 14 -40 30 -13 17 -27 30 -31 30 -5 0 -19 -15 -30 -34z m52 -27 c0 -13 -3
-37 -7 -54 l-8 -30 22 34 c11 18 24 31 27 28 9 -10 -8 -85 -23 -98 -20 -16
-63 -14 -81 4 -19 19 -36 100 -19 94 6 -2 13 -12 14 -23 6 -32 19 -37 14 -5
-3 20 3 40 18 61 24 34 41 29 43 -11z"/>
<path d="M1079 1017 c-14 -27 -21 -32 -49 -29 -27 2 -31 0 -25 -15 4 -10 11
-38 15 -62 8 -51 38 -81 80 -81 42 0 72 30 80 81 4 24 9 51 11 59 3 10 -3 14
-18 13 -14 -2 -23 3 -23 10 0 12 -40 57 -51 57 -2 0 -11 -15 -20 -33z m47 -66
c-2 -25 -2 -38 1 -29 2 9 11 22 19 28 12 11 14 7 14 -24 0 -64 -65 -100 -103
-58 -20 21 -36 109 -19 98 7 -4 12 -15 12 -24 0 -9 5 -24 10 -32 7 -11 9 -7 5
15 -8 41 29 102 51 85 10 -9 13 -27 10 -59z"/>
<path d="M1819 1017 c-13 -25 -22 -32 -44 -30 -23 2 -26 -1 -21 -20 3 -12 6
-37 6 -55 0 -42 38 -82 78 -82 43 0 72 29 82 80 5 25 12 53 16 63 5 15 3 18
-13 15 -13 -2 -30 9 -47 30 -15 17 -31 32 -34 32 -4 0 -14 -15 -23 -33z m45
-14 c4 -9 4 -37 1 -62 l-6 -46 15 33 c8 17 19 32 24 32 12 0 -2 -76 -18 -95
-17 -20 -63 -19 -82 3 -18 20 -34 107 -18 97 5 -3 10 -15 10 -25 0 -10 4 -21
8 -24 5 -3 9 7 9 22 0 28 29 82 43 82 4 0 11 -8 14 -17z"/>
<path d="M1246 761 c-18 -7 -18 -8 -2 -14 16 -6 18 -17 14 -77 -3 -58 -1 -70
12 -70 12 0 14 14 12 85 -2 47 -7 85 -10 84 -4 0 -16 -4 -26 -8z"/>
<path d="M1346 755 c-20 -21 -20 -39 -1 -55 14 -12 14 -15 -1 -31 -41 -45 18
-100 70 -65 29 18 35 56 11 76 -11 9 -12 16 -2 31 26 41 -41 79 -77 44z m58
-10 c6 -17 -2 -45 -14 -45 -15 0 -32 30 -26 45 7 19 32 19 40 0z m4 -113 c-4
-33 -33 -41 -48 -13 -8 15 -8 27 0 41 16 30 52 9 48 -28z"/>
<path d="M1517 738 c-38 -53 -57 -82 -57 -90 0 -5 16 -8 36 -8 31 0 36 -3 31
-20 -4 -16 0 -20 19 -20 17 0 22 4 17 16 -3 9 0 20 8 26 11 7 11 11 2 15 -8 3
-13 25 -13 59 0 30 -4 54 -9 54 -6 0 -21 -15 -34 -32z m13 -43 c0 -31 -3 -35
-25 -35 l-24 0 20 35 c12 19 23 35 25 35 2 0 4 -16 4 -35z"/>
<path d="M1650 743 c-42 -38 -52 -101 -21 -132 11 -11 30 -21 41 -21 26 0 60
34 60 60 0 29 -37 62 -61 55 -10 -4 -19 -2 -19 3 0 11 40 48 60 55 10 4 7 6
-7 6 -13 1 -37 -11 -53 -26z m38 -65 c26 -26 4 -88 -25 -70 -15 9 -27 58 -18
71 8 14 28 14 43 -1z"/>
<path d="M2105 2008 c4 -24 14 -56 22 -71 8 -15 11 -37 8 -47 -7 -22 24 -87
54 -114 24 -22 28 -38 6 -30 -25 10 -18 -29 15 -77 30 -45 41 -101 18 -97 -15
3 -17 -80 -3 -126 l8 -30 -28 22 c-26 20 -30 21 -38 7 -10 -18 -1 -81 19 -139
9 -24 12 -53 8 -74 l-7 -36 -18 22 c-37 47 -50 21 -45 -89 3 -47 11 -89 22
-110 26 -50 27 -250 1 -297 -10 -19 -17 -36 -14 -38 9 -9 183 68 220 97 26 21
36 25 29 13 -14 -26 -59 -67 -108 -97 -45 -28 -185 -89 -190 -84 -2 2 7 14 21
27 25 24 35 47 14 34 -8 -4 -9 0 -4 15 12 38 6 194 -9 269 -9 40 -16 86 -16
102 0 31 15 48 24 28 3 -7 3 -2 0 12 -8 33 -13 37 -24 20 -11 -18 -24 -135
-16 -148 3 -6 -2 -8 -12 -5 -16 4 -21 -5 -30 -53 -7 -31 -12 -68 -12 -80 0
-15 -5 -22 -13 -18 -14 5 -47 -54 -47 -84 0 -15 -2 -15 -10 -2 -9 13 -13 12
-26 -5 -21 -26 -44 -80 -44 -101 0 -9 -20 -39 -45 -66 -25 -28 -45 -54 -45
-59 0 -5 -13 -15 -28 -23 -16 -8 -53 -40 -83 -71 -41 -42 -70 -62 -110 -76
-30 -10 -45 -18 -34 -19 42 0 129 51 182 108 52 57 67 57 38 2 -18 -35 -58
-64 -133 -96 -31 -14 -46 -22 -32 -19 14 4 79 10 146 14 103 6 128 11 167 33
26 15 60 29 77 33 18 4 54 27 81 51 27 24 53 44 57 44 13 0 174 161 227 228
47 59 125 202 125 230 0 7 11 45 25 85 54 153 74 416 41 532 -9 29 -16 62 -16
72 0 34 -95 216 -130 251 -36 34 -45 38 -55 22 -5 -8 -84 43 -187 122 -20 15
-40 28 -43 28 -4 0 -4 -19 0 -42z m120 -55 c97 -65 155 -137 169 -213 l7 -35
-34 40 c-19 22 -69 69 -111 104 -74 62 -136 139 -136 169 0 12 5 11 23 -5 12
-11 49 -38 82 -60z m202 -141 c32 -53 42 -155 22 -222 l-13 -45 -7 65 c-11 97
-27 160 -55 209 -13 24 -24 53 -24 64 0 20 1 20 26 -4 14 -13 37 -43 51 -67z
m-186 7 c41 -22 89 -54 107 -72 37 -36 72 -102 72 -138 0 -20 -6 -16 -35 28
-19 28 -63 73 -97 99 -74 55 -128 105 -128 116 0 12 1 11 81 -33z m15 -105
c46 -22 153 -139 161 -175 14 -71 51 9 53 116 l2 70 15 -35 c38 -87 22 -219
-32 -270 l-25 -23 0 30 c0 17 -3 33 -7 35 -5 2 -19 25 -33 52 -14 29 -55 76
-102 120 -101 92 -112 118 -32 80z m120 -211 c35 -58 45 -101 38 -156 l-7 -47
-22 63 c-12 35 -36 84 -52 108 -33 47 -58 94 -73 135 -9 22 -5 21 41 -18 28
-23 62 -62 75 -85z m-98 -6 c24 -29 59 -83 78 -121 38 -76 43 -133 22 -228
l-12 -53 -7 71 c-9 91 -21 129 -75 232 -43 82 -69 153 -56 151 4 0 26 -24 50
-52z m222 -133 c-27 -56 -69 -104 -90 -104 -14 0 22 105 45 130 30 33 51 77
62 125 8 39 8 38 11 -24 3 -55 -1 -73 -28 -127z m-239 2 c75 -99 108 -292 63
-376 -13 -24 -13 -22 -14 25 0 71 -23 152 -80 283 -28 62 -50 120 -50 129 0
24 38 -4 81 -61z m269 -71 c-7 -22 -14 -61 -15 -86 -4 -76 -57 -158 -140 -218
-45 -32 -47 -33 -40 -10 20 64 39 92 104 157 39 38 71 74 71 81 0 6 -22 -12
-48 -39 -62 -64 -75 -65 -66 -2 5 31 14 52 28 62 49 34 104 114 108 157 1 10
3 0 5 -22 3 -22 -1 -58 -7 -80z m-285 -102 c53 -116 68 -222 41 -287 -23 -56
-31 -48 -32 33 -1 42 -11 113 -23 158 -19 73 -28 153 -17 153 3 0 16 -26 31
-57z m-66 -11 c24 -47 61 -217 61 -279 0 -49 -36 -143 -61 -158 -9 -6 -10 -3
-4 11 4 10 10 57 12 104 4 69 0 106 -21 193 -39 162 -33 219 13 129z m297
-147 c-14 -32 -23 -61 -20 -66 11 -18 -35 -96 -83 -141 -43 -40 -179 -115
-189 -105 -10 10 52 74 81 84 50 17 118 67 154 112 47 58 37 60 -22 3 -30 -27
-78 -62 -107 -77 l-54 -27 27 31 c14 17 28 39 32 48 3 10 34 36 68 58 39 26
74 59 96 92 19 29 37 51 39 48 2 -2 -8 -29 -22 -60z m-391 -127 c37 -94 27
-233 -21 -286 l-25 -27 8 25 c4 14 7 94 5 178 -1 88 1 152 7 152 5 0 16 -19
26 -42z m-55 -215 c0 -84 -16 -130 -55 -161 -35 -28 -41 -23 -20 18 10 19 20
72 24 129 9 111 17 134 38 106 8 -12 13 -46 13 -92z m-86 -26 c9 -49 -12 -134
-41 -165 -13 -15 -21 -21 -17 -13 4 8 10 51 15 97 8 92 16 127 29 119 4 -3 11
-20 14 -38z m330 -12 c-9 -14 -35 -36 -58 -50 -41 -23 -164 -65 -193 -65 -35
0 12 31 100 65 51 19 106 44 122 54 41 27 48 25 29 -4z m-399 -107 c-4 -18
-20 -55 -36 -82 -22 -36 -25 -47 -13 -42 9 4 59 13 110 21 52 9 102 18 111 22
16 6 16 5 4 -11 -8 -9 -24 -22 -35 -29 -26 -14 -217 -26 -208 -13 3 5 -2 7
-11 3 -21 -8 -21 -8 3 48 18 43 67 115 77 115 3 0 2 -15 -2 -32z m279 -9 c-29
-32 -68 -49 -151 -65 -88 -17 -116 -18 -108 -4 12 19 80 47 132 54 28 3 69 13
90 21 53 19 59 18 37 -6z m-279 -169 c-46 -22 -108 -33 -151 -28 l-29 3 35 23
c29 18 49 22 110 21 l75 -1 -40 -18z"/>
<path d="M2431 1484 c0 -11 3 -14 6 -6 3 7 2 16 -1 19 -3 4 -6 -2 -5 -13z"/>
</g>
</svg>
